<svg width="18" height="22" viewBox="0 0 18 22" fill="none" xmlns="http://www.w3.org/2000/svg">
<path d="M9 8.9375C9.18234 8.9375 9.35721 9.00993 9.48614 9.13886C9.61507 9.2678 9.6875 9.44266 9.6875 9.625V11.6875H11.75C11.9323 11.6875 12.1072 11.7599 12.2361 11.8889C12.3651 12.0178 12.4375 12.1927 12.4375 12.375C12.4375 12.5573 12.3651 12.7322 12.2361 12.8611C12.1072 12.9901 11.9323 13.0625 11.75 13.0625H9.6875V15.125C9.6875 15.3073 9.61507 15.4822 9.48614 15.6111C9.35721 15.7401 9.18234 15.8125 9 15.8125C8.81766 15.8125 8.6428 15.7401 8.51386 15.6111C8.38493 15.4822 8.3125 15.3073 8.3125 15.125V13.0625H6.25C6.06766 13.0625 5.8928 12.9901 5.76386 12.8611C5.63493 12.7322 5.5625 12.5573 5.5625 12.375C5.5625 12.1927 5.63493 12.0178 5.76386 11.8889C5.8928 11.7599 6.06766 11.6875 6.25 11.6875H8.3125V9.625C8.3125 9.44266 8.38493 9.2678 8.51386 9.13886C8.6428 9.00993 8.81766 8.9375 9 8.9375Z" fill="#98CDFF"/>
<path d="M17.25 6.1875V19.25C17.25 19.9793 16.9603 20.6788 16.4445 21.1945C15.9288 21.7103 15.2293 22 14.5 22H3.5C2.77065 22 2.07118 21.7103 1.55546 21.1945C1.03973 20.6788 0.75 19.9793 0.75 19.25V2.75C0.75 2.02065 1.03973 1.32118 1.55546 0.805456C2.07118 0.289731 2.77065 0 3.5 0L11.0625 0L17.25 6.1875ZM13.125 6.1875C12.578 6.1875 12.0534 5.9702 11.6666 5.58341C11.2798 5.19661 11.0625 4.67201 11.0625 4.125V1.375H3.5C3.13533 1.375 2.78559 1.51987 2.52773 1.77773C2.26987 2.03559 2.125 2.38533 2.125 2.75V19.25C2.125 19.6147 2.26987 19.9644 2.52773 20.2223C2.78559 20.4801 3.13533 20.625 3.5 20.625H14.5C14.8647 20.625 15.2144 20.4801 15.4723 20.2223C15.7301 19.9644 15.875 19.6147 15.875 19.25V6.1875H13.125Z" fill="#98CDFF"/>
</svg>
