<svg width="16" height="18" viewBox="0 0 16 18" fill="none" xmlns="http://www.w3.org/2000/svg">
<path d="M6.45488 1.70563C6.57939 1.39789 6.79297 1.13434 7.06823 0.948771C7.3435 0.763201 7.66791 0.664062 7.99988 0.664062C8.33186 0.664063 8.65627 0.763201 8.93153 0.948771C9.2068 1.13434 9.42037 1.39789 9.54488 1.70563C10.7772 2.04453 11.8641 2.77859 12.6389 3.79507C13.4136 4.81155 13.8332 6.05425 13.8332 7.33229V11.2465L15.3599 13.5365C15.4436 13.662 15.4917 13.8078 15.499 13.9585C15.5063 14.1092 15.4726 14.2591 15.4014 14.3921C15.3303 14.5251 15.2243 14.6363 15.0949 14.7139C14.9655 14.7914 14.8174 14.8323 14.6665 14.8323H10.8874C10.787 15.5265 10.4399 16.1614 9.90963 16.6206C9.37933 17.0797 8.70135 17.3325 7.99988 17.3325C7.29841 17.3325 6.62043 17.0797 6.09013 16.6206C5.55983 16.1614 5.21272 15.5265 5.11238 14.8323H1.33321C1.18235 14.8323 1.0343 14.7914 0.904873 14.7139C0.775447 14.6363 0.669494 14.5251 0.598319 14.3921C0.527144 14.2591 0.493418 14.1092 0.500737 13.9585C0.508057 13.8078 0.556148 13.662 0.639881 13.5365L2.16655 11.2465V7.33229C2.16655 4.64563 3.98321 2.38229 6.45488 1.70563ZM6.82155 14.8323C6.90761 15.0762 7.0672 15.2873 7.27832 15.4367C7.48943 15.5861 7.74168 15.6663 8.0003 15.6663C8.25891 15.6663 8.51116 15.5861 8.72228 15.4367C8.93339 15.2873 9.09298 15.0762 9.17905 14.8323H6.82071H6.82155ZM7.99988 3.16563C6.89481 3.16563 5.835 3.60461 5.0536 4.38602C4.2722 5.16742 3.83321 6.22722 3.83321 7.33229V11.499C3.83325 11.6636 3.78454 11.8245 3.69321 11.9615L2.89071 13.1656H13.1082L12.3057 11.9615C12.2147 11.8244 12.1663 11.6635 12.1665 11.499V7.33229C12.1665 6.22722 11.7276 5.16742 10.9462 4.38602C10.1648 3.60461 9.10495 3.16563 7.99988 3.16563Z" fill="#919EBC"/>
</svg>
