<svg width="40" height="40" viewBox="0 0 40 40" fill="none" xmlns="http://www.w3.org/2000/svg">
<circle cx="20" cy="20" r="20" fill="#E7E7E7"/>
<path d="M20.123 18.9662C20.1084 18.9475 20.0897 18.9324 20.0684 18.922C20.0471 18.9116 20.0236 18.9062 19.9999 18.9062C19.9762 18.9062 19.9528 18.9116 19.9315 18.922C19.9102 18.9324 19.8915 18.9475 19.8769 18.9662L17.6894 21.7338C17.6714 21.7568 17.6602 21.7845 17.6571 21.8136C17.654 21.8426 17.6592 21.872 17.6721 21.8983C17.6849 21.9246 17.7049 21.9467 17.7297 21.9622C17.7545 21.9776 17.7832 21.9858 17.8124 21.9857H19.2558V26.7201C19.2558 26.8061 19.3261 26.8764 19.412 26.8764H20.5839C20.6699 26.8764 20.7402 26.8061 20.7402 26.7201V21.9877H22.1874C22.3183 21.9877 22.3905 21.8373 22.3105 21.7357L20.123 18.9662Z" fill="#626262"/>
<path d="M25.8477 17.1621C24.9531 14.8027 22.6738 13.125 20.0039 13.125C17.334 13.125 15.0547 14.8008 14.1602 17.1602C12.4863 17.5996 11.25 19.125 11.25 20.9375C11.25 23.0957 12.998 24.8438 15.1543 24.8438H15.9375C16.0234 24.8438 16.0938 24.7734 16.0938 24.6875V23.5156C16.0938 23.4297 16.0234 23.3594 15.9375 23.3594H15.1543C14.4961 23.3594 13.877 23.0977 13.416 22.623C12.957 22.1504 12.7129 21.5137 12.7344 20.8535C12.752 20.3379 12.9277 19.8535 13.2461 19.4453C13.5723 19.0293 14.0293 18.7266 14.5371 18.5918L15.2773 18.3984L15.5488 17.6836C15.7168 17.2383 15.9512 16.8223 16.2461 16.4453C16.5372 16.0717 16.8821 15.7433 17.2695 15.4707C18.0723 14.9063 19.0176 14.6074 20.0039 14.6074C20.9902 14.6074 21.9355 14.9063 22.7383 15.4707C23.127 15.7441 23.4707 16.0723 23.7617 16.4453C24.0566 16.8223 24.291 17.2402 24.459 17.6836L24.7285 18.3965L25.4668 18.5918C26.5254 18.877 27.2656 19.8398 27.2656 20.9375C27.2656 21.584 27.0137 22.1934 26.5566 22.6504C26.3325 22.8758 26.0659 23.0546 25.7722 23.1763C25.4785 23.298 25.1636 23.3602 24.8457 23.3594H24.0625C23.9766 23.3594 23.9062 23.4297 23.9062 23.5156V24.6875C23.9062 24.7734 23.9766 24.8438 24.0625 24.8438H24.8457C27.002 24.8438 28.75 23.0957 28.75 20.9375C28.75 19.127 27.5176 17.6035 25.8477 17.1621Z" fill="#626262"/>
</svg>
