<svg width="40" height="40" viewBox="0 0 40 40" fill="none" xmlns="http://www.w3.org/2000/svg">
<circle cx="20" cy="20" r="20" fill="#E7E7E7"/>
<path d="M18.5684 19.6875V24.9375C18.5684 25.1115 18.6384 25.2785 18.7631 25.4015C18.8877 25.5246 19.0568 25.5938 19.2331 25.5938C19.4094 25.5938 19.5785 25.5246 19.7032 25.4015C19.8279 25.2785 19.8979 25.1115 19.8979 24.9375V19.6875C19.8979 19.5135 19.8279 19.3465 19.7032 19.2235C19.5785 19.1004 19.4094 19.0312 19.2331 19.0312C19.0568 19.0312 18.8877 19.1004 18.7631 19.2235C18.6384 19.3465 18.5684 19.5135 18.5684 19.6875Z" fill="#626262"/>
<path d="M21.8923 19.0312C22.0686 19.0312 22.2377 19.1004 22.3624 19.2235C22.487 19.3465 22.5571 19.5135 22.5571 19.6875V24.9375C22.5571 25.1115 22.487 25.2785 22.3624 25.4015C22.2377 25.5246 22.0686 25.5938 21.8923 25.5938C21.716 25.5938 21.5469 25.5246 21.4222 25.4015C21.2976 25.2785 21.2275 25.1115 21.2275 24.9375V19.6875C21.2275 19.5135 21.2976 19.3465 21.4222 19.2235C21.5469 19.1004 21.716 19.0312 21.8923 19.0312Z" fill="#626262"/>
<path d="M23.2216 15.75H27.2102C27.3865 15.75 27.5556 15.8191 27.6803 15.9422C27.805 16.0653 27.875 16.2322 27.875 16.4062C27.875 16.5803 27.805 16.7472 27.6803 16.8703C27.5556 16.9934 27.3865 17.0625 27.2102 17.0625H26.475L25.4752 25.956C25.3849 26.7586 24.9979 27.5002 24.3883 28.0388C23.7787 28.5774 22.9893 28.8751 22.1713 28.875H18.9538C18.1357 28.8751 17.3463 28.5774 16.7367 28.0388C16.1271 27.5002 15.7401 26.7586 15.6498 25.956L14.6487 17.0625H13.9148C13.7385 17.0625 13.5694 16.9934 13.4447 16.8703C13.32 16.7472 13.25 16.5803 13.25 16.4062C13.25 16.2322 13.32 16.0653 13.4447 15.9422C13.5694 15.8191 13.7385 15.75 13.9148 15.75H17.9034C17.9034 15.0538 18.1836 14.3861 18.6822 13.8938C19.1809 13.4016 19.8573 13.125 20.5625 13.125C21.2677 13.125 21.9441 13.4016 22.4428 13.8938C22.9414 14.3861 23.2216 15.0538 23.2216 15.75ZM20.5625 14.4375C20.2099 14.4375 19.8717 14.5758 19.6224 14.8219C19.373 15.0681 19.233 15.4019 19.233 15.75H21.892C21.892 15.4019 21.752 15.0681 21.5026 14.8219C21.2533 14.5758 20.9151 14.4375 20.5625 14.4375ZM15.9875 17.0625L16.9714 25.8116C17.0257 26.2931 17.258 26.7379 17.6237 27.061C17.9894 27.384 18.463 27.5626 18.9538 27.5625H22.1713C22.6618 27.5622 23.135 27.3835 23.5005 27.0605C23.8659 26.7375 24.098 26.2929 24.1523 25.8116L25.1388 17.0625H15.9889H15.9875Z" fill="#626262"/>
</svg>
