<svg width="20" height="20" viewBox="0 0 20 20" fill="none" xmlns="http://www.w3.org/2000/svg">
<path d="M10 0.375C4.68477 0.375 0.375 4.68477 0.375 10C0.375 15.3152 4.68477 19.625 10 19.625C15.3152 19.625 19.625 15.3152 19.625 10C19.625 4.68477 15.3152 0.375 10 0.375ZM10 17.9922C5.58711 17.9922 2.00781 14.4129 2.00781 10C2.00781 5.58711 5.58711 2.00781 10 2.00781C14.4129 2.00781 17.9922 5.58711 17.9922 10C17.9922 14.4129 14.4129 17.9922 10 17.9922ZM11.0248 9.50156L10.4791 9.3748V6.48945C11.2955 6.60117 11.8004 7.1125 11.8863 7.73984C11.8971 7.82578 11.9701 7.88809 12.0561 7.88809H13.0207C13.1217 7.88809 13.2012 7.8 13.1926 7.69902C13.0615 6.36055 11.9594 5.50117 10.4877 5.35293V4.65039C10.4877 4.55586 10.4104 4.47852 10.3158 4.47852H9.71211C9.61758 4.47852 9.54023 4.55586 9.54023 4.65039V5.35938C8.01914 5.50762 6.82891 6.34766 6.82891 7.91602C6.82891 9.36836 7.89883 10.0688 9.02246 10.3373L9.55313 10.4727V13.5385C8.60352 13.4117 8.0707 12.9047 7.96113 12.2215C7.94824 12.1398 7.8752 12.0797 7.79141 12.0797H6.79883C6.69785 12.0797 6.61836 12.1656 6.62695 12.2666C6.72363 13.4482 7.61953 14.5354 9.53164 14.675V15.3496C9.53164 15.4441 9.60898 15.5215 9.70352 15.5215H10.3137C10.4082 15.5215 10.4855 15.4441 10.4855 15.3475L10.4813 14.6664C12.1635 14.5182 13.3666 13.618 13.3666 12.0023C13.3645 10.5113 12.417 9.84531 11.0248 9.50156V9.50156ZM9.55098 9.15352C9.43066 9.11914 9.32969 9.08691 9.22871 9.04609C8.50254 8.78398 8.16523 8.36074 8.16523 7.81504C8.16523 7.03516 8.75605 6.59043 9.55098 6.48945V9.15352ZM10.4791 13.5449V10.6725C10.5457 10.6918 10.6059 10.7068 10.6682 10.7197C11.6844 11.0291 12.026 11.4588 12.026 12.1184C12.026 12.9584 11.3943 13.4633 10.4791 13.5449Z" fill="#98CDFF"/>
</svg>
