<svg width="24" height="24" viewBox="0 0 24 24" fill="none" xmlns="http://www.w3.org/2000/svg">
<path d="M12.884 2.53347C12.538 1.87947 11.462 1.87947 11.116 2.53347L2.11596 19.5335C2.03494 19.6858 1.99478 19.8566 1.99938 20.0291C2.00398 20.2016 2.05319 20.37 2.14221 20.5178C2.23124 20.6657 2.35704 20.7879 2.50736 20.8727C2.65768 20.9574 2.82739 21.0018 2.99996 21.0015H21C21.1724 21.0018 21.342 20.9575 21.4922 20.8728C21.6424 20.7881 21.7681 20.6659 21.8571 20.5181C21.946 20.3704 21.9951 20.2021 21.9997 20.0297C22.0042 19.8573 21.964 19.6867 21.883 19.5345L12.884 2.53347ZM13 18.0015H11V16.0015H13V18.0015ZM11 14.0015V9.00147H13L13.001 14.0015H11Z" fill="#FFAEB3"/>
</svg>
