<svg width="21" height="27" viewBox="0 0 21 27" fill="none" xmlns="http://www.w3.org/2000/svg">
<path d="M20.2025 7.17324L14.108 1.07871C13.9381 0.908789 13.7087 0.8125 13.468 0.8125H1.4375C0.93623 0.8125 0.53125 1.21748 0.53125 1.71875V25.2812C0.53125 25.7825 0.93623 26.1875 1.4375 26.1875H19.5625C20.0638 26.1875 20.4688 25.7825 20.4688 25.2812V7.81611C20.4688 7.57539 20.3725 7.34316 20.2025 7.17324ZM18.3787 8.23242H13.0488V2.90254L18.3787 8.23242ZM18.4297 24.1484H2.57031V2.85156H11.123V8.96875C11.123 9.28421 11.2484 9.58675 11.4714 9.80982C11.6945 10.0329 11.997 10.1582 12.3125 10.1582H18.4297V24.1484ZM10.2734 16.502H5.0625C4.93789 16.502 4.83594 16.6039 4.83594 16.7285V18.0879C4.83594 18.2125 4.93789 18.3145 5.0625 18.3145H10.2734C10.398 18.3145 10.5 18.2125 10.5 18.0879V16.7285C10.5 16.6039 10.398 16.502 10.2734 16.502ZM4.83594 12.877V14.2363C4.83594 14.3609 4.93789 14.4629 5.0625 14.4629H15.9375C16.0621 14.4629 16.1641 14.3609 16.1641 14.2363V12.877C16.1641 12.7523 16.0621 12.6504 15.9375 12.6504H5.0625C4.93789 12.6504 4.83594 12.7523 4.83594 12.877Z" fill="#787878"/>
</svg>
