<svg width="22" height="22" viewBox="0 0 22 22" fill="none" xmlns="http://www.w3.org/2000/svg">
<path d="M19.25 6.1875V19.25C19.25 19.9793 18.9603 20.6788 18.4445 21.1945C17.9288 21.7103 17.2293 22 16.5 22H5.5C4.77065 22 4.07118 21.7103 3.55546 21.1945C3.03973 20.6788 2.75 19.9793 2.75 19.25V2.75C2.75 2.02065 3.03973 1.32118 3.55546 0.805456C4.07118 0.289731 4.77065 0 5.5 0L13.0625 0L19.25 6.1875ZM15.125 6.1875C14.578 6.1875 14.0534 5.9702 13.6666 5.58341C13.2798 5.19661 13.0625 4.67201 13.0625 4.125V1.375H5.5C5.13533 1.375 4.78559 1.51987 4.52773 1.77773C4.26987 2.03559 4.125 2.38533 4.125 2.75V19.25C4.125 19.6147 4.26987 19.9644 4.52773 20.2223C4.78559 20.4801 5.13533 20.625 5.5 20.625H16.5C16.8647 20.625 17.2144 20.4801 17.4723 20.2223C17.7301 19.9644 17.875 19.6147 17.875 19.25V6.1875H15.125Z" fill="#BFBFBF"/>
<path d="M5.5 8.9375C5.5 8.75516 5.57243 8.5803 5.70136 8.45136C5.8303 8.32243 6.00516 8.25 6.1875 8.25H15.8125C15.9948 8.25 16.1697 8.32243 16.2986 8.45136C16.4276 8.5803 16.5 8.75516 16.5 8.9375V18.5625C16.5 18.7448 16.4276 18.9197 16.2986 19.0486C16.1697 19.1776 15.9948 19.25 15.8125 19.25H6.1875C6.00516 19.25 5.8303 19.1776 5.70136 19.0486C5.57243 18.9197 5.5 18.7448 5.5 18.5625V8.9375ZM5.5 4.8125C5.5 4.63016 5.57243 4.4553 5.70136 4.32636C5.8303 4.19743 6.00516 4.125 6.1875 4.125H9.625C9.80734 4.125 9.9822 4.19743 10.1111 4.32636C10.2401 4.4553 10.3125 4.63016 10.3125 4.8125C10.3125 4.99484 10.2401 5.1697 10.1111 5.29864C9.9822 5.42757 9.80734 5.5 9.625 5.5H6.1875C6.00516 5.5 5.8303 5.42757 5.70136 5.29864C5.57243 5.1697 5.5 4.99484 5.5 4.8125Z" fill="#BFBFBF"/>
</svg>
