<svg width="17" height="17" viewBox="0 0 17 17" fill="none" xmlns="http://www.w3.org/2000/svg">
<path d="M14.8752 2.125H3.54183C3.35397 2.125 3.1738 2.19963 3.04096 2.33247C2.90812 2.4653 2.8335 2.64547 2.8335 2.83333V4.66792C2.8335 5.03838 2.98437 5.40246 3.24645 5.66454L7.0835 9.50158V14.875C7.08363 14.9957 7.11457 15.1143 7.17338 15.2197C7.23219 15.3251 7.31692 15.4137 7.41956 15.4772C7.52219 15.5407 7.63933 15.5769 7.75989 15.5825C7.88044 15.588 8.00041 15.5627 8.10845 15.509L10.9418 14.0923C11.1819 13.9719 11.3335 13.7268 11.3335 13.4583V9.50158L15.1705 5.66454C15.4326 5.40246 15.5835 5.03838 15.5835 4.66792V2.83333C15.5835 2.64547 15.5089 2.4653 15.376 2.33247C15.2432 2.19963 15.063 2.125 14.8752 2.125ZM10.1244 8.70754C10.0585 8.77321 10.0062 8.85126 9.97058 8.93721C9.93496 9.02315 9.91669 9.1153 9.91683 9.20833V13.0206L8.50016 13.7289V9.20833C8.5003 9.1153 8.48203 9.02315 8.44641 8.93721C8.41079 8.85126 8.35853 8.77321 8.29262 8.70754L4.25016 4.66792V3.54167H14.1675L14.169 4.66296L10.1244 8.70754Z" fill="#72777A"/>
</svg>
