<svg width="18" height="18" viewBox="0 0 18 18" fill="none" xmlns="http://www.w3.org/2000/svg">
<path d="M9.00006 4.5C8.21784 4.50099 7.46795 4.81217 6.91484 5.36528C6.36173 5.91839 6.05055 6.66828 6.04956 7.4505H7.54956C7.54956 6.65025 8.20056 6 9.00006 6C9.79956 6 10.4506 6.65025 10.4506 7.4505C10.4506 7.899 10.0898 8.2245 9.53856 8.67C9.35848 8.81107 9.18551 8.96101 9.02031 9.11925C8.27181 9.867 8.25006 10.6613 8.25006 10.7498V11.25H9.75006L9.74931 10.7752C9.75006 10.7632 9.77406 10.4858 10.0801 10.1805C10.1926 10.068 10.3343 9.9555 10.4813 9.837C11.0656 9.36375 11.9498 8.649 11.9498 7.4505C11.9492 6.66829 11.6383 5.91828 11.0852 5.3651C10.5322 4.81193 9.78227 4.50079 9.00006 4.5ZM8.25006 12H9.75006V13.5H8.25006V12Z" fill="#919EBC"/>
<path d="M9 1.5C4.8645 1.5 1.5 4.8645 1.5 9C1.5 13.1355 4.8645 16.5 9 16.5C13.1355 16.5 16.5 13.1355 16.5 9C16.5 4.8645 13.1355 1.5 9 1.5ZM9 15C5.69175 15 3 12.3082 3 9C3 5.69175 5.69175 3 9 3C12.3082 3 15 5.69175 15 9C15 12.3082 12.3082 15 9 15Z" fill="#919EBC"/>
</svg>
