<svg width="14" height="18" viewBox="0 0 14 18" fill="none" xmlns="http://www.w3.org/2000/svg">
<path d="M3.5625 6.25C3.5625 6.06766 3.63493 5.8928 3.76386 5.76386C3.8928 5.63493 4.06766 5.5625 4.25 5.5625H9.75C9.93234 5.5625 10.1072 5.63493 10.2361 5.76386C10.3651 5.8928 10.4375 6.06766 10.4375 6.25C10.4375 6.43234 10.3651 6.6072 10.2361 6.73614C10.1072 6.86507 9.93234 6.9375 9.75 6.9375H4.25C4.06766 6.9375 3.8928 6.86507 3.76386 6.73614C3.63493 6.6072 3.5625 6.43234 3.5625 6.25ZM4.25 9C4.06766 9 3.8928 9.07243 3.76386 9.20136C3.63493 9.33029 3.5625 9.50516 3.5625 9.6875C3.5625 9.86984 3.63493 10.0447 3.76386 10.1736C3.8928 10.3026 4.06766 10.375 4.25 10.375H9.75C9.93234 10.375 10.1072 10.3026 10.2361 10.1736C10.3651 10.0447 10.4375 9.86984 10.4375 9.6875C10.4375 9.50516 10.3651 9.33029 10.2361 9.20136C10.1072 9.07243 9.93234 9 9.75 9H4.25ZM3.5625 13.125C3.5625 12.9427 3.63493 12.7678 3.76386 12.6389C3.8928 12.5099 4.06766 12.4375 4.25 12.4375H6.3125C6.49484 12.4375 6.6697 12.5099 6.79864 12.6389C6.92757 12.7678 7 12.9427 7 13.125C7 13.3073 6.92757 13.4822 6.79864 13.6111C6.6697 13.7401 6.49484 13.8125 6.3125 13.8125H4.25C4.06766 13.8125 3.8928 13.7401 3.76386 13.6111C3.63493 13.4822 3.5625 13.3073 3.5625 13.125ZM4.25 0.75C4.25 0.567664 4.17757 0.392795 4.04864 0.263864C3.9197 0.134933 3.74484 0.0625 3.5625 0.0625C3.38016 0.0625 3.2053 0.134933 3.07636 0.263864C2.94743 0.392795 2.875 0.567664 2.875 0.75V1.4375H2.1875C1.64049 1.4375 1.11589 1.6548 0.729092 2.04159C0.342299 2.42839 0.125 2.95299 0.125 3.5V15.875C0.125 16.422 0.342299 16.9466 0.729092 17.3334C1.11589 17.7202 1.64049 17.9375 2.1875 17.9375H8.52763C9.04355 17.9376 9.54078 17.7443 9.92119 17.3958L13.2061 14.3845C13.4169 14.1913 13.5853 13.9563 13.7004 13.6945C13.8156 13.4327 13.875 13.1498 13.875 12.8638V3.5C13.875 2.95299 13.6577 2.42839 13.2709 2.04159C12.8841 1.6548 12.3595 1.4375 11.8125 1.4375H11.125V0.75C11.125 0.567664 11.0526 0.392795 10.9236 0.263864C10.7947 0.134933 10.6198 0.0625 10.4375 0.0625C10.2552 0.0625 10.0803 0.134933 9.95136 0.263864C9.82243 0.392795 9.75 0.567664 9.75 0.75V1.4375H7.6875V0.75C7.6875 0.567664 7.61507 0.392795 7.48614 0.263864C7.35721 0.134933 7.18234 0.0625 7 0.0625C6.81766 0.0625 6.6428 0.134933 6.51386 0.263864C6.38493 0.392795 6.3125 0.567664 6.3125 0.75V1.4375H4.25V0.75ZM2.1875 2.8125H11.8125C11.9948 2.8125 12.1697 2.88493 12.2986 3.01386C12.4276 3.1428 12.5 3.31766 12.5 3.5V12.4375H9.75C9.29416 12.4375 8.85699 12.6186 8.53466 12.9409C8.21233 13.2632 8.03125 13.7004 8.03125 14.1562V16.5625H2.1875C2.00516 16.5625 1.8303 16.4901 1.70136 16.3611C1.57243 16.2322 1.5 16.0573 1.5 15.875V3.5C1.5 3.31766 1.57243 3.1428 1.70136 3.01386C1.8303 2.88493 2.00516 2.8125 2.1875 2.8125ZM9.40625 16.0022V14.1562C9.40625 14.0651 9.44247 13.9776 9.50693 13.9132C9.5714 13.8487 9.65883 13.8125 9.75 13.8125H11.7953L9.40625 16.0022Z" fill="#98CDFF"/>
</svg>
