<svg width="24" height="24" viewBox="0 0 24 24" fill="none" xmlns="http://www.w3.org/2000/svg">
<path d="M1.1665 5.5013C1.1665 4.35203 1.62305 3.24983 2.43571 2.43717C3.24837 1.62452 4.35057 1.16797 5.49984 1.16797H18.4998C19.6491 1.16797 20.7513 1.62452 21.564 2.43717C22.3766 3.24983 22.8332 4.35203 22.8332 5.5013V18.5013C22.8332 19.6506 22.3766 20.7528 21.564 21.5654C20.7513 22.3781 19.6491 22.8346 18.4998 22.8346H5.49984C4.35057 22.8346 3.24837 22.3781 2.43571 21.5654C1.62305 20.7528 1.1665 19.6506 1.1665 18.5013V5.5013Z" stroke="#787878" stroke-width="2" stroke-linecap="round" stroke-linejoin="round"/>
<path d="M8.20833 10.9167C9.7041 10.9167 10.9167 9.7041 10.9167 8.20833C10.9167 6.71256 9.7041 5.5 8.20833 5.5C6.71256 5.5 5.5 6.71256 5.5 8.20833C5.5 9.7041 6.71256 10.9167 8.20833 10.9167Z" stroke="#787878" stroke-width="2" stroke-linecap="round" stroke-linejoin="round"/>
<path d="M14.7365 12.6739L5.5 22.8345H18.6441C19.7551 22.8345 20.8207 22.3931 21.6063 21.6075C22.392 20.8218 22.8333 19.7563 22.8333 18.6452V18.5011C22.8333 17.9963 22.6437 17.8024 22.3025 17.4286L17.9367 12.6674C17.7332 12.4454 17.4857 12.2683 17.2099 12.1474C16.9342 12.0264 16.6363 11.9642 16.3351 11.9648C16.034 11.9655 15.7364 12.0288 15.4611 12.1509C15.1859 12.273 14.9391 12.4511 14.7365 12.6739V12.6739Z" stroke="#787878" stroke-width="2" stroke-linecap="round" stroke-linejoin="round"/>
</svg>
