<svg width="18" height="18" viewBox="0 0 18 18" fill="none" xmlns="http://www.w3.org/2000/svg">
<path fill-rule="evenodd" clip-rule="evenodd" d="M17.381 8.99814V2.71243C17.381 2.15673 17.1602 1.6238 16.7673 1.23087C16.3744 0.837935 15.8414 0.617188 15.2857 0.617188H9.00002C8.44433 0.617188 7.9114 0.837935 7.51847 1.23087C7.12553 1.6238 6.90479 2.15673 6.90479 2.71243V8.99814C6.90479 9.55383 7.12553 10.0868 7.51847 10.4797C7.9114 10.8726 8.44433 11.0934 9.00002 11.0934H15.2857C15.8414 11.0934 16.3744 10.8726 16.7673 10.4797C17.1602 10.0868 17.381 9.55383 17.381 8.99814Z" stroke="#98CDFF" stroke-linecap="round" stroke-linejoin="round"/>
<path d="M4.80962 6.90625H2.71438C2.15869 6.90625 1.62575 7.127 1.23282 7.51993C0.839888 7.91286 0.619141 8.4458 0.619141 9.00149V15.2872C0.619141 15.8429 0.839888 16.3758 1.23282 16.7688C1.62575 17.1617 2.15869 17.3824 2.71438 17.3824H2.71752L9.00324 17.372C9.55838 17.3711 10.0905 17.15 10.4828 16.7572C10.875 16.3643 11.0953 15.8319 11.0953 15.2767V13.1888" stroke="#98CDFF" stroke-linecap="round" stroke-linejoin="round"/>
<path d="M5.85721 11.0977H2.71436" stroke="#98CDFF" stroke-linecap="round" stroke-linejoin="round"/>
<path d="M7.42863 12.6641L6.38101 13.7117C6.03111 14.0605 5.15949 14.5843 3.76196 15.2831" stroke="#98CDFF" stroke-linecap="round" stroke-linejoin="round"/>
<path d="M3.76196 11.0977C4.11187 12.3192 4.63568 13.1929 5.33339 13.7157C6.03111 14.2384 6.90482 14.7612 7.95244 15.285" stroke="#98CDFF" stroke-linecap="round" stroke-linejoin="round"/>
<path d="M12.1429 2.71094L9 8.99665" stroke="#98CDFF" stroke-linecap="round" stroke-linejoin="round"/>
<path d="M12.1428 2.71094L15.2857 8.99665" stroke="#98CDFF" stroke-linecap="round" stroke-linejoin="round"/>
<path d="M14.2381 6.90234H10.0476" stroke="#98CDFF" stroke-linecap="round" stroke-linejoin="round"/>
</svg>
