<svg width="16" height="16" viewBox="0 0 16 16" fill="none" xmlns="http://www.w3.org/2000/svg">
<path d="M14.2577 11.8672H13.022C12.9376 11.8672 12.8585 11.9041 12.8057 11.9692C12.6827 12.1186 12.5509 12.2627 12.412 12.3998C11.844 12.9684 11.1713 13.4215 10.4309 13.734C9.66393 14.058 8.83954 14.2242 8.00692 14.2227C7.16493 14.2227 6.34931 14.0575 5.5829 13.734C4.84256 13.4215 4.16981 12.9684 3.60185 12.3998C3.03287 11.8332 2.57919 11.1617 2.26592 10.4223C1.94072 9.6559 1.77724 8.84203 1.77724 8.00003C1.77724 7.15804 1.94248 6.34417 2.26592 5.57777C2.57881 4.83773 3.0288 4.17151 3.60185 3.60023C4.1749 3.02894 4.84111 2.57893 5.5829 2.26604C6.34931 1.94261 7.16493 1.77737 8.00692 1.77737C8.84891 1.77737 9.66454 1.94085 10.4309 2.26604C11.1727 2.57893 11.8389 3.02894 12.412 3.60023C12.5509 3.73909 12.6809 3.88323 12.8057 4.03089C12.8585 4.09593 12.9393 4.13284 13.022 4.13284H14.2577C14.3684 4.13284 14.437 4.0098 14.3755 3.91663C13.0272 1.82132 10.6682 0.434402 7.98759 0.441433C3.77587 0.45198 0.399122 3.87093 0.441309 8.07738C0.483496 12.217 3.85498 15.5586 8.00692 15.5586C10.6806 15.5586 13.029 14.1735 14.3755 12.0834C14.4352 11.9903 14.3684 11.8672 14.2577 11.8672ZM15.8204 7.88929L13.3261 5.92054C13.2329 5.84671 13.0975 5.91351 13.0975 6.03128V7.36722H7.57802C7.50067 7.36722 7.43739 7.4305 7.43739 7.50785V8.49222C7.43739 8.56957 7.50067 8.63285 7.57802 8.63285H13.0975V9.96879C13.0975 10.0866 13.2346 10.1534 13.3261 10.0795L15.8204 8.11078C15.8372 8.09762 15.8508 8.08081 15.8601 8.06163C15.8695 8.04244 15.8743 8.02138 15.8743 8.00003C15.8743 7.97869 15.8695 7.95763 15.8601 7.93844C15.8508 7.91925 15.8372 7.90245 15.8204 7.88929Z" fill="#919EBC"/>
</svg>
