<svg width="18" height="22" viewBox="0 0 18 22" fill="none" xmlns="http://www.w3.org/2000/svg">
<path d="M17.25 6.1875V19.25C17.25 19.9793 16.9603 20.6788 16.4445 21.1945C15.9288 21.7103 15.2293 22 14.5 22H3.5C2.77065 22 2.07118 21.7103 1.55546 21.1945C1.03973 20.6788 0.75 19.9793 0.75 19.25V2.75C0.75 2.02065 1.03973 1.32118 1.55546 0.805456C2.07118 0.289731 2.77065 0 3.5 0L11.0625 0L17.25 6.1875ZM13.125 6.1875C12.578 6.1875 12.0534 5.9702 11.6666 5.58341C11.2798 5.19661 11.0625 4.67201 11.0625 4.125V1.375H3.5C3.13533 1.375 2.78559 1.51987 2.52773 1.77773C2.26987 2.03559 2.125 2.38533 2.125 2.75V19.25C2.125 19.6147 2.26987 19.9644 2.52773 20.2223C2.78559 20.4801 3.13533 20.625 3.5 20.625H14.5C14.8647 20.625 15.2144 20.4801 15.4723 20.2223C15.7301 19.9644 15.875 19.6147 15.875 19.25V6.1875H13.125Z" fill="#BFBFBF"/>
<path d="M3.5 8.9375C3.5 8.75516 3.57243 8.5803 3.70136 8.45136C3.8303 8.32243 4.00516 8.25 4.1875 8.25H13.8125C13.9948 8.25 14.1697 8.32243 14.2986 8.45136C14.4276 8.5803 14.5 8.75516 14.5 8.9375V18.5625C14.5 18.7448 14.4276 18.9197 14.2986 19.0486C14.1697 19.1776 13.9948 19.25 13.8125 19.25H4.1875C4.00516 19.25 3.8303 19.1776 3.70136 19.0486C3.57243 18.9197 3.5 18.7448 3.5 18.5625V8.9375ZM3.5 4.8125C3.5 4.63016 3.57243 4.4553 3.70136 4.32636C3.8303 4.19743 4.00516 4.125 4.1875 4.125H7.625C7.80734 4.125 7.9822 4.19743 8.11114 4.32636C8.24007 4.4553 8.3125 4.63016 8.3125 4.8125C8.3125 4.99484 8.24007 5.1697 8.11114 5.29864C7.9822 5.42757 7.80734 5.5 7.625 5.5H4.1875C4.00516 5.5 3.8303 5.42757 3.70136 5.29864C3.57243 5.1697 3.5 4.99484 3.5 4.8125Z" fill="#BFBFBF"/>
</svg>
