<svg width="48" height="48" viewBox="0 0 48 48" fill="none" xmlns="http://www.w3.org/2000/svg">
<circle cx="24" cy="24" r="23" stroke="#98CDFF" stroke-width="2"/>
<path d="M30.5959 31.1814C29.2015 32.4622 27.4644 33.3094 25.5966 33.6194C23.7288 33.9295 21.8111 33.689 20.0777 32.9273C18.3443 32.1656 16.8702 30.9158 15.8353 29.3303C14.8004 27.7447 14.2496 25.8922 14.25 23.9989H15.875C15.8749 25.6354 16.369 27.2338 17.2926 28.5848C18.2161 29.9358 19.5262 30.9765 21.0511 31.5704C22.5761 32.1644 24.2448 32.284 25.8389 31.9136C27.433 31.5432 28.878 30.7001 29.9849 29.4946H27.6237C27.4083 29.4946 27.2016 29.409 27.0492 29.2566C26.8968 29.1043 26.8112 28.8976 26.8112 28.6821C26.8112 28.4666 26.8968 28.26 27.0492 28.1076C27.2016 27.9552 27.4083 27.8696 27.6237 27.8696H31.4084C31.6239 27.8696 31.8305 27.9552 31.9829 28.1076C32.1353 28.26 32.2209 28.4666 32.2209 28.6821V32.4635C32.2209 32.679 32.1353 32.8856 31.9829 33.038C31.8305 33.1904 31.6239 33.276 31.4084 33.276C31.1929 33.276 30.9862 33.1904 30.8338 33.038C30.6815 32.8856 30.5959 32.679 30.5959 32.4635V31.1797V31.1814ZM18.0151 18.5047H20.3762C20.5917 18.5047 20.7984 18.5903 20.9508 18.7427C21.1031 18.8951 21.1887 19.1017 21.1887 19.3172C21.1887 19.5327 21.1031 19.7394 20.9508 19.8918C20.7984 20.0441 20.5917 20.1297 20.3762 20.1297H16.59C16.3745 20.1297 16.1678 20.0441 16.0155 19.8918C15.8631 19.7394 15.7775 19.5327 15.7775 19.3172V15.5326C15.7775 15.3171 15.8631 15.1105 16.0155 14.9581C16.1678 14.8057 16.3745 14.7201 16.59 14.7201C16.8055 14.7201 17.0122 14.8057 17.1645 14.9581C17.3169 15.1105 17.4025 15.3171 17.4025 15.5326V16.8164C18.7967 15.5339 20.5342 14.6854 22.4029 14.3744C24.2715 14.0635 26.1902 14.3036 27.9245 15.0655C29.6589 15.8274 31.1337 17.0779 32.1689 18.6644C33.204 20.2509 33.7545 22.1046 33.7532 23.9989H32.1282C32.1284 22.3621 31.6342 20.7635 30.7104 19.4123C29.7866 18.0612 28.4763 17.0206 26.9511 16.4267C25.4258 15.8329 23.7568 15.7136 22.1626 16.0844C20.5684 16.4552 19.1234 17.2988 18.0167 18.5047H18.0151Z" fill="#98CDFF"/>
</svg>
