<svg width="14" height="16" viewBox="0 0 14 16" fill="none" xmlns="http://www.w3.org/2000/svg">
<path d="M3.92311 5.53846C3.92311 5.37525 3.98795 5.21873 4.10336 5.10332C4.21876 4.98791 4.37529 4.92308 4.5385 4.92308H9.46158C9.62479 4.92308 9.78131 4.98791 9.89672 5.10332C10.0121 5.21873 10.077 5.37525 10.077 5.53846C10.077 5.70167 10.0121 5.8582 9.89672 5.9736C9.78131 6.08901 9.62479 6.15385 9.46158 6.15385H4.5385C4.37529 6.15385 4.21876 6.08901 4.10336 5.9736C3.98795 5.8582 3.92311 5.70167 3.92311 5.53846ZM4.5385 8C4.37529 8 4.21876 8.06483 4.10336 8.18024C3.98795 8.29565 3.92311 8.45218 3.92311 8.61539C3.92311 8.77859 3.98795 8.93512 4.10336 9.05053C4.21876 9.16594 4.37529 9.23077 4.5385 9.23077H9.46158C9.62479 9.23077 9.78131 9.16594 9.89672 9.05053C10.0121 8.93512 10.077 8.77859 10.077 8.61539C10.077 8.45218 10.0121 8.29565 9.89672 8.18024C9.78131 8.06483 9.62479 8 9.46158 8H4.5385ZM3.92311 11.6923C3.92311 11.5291 3.98795 11.3726 4.10336 11.2572C4.21876 11.1418 4.37529 11.0769 4.5385 11.0769H6.38465C6.54786 11.0769 6.70439 11.1418 6.8198 11.2572C6.9352 11.3726 7.00004 11.5291 7.00004 11.6923C7.00004 11.8555 6.9352 12.012 6.8198 12.1275C6.70439 12.2429 6.54786 12.3077 6.38465 12.3077H4.5385C4.37529 12.3077 4.21876 12.2429 4.10336 12.1275C3.98795 12.012 3.92311 11.8555 3.92311 11.6923ZM4.5385 0.615385C4.5385 0.452174 4.47366 0.295649 4.35826 0.180242C4.24285 0.064835 4.08632 0 3.92311 0C3.7599 0 3.60338 0.064835 3.48797 0.180242C3.37257 0.295649 3.30773 0.452174 3.30773 0.615385V1.23077H2.69235C2.20271 1.23077 1.73314 1.42527 1.38692 1.7715C1.0407 2.11772 0.846191 2.58729 0.846191 3.07692V14.1538C0.846191 14.6435 1.0407 15.1131 1.38692 15.4593C1.73314 15.8055 2.20271 16 2.69235 16H8.36742C8.82923 16.0001 9.2743 15.827 9.61481 15.5151L12.5551 12.8197C12.7438 12.6467 12.8945 12.4364 12.9976 12.202C13.1007 11.9677 13.1539 11.7145 13.1539 11.4585V3.07692C13.1539 2.58729 12.9594 2.11772 12.6132 1.7715C12.2669 1.42527 11.7974 1.23077 11.3077 1.23077H10.6923V0.615385C10.6923 0.452174 10.6275 0.295649 10.5121 0.180242C10.3967 0.064835 10.2402 0 10.077 0C9.91375 0 9.75723 0.064835 9.64182 0.180242C9.52641 0.295649 9.46158 0.452174 9.46158 0.615385V1.23077H7.61542V0.615385C7.61542 0.452174 7.55059 0.295649 7.43518 0.180242C7.31977 0.064835 7.16325 0 7.00004 0C6.83683 0 6.6803 0.064835 6.5649 0.180242C6.44949 0.295649 6.38465 0.452174 6.38465 0.615385V1.23077H4.5385V0.615385ZM2.69235 2.46154H11.3077C11.4709 2.46154 11.6275 2.52637 11.7429 2.64178C11.8583 2.75719 11.9231 2.91371 11.9231 3.07692V11.0769H9.46158C9.05355 11.0769 8.66224 11.239 8.37372 11.5275C8.0852 11.816 7.92311 12.2074 7.92311 12.6154V14.7692H2.69235C2.52914 14.7692 2.37261 14.7044 2.2572 14.589C2.1418 14.4736 2.07696 14.3171 2.07696 14.1538V3.07692C2.07696 2.91371 2.1418 2.75719 2.2572 2.64178C2.37261 2.52637 2.52914 2.46154 2.69235 2.46154ZM9.15388 14.2677V12.6154C9.15388 12.5338 9.1863 12.4555 9.24401 12.3978C9.30171 12.3401 9.37997 12.3077 9.46158 12.3077H11.2923L9.15388 14.2677Z" fill="#919EBC"/>
</svg>
