<svg width="18" height="18" viewBox="0 0 18 18" fill="none" xmlns="http://www.w3.org/2000/svg">
<path d="M17.192 4.30137L13.6986 0.808008C13.5375 0.646875 13.3398 0.528711 13.125 0.464258V0.40625H1.09375C0.713477 0.40625 0.40625 0.713477 0.40625 1.09375V16.9062C0.40625 17.2865 0.713477 17.5938 1.09375 17.5938H16.9062C17.2865 17.5938 17.5938 17.2865 17.5938 16.9062V5.27246C17.5938 4.90723 17.4498 4.55918 17.192 4.30137ZM6.25 1.95312H11.75V4.1875H6.25V1.95312ZM16.0469 16.0469H1.95312V1.95312H4.875V4.875C4.875 5.25527 5.18223 5.5625 5.5625 5.5625H12.4375C12.8178 5.5625 13.125 5.25527 13.125 4.875V2.42148L16.0469 5.34336V16.0469ZM9 7.49609C7.29199 7.49609 5.90625 8.88184 5.90625 10.5898C5.90625 12.2979 7.29199 13.6836 9 13.6836C10.708 13.6836 12.0938 12.2979 12.0938 10.5898C12.0938 8.88184 10.708 7.49609 9 7.49609ZM9 12.3086C8.05039 12.3086 7.28125 11.5395 7.28125 10.5898C7.28125 9.64023 8.05039 8.87109 9 8.87109C9.94961 8.87109 10.7188 9.64023 10.7188 10.5898C10.7188 11.5395 9.94961 12.3086 9 12.3086Z" fill="white"/>
</svg>
