<svg width="16" height="16" viewBox="0 0 16 16" fill="none" xmlns="http://www.w3.org/2000/svg">
<g clip-path="url(#clip0_376_753)">
<path d="M8 10C9.10457 10 10 9.10457 10 8C10 6.89543 9.10457 6 8 6C6.89543 6 6 6.89543 6 8C6 9.10457 6.89543 10 8 10Z" stroke="#919EBC" stroke-width="1.5" stroke-linecap="round" stroke-linejoin="round"/>
<path d="M12.9334 10.0013C12.8447 10.2024 12.8182 10.4254 12.8574 10.6417C12.8966 10.858 12.9997 11.0575 13.1534 11.2146L13.1934 11.2546C13.3174 11.3785 13.4157 11.5255 13.4828 11.6874C13.5499 11.8492 13.5845 12.0227 13.5845 12.198C13.5845 12.3732 13.5499 12.5467 13.4828 12.7086C13.4157 12.8704 13.3174 13.0175 13.1934 13.1413C13.0696 13.2653 12.9225 13.3636 12.7607 13.4307C12.5988 13.4978 12.4253 13.5324 12.2501 13.5324C12.0749 13.5324 11.9014 13.4978 11.7395 13.4307C11.5776 13.3636 11.4306 13.2653 11.3068 13.1413L11.2668 13.1013C11.1096 12.9476 10.9101 12.8445 10.6938 12.8053C10.4775 12.7661 10.2545 12.7926 10.0534 12.8813C9.85624 12.9658 9.68807 13.1061 9.56962 13.285C9.45117 13.4639 9.38761 13.6734 9.38675 13.888V14.0013C9.38675 14.3549 9.24627 14.6941 8.99623 14.9441C8.74618 15.1942 8.40704 15.3346 8.05342 15.3346C7.69979 15.3346 7.36066 15.1942 7.11061 14.9441C6.86056 14.6941 6.72008 14.3549 6.72008 14.0013V13.9413C6.71492 13.7206 6.6435 13.5066 6.51509 13.3271C6.38668 13.1476 6.20724 13.0108 6.00008 12.9346C5.79901 12.8459 5.57595 12.8194 5.35969 12.8586C5.14343 12.8978 4.94387 13.0009 4.78675 13.1546L4.74675 13.1946C4.62292 13.3186 4.47587 13.4169 4.314 13.484C4.15214 13.5511 3.97864 13.5857 3.80342 13.5857C3.62819 13.5857 3.45469 13.5511 3.29283 13.484C3.13096 13.4169 2.98391 13.3186 2.86008 13.1946C2.73611 13.0708 2.63777 12.9238 2.57067 12.7619C2.50357 12.6 2.46903 12.4265 2.46903 12.2513C2.46903 12.0761 2.50357 11.9026 2.57067 11.7407C2.63777 11.5789 2.73611 11.4318 2.86008 11.308L2.90008 11.268C3.05377 11.1108 3.15687 10.9113 3.19609 10.695C3.2353 10.4788 3.20883 10.2557 3.12008 10.0546C3.03557 9.85746 2.89525 9.68929 2.71639 9.57084C2.53753 9.45239 2.32794 9.38882 2.11342 9.38797H2.00008C1.64646 9.38797 1.30732 9.24749 1.05727 8.99744C0.807224 8.7474 0.666748 8.40826 0.666748 8.05463C0.666748 7.70101 0.807224 7.36187 1.05727 7.11183C1.30732 6.86178 1.64646 6.7213 2.00008 6.7213H2.06008C2.28074 6.71614 2.49475 6.64471 2.67428 6.51631C2.85381 6.3879 2.99056 6.20846 3.06675 6.0013C3.15549 5.80022 3.18196 5.57717 3.14275 5.36091C3.10354 5.14465 3.00044 4.94509 2.84675 4.78797L2.80675 4.74797C2.68278 4.62414 2.58443 4.47709 2.51734 4.31522C2.45024 4.15336 2.4157 3.97986 2.4157 3.80464C2.4157 3.62941 2.45024 3.45591 2.51734 3.29405C2.58443 3.13218 2.68278 2.98513 2.80675 2.8613C2.93058 2.73733 3.07763 2.63899 3.2395 2.57189C3.40136 2.50479 3.57486 2.47025 3.75008 2.47025C3.9253 2.47025 4.09881 2.50479 4.26067 2.57189C4.42253 2.63899 4.56959 2.73733 4.69342 2.8613L4.73342 2.9013C4.89054 3.05499 5.09009 3.15809 5.30636 3.1973C5.52262 3.23652 5.74567 3.21005 5.94675 3.1213H6.00008C6.19726 3.03679 6.36543 2.89647 6.48388 2.71761C6.60233 2.53875 6.66589 2.32916 6.66675 2.11464V2.0013C6.66675 1.64768 6.80723 1.30854 7.05727 1.05849C7.30732 0.808445 7.64646 0.667969 8.00008 0.667969C8.35371 0.667969 8.69284 0.808445 8.94289 1.05849C9.19294 1.30854 9.33342 1.64768 9.33342 2.0013V2.0613C9.33427 2.27583 9.39784 2.48542 9.51629 2.66428C9.63474 2.84314 9.8029 2.98346 10.0001 3.06797C10.2012 3.15671 10.4242 3.18318 10.6405 3.14397C10.8567 3.10476 11.0563 3.00166 11.2134 2.84797L11.2534 2.80797C11.3772 2.684 11.5243 2.58565 11.6862 2.51856C11.848 2.45146 12.0215 2.41692 12.1968 2.41692C12.372 2.41692 12.5455 2.45146 12.7073 2.51856C12.8692 2.58565 13.0163 2.684 13.1401 2.80797C13.2641 2.9318 13.3624 3.07885 13.4295 3.24071C13.4966 3.40258 13.5311 3.57608 13.5311 3.7513C13.5311 3.92652 13.4966 4.10002 13.4295 4.26189C13.3624 4.42375 13.2641 4.5708 13.1401 4.69464L13.1001 4.73464C12.9464 4.89175 12.8433 5.09131 12.8041 5.30758C12.7649 5.52384 12.7913 5.74689 12.8801 5.94797V6.0013C12.9646 6.19848 13.1049 6.36665 13.2838 6.4851C13.4626 6.60355 13.6722 6.66711 13.8868 6.66797H14.0001C14.3537 6.66797 14.6928 6.80844 14.9429 7.05849C15.1929 7.30854 15.3334 7.64768 15.3334 8.0013C15.3334 8.35492 15.1929 8.69406 14.9429 8.94411C14.6928 9.19416 14.3537 9.33463 14.0001 9.33463H13.9401C13.7256 9.33549 13.516 9.39906 13.3371 9.51751C13.1582 9.63596 13.0179 9.80412 12.9334 10.0013V10.0013Z" stroke="#919EBC" stroke-width="1.5" stroke-linecap="round" stroke-linejoin="round"/>
</g>
<defs>
<clipPath id="clip0_376_753">
<rect width="16" height="16" fill="white"/>
</clipPath>
</defs>
</svg>
