<svg width="24" height="24" viewBox="0 0 24 24" fill="none" xmlns="http://www.w3.org/2000/svg">
<path d="M11.9997 0.332031C5.56667 0.332031 0.333008 5.5657 0.333008 11.9987V16.8322C0.333008 18.0269 1.37951 18.9987 2.66634 18.9987H3.83301C4.14243 18.9987 4.43917 18.8758 4.65797 18.657C4.87676 18.4382 4.99967 18.1415 4.99967 17.832V11.8319C4.99967 11.5224 4.87676 11.2257 4.65797 11.0069C4.43917 10.7881 4.14243 10.6652 3.83301 10.6652H2.77367C3.42234 6.1502 7.30734 2.66536 11.9997 2.66536C16.692 2.66536 20.577 6.1502 21.2257 10.6652H20.1663C19.8569 10.6652 19.5602 10.7881 19.3414 11.0069C19.1226 11.2257 18.9997 11.5224 18.9997 11.8319V18.9987C18.9997 20.2855 17.9532 21.332 16.6663 21.332H14.333V20.1654H9.66634V23.6654H16.6663C19.24 23.6654 21.333 21.5724 21.333 18.9987C22.6198 18.9987 23.6663 18.0269 23.6663 16.8322V11.9987C23.6663 5.5657 18.4327 0.332031 11.9997 0.332031Z" fill="#64B3F0"/>
</svg>
