<svg width="20" height="20" viewBox="0 0 20 20" fill="none" xmlns="http://www.w3.org/2000/svg">
<path d="M10.0001 1.66797C5.40508 1.66797 1.66675 5.4063 1.66675 10.0013V13.4538C1.66675 14.3071 2.41425 15.0013 3.33341 15.0013H4.16675C4.38776 15.0013 4.59972 14.9135 4.756 14.7572C4.91228 14.6009 5.00008 14.389 5.00008 14.168V9.88214C5.00008 9.66112 4.91228 9.44916 4.756 9.29288C4.59972 9.1366 4.38776 9.0488 4.16675 9.0488H3.41008C3.87341 5.8238 6.64842 3.33464 10.0001 3.33464C13.3517 3.33464 16.1267 5.8238 16.5901 9.0488H15.8334C15.6124 9.0488 15.4004 9.1366 15.2442 9.29288C15.0879 9.44916 15.0001 9.66112 15.0001 9.88214V15.0013C15.0001 15.9205 14.2526 16.668 13.3334 16.668H11.6667V15.8346H8.33342V18.3346H13.3334C15.1717 18.3346 16.6667 16.8396 16.6667 15.0013C17.5859 15.0013 18.3334 14.3071 18.3334 13.4538V10.0013C18.3334 5.4063 14.5951 1.66797 10.0001 1.66797Z" fill="#919EBC"/>
</svg>
