<svg width="22" height="22" viewBox="0 0 22 22" fill="none" xmlns="http://www.w3.org/2000/svg">
<path fill-rule="evenodd" clip-rule="evenodd" d="M19.381 10.9981V4.71243C19.381 4.15673 19.1602 3.6238 18.7673 3.23087C18.3744 2.83794 17.8414 2.61719 17.2857 2.61719H11C10.4443 2.61719 9.9114 2.83794 9.51847 3.23087C9.12553 3.6238 8.90479 4.15673 8.90479 4.71243V10.9981C8.90479 11.5538 9.12553 12.0868 9.51847 12.4797C9.9114 12.8726 10.4443 13.0934 11 13.0934H17.2857C17.8414 13.0934 18.3744 12.8726 18.7673 12.4797C19.1602 12.0868 19.381 11.5538 19.381 10.9981Z" stroke="white" stroke-linecap="round" stroke-linejoin="round"/>
<path d="M6.80962 8.90625H4.71438C4.15869 8.90625 3.62575 9.127 3.23282 9.51993C2.83989 9.91286 2.61914 10.4458 2.61914 11.0015V17.2872C2.61914 17.8429 2.83989 18.3758 3.23282 18.7688C3.62575 19.1617 4.15869 19.3824 4.71438 19.3824H4.71752L11.0032 19.372C11.5584 19.3711 12.0905 19.15 12.4828 18.7572C12.875 18.3643 13.0953 17.8319 13.0953 17.2767V15.1888" stroke="white" stroke-linecap="round" stroke-linejoin="round"/>
<path d="M7.85721 13.0977H4.71436" stroke="white" stroke-linecap="round" stroke-linejoin="round"/>
<path d="M9.42863 14.6641L8.38101 15.7117C8.03111 16.0605 7.15949 16.5843 5.76196 17.2831" stroke="white" stroke-linecap="round" stroke-linejoin="round"/>
<path d="M5.76196 13.0977C6.11187 14.3192 6.63568 15.1929 7.33339 15.7157C8.03111 16.2384 8.90482 16.7612 9.95244 17.285" stroke="white" stroke-linecap="round" stroke-linejoin="round"/>
<path d="M14.1429 4.71094L11 10.9967" stroke="white" stroke-linecap="round" stroke-linejoin="round"/>
<path d="M14.1428 4.71094L17.2857 10.9967" stroke="white" stroke-linecap="round" stroke-linejoin="round"/>
<path d="M16.2381 8.90234H12.0476" stroke="white" stroke-linecap="round" stroke-linejoin="round"/>
</svg>
