<svg width="12" height="10" viewBox="0 0 12 10" fill="none" xmlns="http://www.w3.org/2000/svg">
<path d="M6.47951 0.583447C6.42599 0.505724 6.35438 0.442174 6.27085 0.398271C6.18732 0.354368 6.09437 0.331429 6.00001 0.331429C5.90564 0.331429 5.81269 0.354368 5.72916 0.398271C5.64563 0.442174 5.57402 0.505724 5.52051 0.583447L0.270506 8.16678C0.209738 8.25425 0.174102 8.3567 0.16747 8.46299C0.160838 8.56929 0.183464 8.67538 0.23289 8.76972C0.282315 8.86406 0.35665 8.94305 0.447819 8.99811C0.538987 9.05317 0.643501 9.0822 0.750007 9.08203L11.25 9.08203C11.3563 9.08159 11.4604 9.05219 11.5512 8.997C11.642 8.94181 11.716 8.86291 11.7653 8.76878C11.8147 8.67466 11.8374 8.56888 11.8311 8.4628C11.8247 8.35673 11.7896 8.25439 11.7295 8.16678L6.47951 0.583447Z" fill="black"/>
</svg>
