<svg width="22" height="22" viewBox="0 0 22 22" fill="none" xmlns="http://www.w3.org/2000/svg">
<path d="M10.0834 13.7385C10.0834 13.9816 10.1799 14.2147 10.3519 14.3866C10.5238 14.5586 10.7569 14.6551 11 14.6551C11.2432 14.6551 11.4763 14.5586 11.6482 14.3866C11.8201 14.2147 11.9167 13.9816 11.9167 13.7385V7.17697L14.8895 10.1497L16.1856 8.85355L11 3.66797L5.81445 8.85355L7.11062 10.1497L10.0834 7.1788V13.7394V13.7385Z" fill="white"/>
<path d="M3.66699 12.8359H5.50033V16.5026H16.5003V12.8359H18.3337V16.5026C18.3337 16.9888 18.1405 17.4551 17.7967 17.799C17.4529 18.1428 16.9866 18.3359 16.5003 18.3359H5.50033C5.0141 18.3359 4.54778 18.1428 4.20396 17.799C3.86015 17.4551 3.66699 16.9888 3.66699 16.5026V12.8359Z" fill="white"/>
</svg>
