<svg width="22" height="22" viewBox="0 0 22 22" fill="none" xmlns="http://www.w3.org/2000/svg">
<path d="M17.5884 6.78116L13.4499 2.7166C13.3346 2.60328 13.1788 2.53906 13.0153 2.53906H4.8461C4.50571 2.53906 4.23071 2.80915 4.23071 3.14346V18.8577C4.23071 19.192 4.50571 19.4621 4.8461 19.4621H17.1538C17.4942 19.4621 17.7692 19.192 17.7692 18.8577V7.20991C17.7692 7.04936 17.7038 6.89449 17.5884 6.78116ZM16.3499 7.48755H12.7307V3.93295L16.3499 7.48755ZM16.3846 18.1022H5.61533V3.89895H11.423V7.97862C11.423 8.18901 11.5081 8.39078 11.6596 8.53955C11.8111 8.68832 12.0165 8.77189 12.2307 8.77189H16.3846V18.1022ZM10.8461 13.0027H7.30764C7.22302 13.0027 7.15379 13.0707 7.15379 13.1538V14.0604C7.15379 14.1435 7.22302 14.2115 7.30764 14.2115H10.8461C10.9307 14.2115 10.9999 14.1435 10.9999 14.0604V13.1538C10.9999 13.0707 10.9307 13.0027 10.8461 13.0027ZM7.15379 10.5851V11.4917C7.15379 11.5748 7.22302 11.6428 7.30764 11.6428H14.6923C14.7769 11.6428 14.8461 11.5748 14.8461 11.4917V10.5851C14.8461 10.502 14.7769 10.434 14.6923 10.434H7.30764C7.22302 10.434 7.15379 10.502 7.15379 10.5851Z" fill="#98CDFF"/>
</svg>
