<svg width="22" height="22" viewBox="0 0 22 22" fill="none" xmlns="http://www.w3.org/2000/svg">
<path d="M15.125 17.875C15.8844 17.875 16.5 17.2594 16.5 16.5C16.5 15.7406 15.8844 15.125 15.125 15.125C14.3656 15.125 13.75 15.7406 13.75 16.5C13.75 17.2594 14.3656 17.875 15.125 17.875Z" fill="#98CDFF"/>
<path d="M20.4717 16.1418C20.0469 15.0596 19.3139 14.1259 18.3635 13.4563C17.413 12.7867 16.287 12.4107 15.125 12.375C13.963 12.4107 12.837 12.7867 11.8865 13.4563C10.9361 14.1259 10.2031 15.0596 9.77831 16.1418L9.625 16.5L9.77831 16.8582C10.2031 17.9404 10.9361 18.8741 11.8865 19.5437C12.837 20.2133 13.963 20.5893 15.125 20.625C16.287 20.5893 17.413 20.2133 18.3635 19.5437C19.3139 18.8741 20.0469 17.9404 20.4717 16.8582L20.625 16.5L20.4717 16.1418ZM15.125 19.25C14.5811 19.25 14.0494 19.0887 13.5972 18.7865C13.1449 18.4844 12.7925 18.0549 12.5843 17.5524C12.3762 17.0499 12.3217 16.4969 12.4278 15.9635C12.5339 15.4301 12.7959 14.9401 13.1805 14.5555C13.5651 14.1709 14.0551 13.9089 14.5885 13.8028C15.1219 13.6967 15.6749 13.7512 16.1774 13.9593C16.6799 14.1675 17.1094 14.5199 17.4115 14.9722C17.7137 15.4244 17.875 15.9561 17.875 16.5C17.8741 17.2291 17.5841 17.928 17.0685 18.4435C16.553 18.9591 15.8541 19.2491 15.125 19.25Z" fill="#98CDFF"/>
<path d="M4.8125 11.6875H8.25V13.0625H4.8125V11.6875Z" fill="#98CDFF"/>
<path d="M4.8125 8.25H13.0625V9.625H4.8125V8.25Z" fill="#98CDFF"/>
<path d="M4.8125 4.8125H13.0625V6.1875H4.8125V4.8125Z" fill="#98CDFF"/>
<path d="M15.125 1.375H2.75C2.38566 1.37609 2.03656 1.5213 1.77893 1.77893C1.5213 2.03656 1.37609 2.38566 1.375 2.75V19.25C1.37609 19.6143 1.5213 19.9634 1.77893 20.2211C2.03656 20.4787 2.38566 20.6239 2.75 20.625H8.25V19.25H2.75V2.75H15.125V10.3125H16.5V2.75C16.4989 2.38566 16.3537 2.03656 16.0961 1.77893C15.8384 1.5213 15.4893 1.37609 15.125 1.375Z" fill="#98CDFF"/>
</svg>
