<svg width="14" height="18" viewBox="0 0 14 18" fill="none" xmlns="http://www.w3.org/2000/svg">
<path d="M2.40254 17.3744C2.33852 17.3117 2.24964 17.321 2.17257 17.2974C1.40619 17.0655 0.864813 16.3582 0.854246 15.552C0.845544 14.8783 0.85176 14.2039 0.85176 13.5295C0.85176 9.69824 0.851139 5.86698 0.852382 2.03571C0.852382 1.11208 1.40619 0.388587 2.2745 0.1698C2.433 0.13002 2.5946 0.115724 2.75807 0.115724C4.7862 0.116346 6.81434 0.117589 8.84185 0.115724C9.37266 0.115103 9.82578 0.297218 10.2105 0.662693C11.2535 1.65283 12.2971 2.64235 13.345 3.62627C13.7882 4.04271 14.0001 4.54431 13.9995 5.15281C13.9952 8.58504 13.9977 12.0179 13.997 15.4501C13.997 16.3812 13.4364 17.109 12.5637 17.3272C12.5028 17.3427 12.4282 17.3104 12.3797 17.3738C9.0538 17.3744 5.72786 17.3744 2.40254 17.3744ZM1.86303 8.73918C1.86303 10.9749 1.86303 13.2107 1.86303 15.4464C1.86303 16.012 2.2111 16.3626 2.77299 16.3626C5.87393 16.3632 8.97487 16.3632 12.0752 16.3626C12.6371 16.3626 12.9851 16.012 12.9851 15.4464C12.9858 12.0757 12.9845 8.70562 12.9882 5.33492C12.9882 5.20875 12.9646 5.1671 12.8279 5.16835C11.8844 5.17518 10.9402 5.1727 9.9967 5.17208C9.23903 5.17145 8.7393 4.67483 8.73868 3.92026C8.73805 3.04946 8.73495 2.17867 8.74178 1.30849C8.74303 1.16864 8.72003 1.12327 8.56464 1.12389C6.64341 1.13072 4.72218 1.12824 2.80096 1.12824C2.20054 1.12824 1.86241 1.46636 1.86241 2.06616C1.86303 4.29009 1.86303 6.51464 1.86303 8.73918ZM12.4363 4.16143C11.5282 3.30244 10.6506 2.47266 9.75057 1.62113C9.75057 2.43102 9.74932 3.20423 9.75181 3.97745C9.75243 4.11046 9.83448 4.16267 9.96065 4.16205C10.2018 4.16018 10.443 4.16143 10.6848 4.16143C11.2554 4.16143 11.8253 4.16143 12.4363 4.16143Z" fill="#FFFAFA"/>
<path d="M7.32268 7.86881C8.54653 7.86881 9.77099 7.86757 10.9948 7.86944C11.3877 7.87006 11.6431 8.22434 11.4958 8.5662C11.4051 8.77753 11.2341 8.88008 11.0035 8.88008C10.4479 8.88008 9.89157 8.88008 9.3359 8.88008C7.44389 8.88008 5.55125 8.88071 3.65924 8.87946C3.26206 8.87946 3.00909 8.53636 3.14583 8.19016C3.22726 7.98442 3.41124 7.86944 3.66732 7.86944C4.88557 7.86819 6.10444 7.86881 7.32268 7.86881Z" fill="#FFFAFA"/>
<path d="M7.30467 11.5763C6.08642 11.5763 4.86755 11.5776 3.64931 11.5757C3.24902 11.5751 2.99481 11.2059 3.15703 10.8622C3.25586 10.6533 3.43052 10.5638 3.66049 10.5645C4.45795 10.5663 5.2554 10.5651 6.05224 10.5651C7.69749 10.5651 9.34275 10.5645 10.988 10.5657C11.3846 10.5657 11.6369 10.9094 11.4995 11.2562C11.4181 11.462 11.2348 11.5757 10.9768 11.5757C9.75236 11.577 8.52851 11.5763 7.30467 11.5763Z" fill="#FFFAFA"/>
<path d="M4.3904 3.07809C4.3904 2.93203 4.38667 2.78596 4.39102 2.63989C4.39972 2.35522 4.62224 2.13768 4.89759 2.13892C5.17293 2.14016 5.39421 2.35771 5.3998 2.64425C5.4054 2.94197 5.40477 3.2397 5.39918 3.53742C5.39732 3.63252 5.42404 3.65987 5.51976 3.658C5.8063 3.65179 6.09284 3.65427 6.37875 3.65614C6.69139 3.65862 6.9164 3.87057 6.91764 4.15898C6.91888 4.448 6.69388 4.66181 6.3831 4.66679C6.31038 4.66803 6.23704 4.66492 6.16432 4.66741C5.91383 4.67611 5.6621 4.6469 5.41223 4.68357C5.4085 4.9297 5.40478 5.17522 5.40229 5.42135C5.40167 5.49408 5.40291 5.56742 5.40229 5.64014C5.39856 5.95403 5.19096 6.17965 4.90256 6.18338C4.60794 6.18711 4.39288 5.95838 4.39102 5.63579C4.38915 5.34925 4.38729 5.06272 4.39288 4.7768C4.39475 4.68792 4.36864 4.66368 4.281 4.66554C3.99447 4.67114 3.70793 4.66865 3.42201 4.66741C3.10005 4.66554 2.87132 4.45049 2.87504 4.15525C2.87877 3.86809 3.10502 3.65862 3.41828 3.65676C3.68804 3.65489 3.95779 3.65054 4.22693 3.65925C4.35 3.66297 4.40904 3.64184 4.39475 3.50013C4.37921 3.36028 4.3904 3.21856 4.3904 3.07809Z" fill="white"/>
<path d="M4.84701 13.2623C5.23983 13.2623 5.63265 13.261 6.02486 13.2629C6.34433 13.2641 6.57866 13.4842 6.57431 13.7738C6.56996 14.0591 6.34123 14.2729 6.03045 14.2735C5.23921 14.2754 4.44859 14.2748 3.65735 14.2735C3.33539 14.2729 3.10728 14.0572 3.11038 13.7626C3.11349 13.4755 3.34036 13.2648 3.65176 13.2635C4.05017 13.2604 4.44859 13.2623 4.84701 13.2623Z" fill="white"/>
</svg>
