<svg width="17" height="17" viewBox="0 0 17 17" fill="none" xmlns="http://www.w3.org/2000/svg">
<path d="M8.69231 6.38462C10.1792 6.38462 11.3846 5.17923 11.3846 3.69231C11.3846 2.20539 10.1792 1 8.69231 1C7.20539 1 6 2.20539 6 3.69231C6 5.17923 7.20539 6.38462 8.69231 6.38462Z" stroke="white" stroke-linecap="round" stroke-linejoin="round"/>
<path d="M1 15.2308C1 11.8319 4.09962 9.0769 7.92308 9.0769" stroke="white" stroke-linecap="round" stroke-linejoin="round"/>
<path d="M12.5387 16C14.4504 16 16.0002 14.4502 16.0002 12.5384C16.0002 10.6267 14.4504 9.0769 12.5387 9.0769C10.6269 9.0769 9.07715 10.6267 9.07715 12.5384C9.07715 14.4502 10.6269 16 12.5387 16Z" stroke="white"/>
<path d="M12.1533 11.3846V12.9231H13.6918" stroke="white" stroke-linecap="round" stroke-linejoin="round"/>
</svg>
