<svg width="20" height="20" viewBox="0 0 20 20" fill="none" xmlns="http://www.w3.org/2000/svg">
<path d="M9.79199 11.0417L10.417 8.95833L11.042 11.0417L10.417 11.875L9.79199 11.0417Z" fill="white"/>
<path fill-rule="evenodd" clip-rule="evenodd" d="M16.4617 7.85542C16.7619 7.765 17.025 7.58029 17.212 7.32866C17.399 7.07703 17.5 6.77185 17.5 6.45833V3.95833C17.5 3.57156 17.3464 3.20063 17.0729 2.92714C16.7994 2.65365 16.4284 2.5 16.0417 2.5C15.6549 2.5 15.284 2.65365 15.0105 2.92714C14.737 3.20063 14.5833 3.57156 14.5833 3.95833V6.45833C14.5833 6.77295 14.685 7.07914 14.8733 7.33122C15.0615 7.5833 15.3262 7.76776 15.6279 7.85708C15.6317 8.32583 15.6375 8.77375 15.6433 9.20125V9.20167C15.6637 10.7229 15.6808 11.9908 15.5696 13.045C15.4125 14.5367 15.0112 15.4475 14.1183 15.9733C12.9183 16.6804 11.1029 16.9254 9.57458 16.7329C8.81333 16.6371 8.1625 16.4371 7.71542 16.1638C7.53458 16.0533 7.39667 15.9379 7.29625 15.8188C8.05625 15.7758 8.79833 15.6383 9.40167 15.3929C10.1425 15.0917 10.8138 14.56 10.8329 13.7204C11.5266 13.6195 12.1607 13.2722 12.6193 12.7421C13.078 12.212 13.3304 11.5345 13.3304 10.8335C13.3305 10.1325 13.0782 9.45499 12.6196 8.92481C12.1611 8.39463 11.527 8.04726 10.8333 7.94625V5.4675H10.8321C10.8333 5.45083 10.8333 5.43375 10.8333 5.41667C10.8333 4.26625 8.96792 3.33333 6.66667 3.33333C4.36542 3.33333 2.5 4.26625 2.5 5.41667C2.5 5.43333 2.50042 5.45083 2.50125 5.4675H2.5V13.6833C2.5 14.5104 3.19375 15.0388 3.92917 15.3438C4.6125 15.6271 5.47708 15.7854 6.34583 15.8238C6.5075 16.2671 6.85833 16.6167 7.28083 16.875C7.86375 17.2313 8.64083 17.4554 9.47042 17.56C11.1229 17.7679 13.1387 17.5183 14.5412 16.6912C15.7771 15.9633 16.2317 14.7171 16.3983 13.1321C16.515 12.0263 16.4967 10.6813 16.4762 9.13083C16.47 8.70571 16.4651 8.28057 16.4617 7.85542ZM16.0417 3.33333C16.2074 3.33333 16.3664 3.39918 16.4836 3.51639C16.6008 3.6336 16.6667 3.79257 16.6667 3.95833V6.45833C16.6667 6.62409 16.6008 6.78306 16.4836 6.90027C16.3664 7.01749 16.2074 7.08333 16.0417 7.08333C15.8759 7.08333 15.7169 7.01749 15.5997 6.90027C15.4825 6.78306 15.4167 6.62409 15.4167 6.45833V3.95833C15.4167 3.79257 15.4825 3.6336 15.5997 3.51639C15.7169 3.39918 15.8759 3.33333 16.0417 3.33333ZM10 5.41667C10 5.50625 9.90583 5.81167 9.24042 6.14458C8.62458 6.45208 7.71583 6.66667 6.66667 6.66667C5.6175 6.66667 4.70833 6.45208 4.09292 6.14458C3.4275 5.81167 3.33333 5.50625 3.33333 5.41667C3.33333 5.32708 3.4275 5.02167 4.09292 4.68875C4.70875 4.38125 5.6175 4.16667 6.66667 4.16667C7.71583 4.16667 8.625 4.38125 9.24042 4.68875C9.90583 5.02167 10 5.32708 10 5.41667ZM10 6.66667C9.23958 7.17292 8.02958 7.5 6.66667 7.5C6.53917 7.5 6.4125 7.49708 6.2875 7.49167V14.9867C6.415 14.9937 6.54292 14.9979 6.67125 14.9992C7.57458 15.01 8.4525 14.8796 9.08792 14.6213C9.71833 14.3642 9.98042 14.0446 9.99875 13.7204C9.30432 13.6203 8.66927 13.2732 8.20999 12.7428C7.75071 12.2124 7.49798 11.5342 7.49813 10.8326C7.49828 10.131 7.7513 9.45292 8.21081 8.92272C8.67032 8.39252 9.30553 8.0457 10 7.94583V6.66667ZM12.5 10.8333C12.5 11.3859 12.2805 11.9158 11.8898 12.3065C11.4991 12.6972 10.9692 12.9167 10.4167 12.9167C9.86413 12.9167 9.33423 12.6972 8.94353 12.3065C8.55283 11.9158 8.33333 11.3859 8.33333 10.8333C8.33333 10.2808 8.55283 9.7509 8.94353 9.36019C9.33423 8.96949 9.86413 8.75 10.4167 8.75C10.9692 8.75 11.4991 8.96949 11.8898 9.36019C12.2805 9.7509 12.5 10.2808 12.5 10.8333Z" fill="white"/>
</svg>
