<svg width="65" height="233" viewBox="0 0 65 233" fill="none" xmlns="http://www.w3.org/2000/svg">
<path d="M56.8428 99.1172L44.664 125.258C42.6518 129.574 41.5403 134.242 41.388 138.997L39.0351 213.705L38.9836 215.307L38.5063 230.394C38.4705 231.499 37.5674 232.371 36.4717 232.371H28.2614C27.1656 232.371 26.2626 231.497 26.2267 230.394L25.7495 215.307L25.6979 213.705L23.3384 138.997C23.186 134.242 22.0768 129.574 20.069 125.265L7.89478 99.1172C-4.60887 60.934 0.49118 27.405 4.60304 10.888C6.19849 4.49504 11.9417 0 18.5363 0H46.2012C52.7959 0 58.539 4.49504 60.1345 10.888C64.2464 27.405 69.3397 60.934 56.8428 99.1172Z" fill="#B7E4F9"/>
<path opacity="0.5" d="M28.8549 230.397L28.3798 215.309L25.971 138.994C25.8208 134.244 24.7094 129.572 22.7016 125.263L10.5251 99.1172C-1.97626 60.934 3.11707 27.405 7.23341 10.8903C8.82886 4.4928 14.572 0.00448608 21.1645 0.00448608H18.536C11.9436 0.00448608 6.19816 4.4928 4.60496 10.8903C0.488613 27.405 -4.60696 60.934 7.89445 99.1172L20.0732 125.263C22.0809 129.572 23.1924 134.244 23.3425 138.994L25.7514 215.309L26.2264 230.397C26.2623 231.495 27.1631 232.371 28.2655 232.371H30.894C29.7915 232.371 28.893 231.495 28.8549 230.397Z" fill="#B7E4F9"/>
<path d="M60.1341 10.8925C58.5409 4.49504 52.7955 0.00448608 46.2031 0.00448608H40.4913C47.0859 0.00448608 52.8291 4.4928 54.4223 10.8925C58.5364 27.4072 63.6297 60.934 51.1328 99.1172L38.9518 125.261C36.9441 129.572 35.8304 134.244 35.6803 138.997L33.2759 215.307L32.8008 230.394C32.765 231.492 31.8597 232.368 30.7617 232.368H36.4735C37.5715 232.368 38.4768 231.492 38.5126 230.394L38.9877 215.307L41.3921 138.997C41.5422 134.244 42.6536 129.572 44.6636 125.261L56.8446 99.1172C69.3415 60.934 64.2482 27.405 60.1341 10.8925Z" fill="#0A70A0"/>
<path opacity="0.5" d="M39.0355 213.705L38.9839 215.307L38.5066 230.394C38.4708 231.499 37.5677 232.371 36.472 232.371H28.2617C27.166 232.371 26.2629 231.497 26.2271 230.394L25.7498 215.307L25.6982 213.705H39.0355Z" fill="#91B4C6"/>
<path d="M38.9861 215.309L38.5111 230.397C38.4752 231.495 37.5699 232.371 36.4719 232.371H28.2661C27.1637 232.371 26.2629 231.495 26.227 230.397L25.752 215.309H38.9861Z" fill="#979797"/>
<path opacity="0.5" d="M38.9864 215.309L38.5113 230.397C38.4755 231.495 37.5702 232.371 36.4722 232.371H34.498V215.309H38.9864Z" fill="#CBCBCA"/>
<path d="M51.6127 80.5006H13.1839C10.9872 80.5006 9.20605 79.0414 9.20605 77.2418V31.773C9.20605 29.9733 10.9872 28.5141 13.1839 28.5141H51.6127C53.8094 28.5141 55.5906 29.9733 55.5906 31.773V77.2418C55.5906 79.0414 53.8094 80.5006 51.6127 80.5006Z" fill="#0A70A0"/>
<path d="M46.889 74.4751H17.8483C16.3671 74.4751 15.166 73.2741 15.166 71.7929V38.2818C15.166 36.8006 16.3671 35.5995 17.8483 35.5995H46.8867C48.3679 35.5995 49.569 36.8006 49.569 38.2818V71.7952C49.569 73.2763 48.3679 74.4751 46.889 74.4751Z" fill="#87B69B"/>
<path d="M20.3828 47.6842C20.775 47.3727 21.2747 47.2181 21.8842 47.2181C22.3032 47.2181 22.664 47.292 22.9687 47.4422C23.2735 47.5923 23.5043 47.794 23.6589 48.0517C23.8135 48.3093 23.8919 48.5984 23.8919 48.9211C23.8919 49.2908 23.7933 49.609 23.5961 49.8712C23.399 50.1334 23.1637 50.3104 22.8881 50.4V50.4359C23.2399 50.5434 23.5155 50.7384 23.7127 51.023C23.9099 51.3075 24.0085 51.6705 24.0085 52.112C24.0085 52.4638 23.9278 52.7775 23.7664 53.0531C23.6051 53.3287 23.3653 53.5439 23.0494 53.7029C22.7334 53.862 22.3525 53.9405 21.9111 53.9405C21.2657 53.9405 20.7346 53.7747 20.3201 53.443C19.9056 53.1114 19.6815 52.6341 19.6523 52.0134H20.6383C20.6629 52.3293 20.7839 52.5893 21.0058 52.7887C21.2276 52.9881 21.5257 53.089 21.9021 53.089C22.2674 53.089 22.5475 52.9881 22.7446 52.7887C22.9418 52.5893 23.0404 52.3293 23.0404 52.0134C23.0404 51.5944 22.9082 51.2986 22.6416 51.1215C22.3749 50.9445 21.9671 50.8571 21.4181 50.8571H21.185V50.0146H21.4271C21.9111 50.0079 22.2808 49.9272 22.534 49.7726C22.7872 49.618 22.9149 49.3715 22.9149 49.0376C22.9149 48.7508 22.8231 48.5222 22.6371 48.3519C22.4511 48.1816 22.1889 48.0965 21.8483 48.0965C21.5144 48.0965 21.2545 48.1816 21.0685 48.3519C20.8825 48.5222 20.7727 48.7329 20.7369 48.9838H19.742C19.7778 48.4281 19.9929 47.9956 20.3828 47.6842Z" fill="black"/>
<path d="M28.2395 48.2668C28.067 48.1301 27.825 48.0606 27.5135 48.0606C27.0407 48.0606 26.6889 48.2421 26.4558 48.6029C26.2228 48.9637 26.0996 49.5642 26.0884 50.4C26.243 50.1378 26.4715 49.9339 26.7696 49.7905C27.0676 49.6471 27.3903 49.5754 27.7376 49.5754C28.132 49.5754 28.4793 49.6605 28.7818 49.8308C29.0843 50.0011 29.3196 50.2476 29.4899 50.5703C29.6602 50.893 29.7453 51.2784 29.7453 51.7266C29.7453 52.1456 29.6624 52.5176 29.4988 52.847C29.3353 53.1764 29.091 53.434 28.7683 53.6223C28.4457 53.8105 28.058 53.9046 27.6031 53.9046C26.9869 53.9046 26.5051 53.7679 26.1556 53.4968C25.806 53.2256 25.5618 52.8402 25.4206 52.345C25.2794 51.8498 25.21 51.2313 25.21 50.4896C25.21 48.3026 25.9808 47.2091 27.5225 47.2091C28.1208 47.2091 28.5913 47.3704 28.9342 47.6931C29.277 48.0158 29.4787 48.4124 29.5392 48.8852H28.598C28.5308 48.6096 28.4121 48.4035 28.2395 48.2668ZM26.5858 50.763C26.3326 50.9804 26.2049 51.2963 26.2049 51.7086C26.2049 52.1209 26.3236 52.4481 26.5589 52.6901C26.7942 52.9321 27.1258 53.0531 27.5494 53.0531C27.9258 53.0531 28.2238 52.9366 28.4412 52.7035C28.6585 52.4705 28.7683 52.159 28.7683 51.7714C28.7683 51.3658 28.663 51.0409 28.4502 50.7989C28.2373 50.5569 27.9258 50.4359 27.5135 50.4359C27.1483 50.4359 26.839 50.5457 26.5858 50.763Z" fill="black"/>
<path d="M30.9167 53.7792C30.7913 53.6537 30.7285 53.4991 30.7285 53.3131C30.7285 53.1271 30.7913 52.9725 30.9167 52.847C31.0422 52.7215 31.1968 52.6588 31.3828 52.6588C31.5621 52.6588 31.7145 52.7215 31.8399 52.847C31.9654 52.9725 32.0282 53.1271 32.0282 53.3131C32.0282 53.4991 31.9654 53.6537 31.8399 53.7792C31.7145 53.9046 31.5621 53.9674 31.3828 53.9674C31.1991 53.9674 31.0422 53.9046 30.9167 53.7792Z" fill="black"/>
<path d="M33.1662 49.0197C33.1662 48.697 33.2469 48.4012 33.4082 48.1323C33.5696 47.8634 33.8116 47.6505 34.1342 47.4914C34.4569 47.3323 34.8513 47.2539 35.3174 47.2539C35.7767 47.2539 36.1711 47.3323 36.496 47.4914C36.821 47.6505 37.0652 47.8634 37.2265 48.1323C37.3879 48.4012 37.4686 48.697 37.4686 49.0197C37.4686 49.3535 37.3834 49.6493 37.2131 49.9025C37.0428 50.1557 36.8165 50.3529 36.5364 50.4896C36.877 50.6151 37.1459 50.819 37.3431 51.1036C37.5403 51.3882 37.6389 51.7198 37.6389 52.103C37.6389 52.4906 37.5403 52.8357 37.3431 53.1338C37.1459 53.4318 36.8703 53.6626 36.5185 53.8239C36.1666 53.9853 35.7655 54.0659 35.3174 54.0659C34.8692 54.0659 34.4704 53.9853 34.1208 53.8239C33.7712 53.6626 33.4979 53.4318 33.3007 53.1338C33.1035 52.8357 33.0049 52.4906 33.0049 52.103C33.0049 51.7153 33.1035 51.3792 33.3007 51.0991C33.4979 50.819 33.7645 50.6151 34.0984 50.4896C33.4777 50.1781 33.1662 49.6897 33.1662 49.0197ZM34.3538 51.2291C34.1051 51.424 33.9819 51.7019 33.9819 52.0671C33.9819 52.4077 34.1006 52.6834 34.3404 52.8962C34.5802 53.1091 34.9051 53.2144 35.3174 53.2144C35.723 53.2144 36.0456 53.1069 36.2809 52.8918C36.5162 52.6766 36.635 52.401 36.635 52.0671C36.635 51.7086 36.514 51.4308 36.272 51.2336C36.03 51.0364 35.7118 50.9378 35.3174 50.9378C34.923 50.9378 34.6026 51.0341 34.3538 51.2291ZM36.1778 48.3743C35.9695 48.195 35.6826 48.1054 35.3174 48.1054C34.9589 48.1054 34.6743 48.195 34.4659 48.3743C34.2575 48.5536 34.1522 48.8135 34.1522 49.1541C34.1522 49.4521 34.262 49.6964 34.4793 49.8846C34.6967 50.0728 34.9768 50.1669 35.3174 50.1669C35.658 50.1669 35.9381 50.0706 36.1599 49.8801C36.3818 49.6897 36.4916 49.4432 36.4916 49.1451C36.4916 48.8113 36.3862 48.5536 36.1778 48.3743Z" fill="black"/>
<path d="M39.4585 49.739C39.2703 49.6336 39.1224 49.4835 39.0149 49.2908C38.9073 49.0981 38.8535 48.874 38.8535 48.6208C38.8535 48.3698 38.9095 48.148 39.0193 47.953C39.1291 47.7581 39.2815 47.6102 39.472 47.5049C39.6624 47.3996 39.8776 47.348 40.1128 47.348C40.3481 47.348 40.5632 47.3996 40.7537 47.5049C40.9442 47.6102 41.0966 47.7581 41.2064 47.953C41.3162 48.148 41.3722 48.3698 41.3722 48.6208C41.3722 48.8718 41.3162 49.0936 41.2019 49.2886C41.0876 49.4835 40.933 49.6336 40.738 49.739C40.5431 49.8443 40.3257 49.898 40.0904 49.898C39.8574 49.898 39.6468 49.8443 39.4585 49.739ZM40.4602 49.3603C40.5744 49.2975 40.6686 49.2034 40.7403 49.0779C40.812 48.9524 40.8478 48.8001 40.8478 48.6208C40.8478 48.4415 40.8142 48.2892 40.7447 48.1659C40.6753 48.0427 40.5857 47.9486 40.4714 47.8858C40.3571 47.8231 40.2361 47.7917 40.1039 47.7917C39.9717 47.7917 39.8507 47.8231 39.7386 47.8858C39.6266 47.9486 39.537 48.0427 39.472 48.1659C39.407 48.2892 39.3734 48.4415 39.3734 48.6208C39.3734 48.8874 39.4406 49.0914 39.5773 49.237C39.714 49.3827 39.8843 49.4544 40.0904 49.4544C40.2226 49.4544 40.3459 49.423 40.4602 49.3603Z" fill="black"/>
<path d="M41.684 48.8606C41.9148 48.4662 42.2307 48.157 42.6274 47.9351C43.024 47.7133 43.4587 47.6035 43.9337 47.6035C44.4738 47.6035 44.9555 47.7357 45.3791 48.0023C45.8003 48.269 46.1073 48.6455 46.2978 49.1317H45.2961C45.1639 48.8628 44.9824 48.6634 44.7472 48.5312C44.5141 48.399 44.243 48.334 43.936 48.334C43.5999 48.334 43.2996 48.4102 43.0374 48.5603C42.773 48.7104 42.5691 48.9278 42.419 49.2101C42.2711 49.4925 42.1949 49.8219 42.1949 50.1983C42.1949 50.5748 42.2688 50.9019 42.419 51.1865C42.5669 51.4689 42.773 51.6885 43.0374 51.8408C43.3018 51.9954 43.5999 52.0716 43.936 52.0716C44.243 52.0716 44.5141 52.0067 44.7472 51.8744C44.9802 51.7422 45.1639 51.5428 45.2961 51.2739H46.2978C46.1073 51.7624 45.8026 52.1366 45.3791 52.401C44.9578 52.6654 44.476 52.7954 43.9337 52.7954C43.4565 52.7954 43.0195 52.6856 42.6251 52.4615C42.2307 52.2397 41.917 51.9305 41.6862 51.5361C41.4554 51.1417 41.3389 50.6958 41.3389 50.1983C41.3367 49.7009 41.4509 49.255 41.684 48.8606Z" fill="black"/>
<path d="M22.6973 42.9919H22.0049V44.7554H22.6973V42.9919Z" fill="black"/>
<path d="M21.8506 42.9919H21.1582V44.7554H21.8506V42.9919Z" fill="black"/>
<path d="M21.003 42.9919H20.3105V44.7554H21.003V42.9919Z" fill="black"/>
<path d="M20.1563 42.9919H19.4639V44.7554H20.1563V42.9919Z" fill="black"/>
<path d="M19.3096 42.9919H18.6172V44.7554H19.3096V42.9919Z" fill="black"/>
<path d="M23.2245 43.5118H22.8525V44.2356H23.2245V43.5118Z" fill="black"/>
<path d="M43.0804 43.4244V44.4552H42.9459V43.9869H42.4216V44.4552H42.2871V43.4244H42.4216V43.877H42.9459V43.4244H43.0804Z" fill="black"/>
<path d="M43.4453 43.5342V43.8793H43.8217V43.9891H43.4453V44.3431H43.8643V44.4552H43.3086V43.4222H43.8643V43.532H43.4453V43.5342Z" fill="black"/>
<path d="M44.6784 44.2244H44.228L44.1451 44.4529H44.0039L44.3759 43.4289H44.5305L44.9025 44.4529H44.7613L44.6784 44.2244ZM44.6403 44.1168L44.4543 43.597L44.2683 44.1168H44.6403Z" fill="black"/>
<path d="M45.6772 43.4872C45.7601 43.5297 45.8228 43.588 45.8676 43.6664C45.9125 43.7449 45.9326 43.8367 45.9326 43.942C45.9326 44.0474 45.9102 44.1392 45.8676 44.2154C45.8228 44.2939 45.7601 44.3521 45.6772 44.3924C45.5943 44.4328 45.4979 44.4529 45.3859 44.4529H45.0654V43.4222H45.3859C45.4979 43.4244 45.5965 43.4446 45.6772 43.4872ZM45.6906 44.2378C45.7601 44.1684 45.7959 44.0675 45.7959 43.942C45.7959 43.8143 45.7601 43.7135 45.6906 43.6418C45.6211 43.5701 45.5181 43.5342 45.3859 43.5342H45.1999V44.3454H45.3859C45.5181 44.3431 45.6211 44.3095 45.6906 44.2378Z" fill="black"/>
<path d="M46.121 56.5623H18.7676V56.7101H46.121V56.5623Z" fill="#221F1F"/>
<path d="M35.7746 215.309H33.2246V232.371H35.7746V215.309Z" fill="#676767"/>
</svg>
