<svg width="20" height="20" viewBox="0 0 20 20" fill="none" xmlns="http://www.w3.org/2000/svg">
<path d="M5.625 2.5V9.66813C4.53125 10.4612 3.75 11.6725 3.75 13.125C3.75 15.5344 5.71563 17.5 8.125 17.5C10.5344 17.5 12.5 15.5344 12.5 13.125C12.5 11.6725 11.7188 10.4612 10.625 9.66813V8.75H11.875V7.5H10.625V6.25H11.875V5H10.625V3.75H11.875V2.5H5.625ZM15.3125 2.5C14.1062 2.5 13.125 3.48125 13.125 4.6875C13.125 5.89375 14.1062 6.875 15.3125 6.875C16.5188 6.875 17.5 5.89375 17.5 4.6875C17.5 3.48125 16.5188 2.5 15.3125 2.5ZM6.875 3.75H9.375V10.2537L9.6875 10.43C10.6225 10.9719 11.25 11.9675 11.25 13.125C11.25 14.8581 9.85813 16.25 8.125 16.25C6.39188 16.25 5 14.8581 5 13.125C5 11.9675 5.6275 10.9719 6.5625 10.4294L6.875 10.2544V3.75ZM15.3125 3.75C15.8294 3.75 16.25 4.17062 16.25 4.6875C16.25 5.20438 15.8294 5.625 15.3125 5.625C14.7956 5.625 14.375 5.20438 14.375 4.6875C14.375 4.17062 14.7956 3.75 15.3125 3.75ZM7.5 10V11.3675C6.775 11.6263 6.25 12.3131 6.25 13.1263C6.26262 13.6151 6.46571 14.0798 6.81596 14.4211C7.16622 14.7624 7.63594 14.9535 8.125 14.9535C8.61406 14.9535 9.08378 14.7624 9.43404 14.4211C9.78429 14.0798 9.98738 13.6151 10 13.1263C10 12.3131 9.475 11.6263 8.75 11.3675V10H7.5Z" fill="white"/>
</svg>
