<svg width="28" height="14" viewBox="0 0 28 14" fill="none" xmlns="http://www.w3.org/2000/svg">
<path d="M27.86 9.28993L27.924 8.97534C28.0742 8.09207 28.0026 7.18493 27.7158 6.33671C27.429 5.48849 26.9361 4.72621 26.282 4.11943C23.62 1.65921 19.516 0.461365 13.996 0.461365C8.48599 0.461365 4.38599 1.65518 1.72599 4.10733C1.02741 4.75315 0.512475 5.5753 0.234366 6.48885C-0.0437418 7.40241 -0.0749427 8.37426 0.143986 9.30404L0.417986 10.4676C0.630032 11.3865 1.16651 12.1961 1.92725 12.7453C2.68798 13.2945 3.62097 13.5458 4.55199 13.4521L6.99599 13.2001C7.79826 13.1146 8.55381 12.7778 9.15647 12.2371C9.75914 11.6964 10.1786 10.9788 10.356 10.1853L10.928 7.66457L10.948 7.6081L11.076 7.53954C11.164 7.49518 11.3 7.43468 11.496 7.37418C12.056 7.20076 12.896 7.10598 13.996 7.10598C15.486 7.10598 16.484 7.28142 16.934 7.56172C17.014 7.61012 17.07 7.69078 17.092 7.78355L17.636 10.1833C17.8136 10.9774 18.2337 11.6954 18.8371 12.2362C19.4406 12.777 20.197 13.1134 21 13.1981L23.456 13.4521C24.3892 13.5452 25.324 13.2921 26.0854 12.7401C26.8468 12.1881 27.3824 11.3751 27.592 10.4535L27.86 9.28993ZM13.996 2.59893C19.04 2.59893 22.656 3.6536 24.868 5.70043C25.654 6.42639 26.024 7.50324 25.862 8.55993L25.816 8.80393L25.548 9.96548C25.4531 10.3848 25.2099 10.7548 24.8637 11.0061C24.5176 11.2575 24.0925 11.3729 23.668 11.3307L21.212 11.0766C20.847 11.0379 20.5033 10.8848 20.2292 10.6388C19.9551 10.3928 19.7644 10.0663 19.684 9.70534L19.138 7.30562C19.0651 6.9836 18.9295 6.67941 18.7389 6.41075C18.5483 6.1421 18.3067 5.91435 18.028 5.74076C17.168 5.20637 15.842 4.97446 13.996 4.97446C11.188 4.97446 9.48799 5.50079 8.96199 6.92247L8.90199 7.11606L8.30999 9.70736C8.22957 10.0684 8.03888 10.3948 7.76477 10.6408C7.49066 10.8868 7.14693 11.04 6.78199 11.0786L4.33999 11.3307C3.91662 11.3732 3.49236 11.259 3.14642 11.0092C2.80048 10.7595 2.55649 10.3914 2.45999 9.97355L2.18599 8.80998C2.05476 8.25211 2.07362 7.66902 2.24063 7.12095C2.40764 6.57288 2.71673 6.0797 3.13599 5.69236C5.34999 3.64755 8.95999 2.59692 13.996 2.59692V2.59893Z" fill="white"/>
</svg>
