<svg width="20" height="20" viewBox="0 0 20 20" fill="none" xmlns="http://www.w3.org/2000/svg">
<path d="M13.2481 12.8008C13.7208 12.5469 14.2618 12.4023 14.8379 12.4023H14.8399C14.8985 12.4023 14.9258 12.332 14.8829 12.293C14.2837 11.7552 13.5992 11.3209 12.8575 11.0078C12.8497 11.0039 12.8418 11.002 12.834 10.998C14.0469 10.1172 14.836 8.68555 14.836 7.07031C14.836 4.39453 12.6719 2.22656 10.002 2.22656C7.33208 2.22656 5.16997 4.39453 5.16997 7.07031C5.16997 8.68555 5.95903 10.1172 7.17388 10.998C7.16606 11.002 7.15825 11.0039 7.15044 11.0078C6.27739 11.377 5.49419 11.9062 4.82036 12.582C4.15042 13.2508 3.61707 14.0435 3.25005 14.916C2.88894 15.7704 2.69406 16.6859 2.67583 17.6133C2.67531 17.6341 2.67897 17.6549 2.68658 17.6743C2.6942 17.6937 2.70563 17.7114 2.72019 17.7263C2.73475 17.7412 2.75215 17.7531 2.77137 17.7612C2.79059 17.7693 2.81123 17.7734 2.83208 17.7734H4.002C4.08599 17.7734 4.1563 17.7051 4.15825 17.6211C4.19731 16.1133 4.80083 14.7012 5.86919 13.6309C6.9727 12.5234 8.44145 11.9141 10.004 11.9141C11.1114 11.9141 12.1739 12.2207 13.0899 12.7949C13.1134 12.8097 13.1404 12.818 13.1682 12.8191C13.196 12.8201 13.2235 12.8138 13.2481 12.8008ZM10.004 10.4297C9.10942 10.4297 8.26763 10.0801 7.63286 9.44531C7.32055 9.13381 7.07295 8.76359 6.90434 8.35597C6.73574 7.94836 6.64944 7.51142 6.65044 7.07031C6.65044 6.17383 7.00005 5.33008 7.63286 4.69531C8.26567 4.06055 9.10747 3.71094 10.004 3.71094C10.9004 3.71094 11.7403 4.06055 12.375 4.69531C12.6874 5.00682 12.935 5.37704 13.1036 5.78465C13.2722 6.19226 13.3585 6.62921 13.3575 7.07031C13.3575 7.9668 13.0079 8.81055 12.375 9.44531C11.7403 10.0801 10.8985 10.4297 10.004 10.4297ZM17.1875 15.0781H12.5C12.4141 15.0781 12.3438 15.1484 12.3438 15.2344V16.3281C12.3438 16.4141 12.4141 16.4844 12.5 16.4844H17.1875C17.2735 16.4844 17.3438 16.4141 17.3438 16.3281V15.2344C17.3438 15.1484 17.2735 15.0781 17.1875 15.0781Z" fill="white"/>
</svg>
