<svg width="22" height="22" viewBox="0 0 22 22" fill="none" xmlns="http://www.w3.org/2000/svg">
<path d="M8.9375 9.625V15.125C8.9375 15.3073 9.00993 15.4822 9.13886 15.6111C9.2678 15.7401 9.44266 15.8125 9.625 15.8125C9.80734 15.8125 9.9822 15.7401 10.1111 15.6111C10.2401 15.4822 10.3125 15.3073 10.3125 15.125V9.625C10.3125 9.44266 10.2401 9.2678 10.1111 9.13886C9.9822 9.00993 9.80734 8.9375 9.625 8.9375C9.44266 8.9375 9.2678 9.00993 9.13886 9.13886C9.00993 9.2678 8.9375 9.44266 8.9375 9.625Z" fill="white"/>
<path d="M12.375 8.9375C12.5573 8.9375 12.7322 9.00993 12.8611 9.13886C12.9901 9.2678 13.0625 9.44266 13.0625 9.625V15.125C13.0625 15.3073 12.9901 15.4822 12.8611 15.6111C12.7322 15.7401 12.5573 15.8125 12.375 15.8125C12.1927 15.8125 12.0178 15.7401 11.8889 15.6111C11.7599 15.4822 11.6875 15.3073 11.6875 15.125V9.625C11.6875 9.44266 11.7599 9.2678 11.8889 9.13886C12.0178 9.00993 12.1927 8.9375 12.375 8.9375Z" fill="white"/>
<path d="M13.75 5.5H17.875C18.0573 5.5 18.2322 5.57243 18.3611 5.70136C18.4901 5.8303 18.5625 6.00516 18.5625 6.1875C18.5625 6.36984 18.4901 6.5447 18.3611 6.67364C18.2322 6.80257 18.0573 6.875 17.875 6.875H17.1146L16.0806 16.192C15.9872 17.0329 15.587 17.8098 14.9566 18.374C14.3261 18.9382 13.5098 19.2501 12.6637 19.25H9.33625C8.49021 19.2501 7.67385 18.9382 7.04342 18.374C6.41299 17.8098 6.01278 17.0329 5.91937 16.192L4.884 6.875H4.125C3.94266 6.875 3.7678 6.80257 3.63886 6.67364C3.50993 6.5447 3.4375 6.36984 3.4375 6.1875C3.4375 6.00516 3.50993 5.8303 3.63886 5.70136C3.7678 5.57243 3.94266 5.5 4.125 5.5H8.25C8.25 4.77065 8.53973 4.07118 9.05546 3.55546C9.57118 3.03973 10.2707 2.75 11 2.75C11.7293 2.75 12.4288 3.03973 12.9445 3.55546C13.4603 4.07118 13.75 4.77065 13.75 5.5ZM11 4.125C10.6353 4.125 10.2856 4.26987 10.0277 4.52773C9.76987 4.78559 9.625 5.13533 9.625 5.5H12.375C12.375 5.13533 12.2301 4.78559 11.9723 4.52773C11.7144 4.26987 11.3647 4.125 11 4.125ZM6.26863 6.875L7.28612 16.0408C7.34229 16.5452 7.58248 17.0112 7.96072 17.3496C8.33897 17.688 8.82871 17.8751 9.33625 17.875H12.6637C13.1711 17.8747 13.6605 17.6875 14.0384 17.3491C14.4164 17.0107 14.6564 16.5449 14.7125 16.0408L15.7328 6.875H6.27H6.26863Z" fill="white"/>
</svg>
