<svg width="28" height="28" viewBox="0 0 28 28" fill="none" xmlns="http://www.w3.org/2000/svg">
<path d="M16.4946 9.18199V14.0608C16.4946 15.1764 15.7196 16.1496 14.6375 16.4044V18.3794C14.6375 20.5861 11.2867 20.5811 11.2867 18.3794V16.4044C10.2048 16.1495 9.42969 15.177 9.42969 14.0608V5.842C9.42969 2.93764 12.2981 1.8228 14.3797 2.6148V3.84292C12.9539 2.924 10.53 3.6251 10.53 5.842V14.0608C10.53 14.7788 11.1195 15.368 11.8372 15.368C12.1406 15.368 12.387 15.6142 12.387 15.9178V18.3794C12.387 19.1396 13.5377 19.1342 13.5377 18.3794V15.9178C13.5377 15.6144 13.7843 15.368 14.0877 15.368C14.8055 15.368 15.3949 14.7785 15.3949 14.0608V9.18199H16.4946ZM13.1235 6.40324V5.11324H15.2022V3.03448H16.4926V5.11324H18.571V6.40324H16.4926V8.482H15.2022V6.40324H13.1235ZM13.3891 6.87104V13.7718C13.3891 14.3359 12.5357 14.3356 12.5357 13.7718V6.87104H13.3891Z" fill="white"/>
</svg>
