<svg width="866" height="581" viewBox="0 0 866 581" fill="none" xmlns="http://www.w3.org/2000/svg">
<g filter="url(#filter0_d_350_699)">
<rect x="20" y="20" width="826" height="541" rx="10" fill="white"/>
</g>
<path d="M68 291H843" stroke="black" stroke-opacity="0.2" stroke-linecap="round"/>
<path d="M68 345H843" stroke="black" stroke-opacity="0.15" stroke-linecap="round"/>
<path d="M68 399H843" stroke="black" stroke-opacity="0.15" stroke-linecap="round"/>
<path d="M68 453H843" stroke="black" stroke-opacity="0.15" stroke-linecap="round"/>
<path d="M68 507H843" stroke="black" stroke-opacity="0.15" stroke-linecap="round"/>
<path d="M68 237H843" stroke="black" stroke-opacity="0.15" stroke-linecap="round"/>
<path d="M68 183H843" stroke="black" stroke-opacity="0.15" stroke-linecap="round"/>
<path d="M68 129H843" stroke="black" stroke-opacity="0.15" stroke-linecap="round"/>
<path d="M68 75H843" stroke="black" stroke-opacity="0.15" stroke-linecap="round"/>
<path d="M86 51L86 543" stroke="black" stroke-opacity="0.15" stroke-linecap="round"/>
<path d="M42.868 290.834C42.868 289.229 43.1293 287.978 43.652 287.082C44.1747 286.177 45.0893 285.724 46.396 285.724C47.6933 285.724 48.6033 286.177 49.126 287.082C49.6487 287.978 49.91 289.229 49.91 290.834C49.91 292.467 49.6487 293.737 49.126 294.642C48.6033 295.547 47.6933 296 46.396 296C45.0893 296 44.1747 295.547 43.652 294.642C43.1293 293.737 42.868 292.467 42.868 290.834ZM48.65 290.834C48.65 290.022 48.594 289.336 48.482 288.776C48.3793 288.207 48.16 287.749 47.824 287.404C47.4973 287.059 47.0213 286.886 46.396 286.886C45.7613 286.886 45.276 287.059 44.94 287.404C44.6133 287.749 44.394 288.207 44.282 288.776C44.1793 289.336 44.128 290.022 44.128 290.834C44.128 291.674 44.1793 292.379 44.282 292.948C44.394 293.517 44.6133 293.975 44.94 294.32C45.276 294.665 45.7613 294.838 46.396 294.838C47.0213 294.838 47.4973 294.665 47.824 294.32C48.16 293.975 48.3793 293.517 48.482 292.948C48.594 292.379 48.65 291.674 48.65 290.834ZM52.275 296.084C52.0323 296.084 51.827 296 51.659 295.832C51.491 295.664 51.407 295.459 51.407 295.216C51.407 294.973 51.491 294.768 51.659 294.6C51.827 294.432 52.0323 294.348 52.275 294.348C52.5083 294.348 52.7043 294.432 52.863 294.6C53.031 294.768 53.115 294.973 53.115 295.216C53.115 295.459 53.031 295.664 52.863 295.832C52.7043 296 52.5083 296.084 52.275 296.084ZM54.4445 294.978C55.6298 294.026 56.5585 293.247 57.2305 292.64C57.9025 292.024 58.4671 291.385 58.9245 290.722C59.3911 290.05 59.6245 289.392 59.6245 288.748C59.6245 288.141 59.4751 287.665 59.1765 287.32C58.8871 286.965 58.4158 286.788 57.7625 286.788C57.1278 286.788 56.6331 286.989 56.2785 287.39C55.9331 287.782 55.7465 288.309 55.7185 288.972H54.4865C54.5238 287.927 54.8411 287.119 55.4385 286.55C56.0358 285.981 56.8058 285.696 57.7485 285.696C58.7098 285.696 59.4705 285.962 60.0305 286.494C60.5998 287.026 60.8845 287.759 60.8845 288.692C60.8845 289.467 60.6511 290.223 60.1845 290.96C59.7271 291.688 59.2045 292.332 58.6165 292.892C58.0285 293.443 57.2771 294.087 56.3625 294.824H61.1785V295.888H54.4445V294.978Z" fill="black"/>
<path d="M41.868 236.834C41.868 235.229 42.1293 233.978 42.652 233.082C43.1747 232.177 44.0893 231.724 45.396 231.724C46.6933 231.724 47.6033 232.177 48.126 233.082C48.6487 233.978 48.91 235.229 48.91 236.834C48.91 238.467 48.6487 239.737 48.126 240.642C47.6033 241.547 46.6933 242 45.396 242C44.0893 242 43.1747 241.547 42.652 240.642C42.1293 239.737 41.868 238.467 41.868 236.834ZM47.65 236.834C47.65 236.022 47.594 235.336 47.482 234.776C47.3793 234.207 47.16 233.749 46.824 233.404C46.4973 233.059 46.0213 232.886 45.396 232.886C44.7613 232.886 44.276 233.059 43.94 233.404C43.6133 233.749 43.394 234.207 43.282 234.776C43.1793 235.336 43.128 236.022 43.128 236.834C43.128 237.674 43.1793 238.379 43.282 238.948C43.394 239.517 43.6133 239.975 43.94 240.32C44.276 240.665 44.7613 240.838 45.396 240.838C46.0213 240.838 46.4973 240.665 46.824 240.32C47.16 239.975 47.3793 239.517 47.482 238.948C47.594 238.379 47.65 237.674 47.65 236.834ZM51.275 242.084C51.0323 242.084 50.827 242 50.659 241.832C50.491 241.664 50.407 241.459 50.407 241.216C50.407 240.973 50.491 240.768 50.659 240.6C50.827 240.432 51.0323 240.348 51.275 240.348C51.5083 240.348 51.7043 240.432 51.863 240.6C52.031 240.768 52.115 240.973 52.115 241.216C52.115 241.459 52.031 241.664 51.863 241.832C51.7043 242 51.5083 242.084 51.275 242.084ZM53.2905 239.746V238.78L58.2045 231.976H59.7305V238.64H61.1305V239.746H59.7305V242H58.4705V239.746H53.2905ZM58.5265 233.306L54.7605 238.64H58.5265V233.306Z" fill="black"/>
<path d="M41.868 182.834C41.868 181.229 42.1293 179.978 42.652 179.082C43.1747 178.177 44.0893 177.724 45.396 177.724C46.6933 177.724 47.6033 178.177 48.126 179.082C48.6487 179.978 48.91 181.229 48.91 182.834C48.91 184.467 48.6487 185.737 48.126 186.642C47.6033 187.547 46.6933 188 45.396 188C44.0893 188 43.1747 187.547 42.652 186.642C42.1293 185.737 41.868 184.467 41.868 182.834ZM47.65 182.834C47.65 182.022 47.594 181.336 47.482 180.776C47.3793 180.207 47.16 179.749 46.824 179.404C46.4973 179.059 46.0213 178.886 45.396 178.886C44.7613 178.886 44.276 179.059 43.94 179.404C43.6133 179.749 43.394 180.207 43.282 180.776C43.1793 181.336 43.128 182.022 43.128 182.834C43.128 183.674 43.1793 184.379 43.282 184.948C43.394 185.517 43.6133 185.975 43.94 186.32C44.276 186.665 44.7613 186.838 45.396 186.838C46.0213 186.838 46.4973 186.665 46.824 186.32C47.16 185.975 47.3793 185.517 47.482 184.948C47.594 184.379 47.65 183.674 47.65 182.834ZM51.275 188.084C51.0323 188.084 50.827 188 50.659 187.832C50.491 187.664 50.407 187.459 50.407 187.216C50.407 186.973 50.491 186.768 50.659 186.6C50.827 186.432 51.0323 186.348 51.275 186.348C51.5083 186.348 51.7043 186.432 51.863 186.6C52.031 186.768 52.115 186.973 52.115 187.216C52.115 187.459 52.031 187.664 51.863 187.832C51.7043 188 51.5083 188.084 51.275 188.084ZM59.2405 180.286C59.0351 179.25 58.3958 178.732 57.3225 178.732C56.4918 178.732 55.8711 179.054 55.4605 179.698C55.0498 180.333 54.8491 181.383 54.8585 182.848C55.0731 182.363 55.4278 181.985 55.9225 181.714C56.4265 181.434 56.9865 181.294 57.6025 181.294C58.5638 181.294 59.3291 181.593 59.8985 182.19C60.4771 182.787 60.7665 183.613 60.7665 184.668C60.7665 185.303 60.6405 185.872 60.3885 186.376C60.1458 186.88 59.7725 187.281 59.2685 187.58C58.7738 187.879 58.1718 188.028 57.4625 188.028C56.5011 188.028 55.7498 187.813 55.2085 187.384C54.6671 186.955 54.2891 186.362 54.0745 185.606C53.8598 184.85 53.7525 183.917 53.7525 182.806C53.7525 179.381 54.9471 177.668 57.3365 177.668C58.2511 177.668 58.9698 177.915 59.4925 178.41C60.0151 178.905 60.3231 179.53 60.4165 180.286H59.2405ZM57.3365 182.372C56.9351 182.372 56.5571 182.456 56.2025 182.624C55.8478 182.783 55.5585 183.03 55.3345 183.366C55.1198 183.693 55.0125 184.094 55.0125 184.57C55.0125 185.279 55.2178 185.858 55.6285 186.306C56.0391 186.745 56.6271 186.964 57.3925 186.964C58.0458 186.964 58.5638 186.763 58.9465 186.362C59.3385 185.951 59.5345 185.401 59.5345 184.71C59.5345 183.982 59.3478 183.413 58.9745 183.002C58.6011 182.582 58.0551 182.372 57.3365 182.372Z" fill="black"/>
<path d="M41.868 128.834C41.868 127.229 42.1293 125.978 42.652 125.082C43.1747 124.177 44.0893 123.724 45.396 123.724C46.6933 123.724 47.6033 124.177 48.126 125.082C48.6487 125.978 48.91 127.229 48.91 128.834C48.91 130.467 48.6487 131.737 48.126 132.642C47.6033 133.547 46.6933 134 45.396 134C44.0893 134 43.1747 133.547 42.652 132.642C42.1293 131.737 41.868 130.467 41.868 128.834ZM47.65 128.834C47.65 128.022 47.594 127.336 47.482 126.776C47.3793 126.207 47.16 125.749 46.824 125.404C46.4973 125.059 46.0213 124.886 45.396 124.886C44.7613 124.886 44.276 125.059 43.94 125.404C43.6133 125.749 43.394 126.207 43.282 126.776C43.1793 127.336 43.128 128.022 43.128 128.834C43.128 129.674 43.1793 130.379 43.282 130.948C43.394 131.517 43.6133 131.975 43.94 132.32C44.276 132.665 44.7613 132.838 45.396 132.838C46.0213 132.838 46.4973 132.665 46.824 132.32C47.16 131.975 47.3793 131.517 47.482 130.948C47.594 130.379 47.65 129.674 47.65 128.834ZM51.275 134.084C51.0323 134.084 50.827 134 50.659 133.832C50.491 133.664 50.407 133.459 50.407 133.216C50.407 132.973 50.491 132.768 50.659 132.6C50.827 132.432 51.0323 132.348 51.275 132.348C51.5083 132.348 51.7043 132.432 51.863 132.6C52.031 132.768 52.115 132.973 52.115 133.216C52.115 133.459 52.031 133.664 51.863 133.832C51.7043 134 51.5083 134.084 51.275 134.084ZM55.4465 128.736C54.9238 128.531 54.5225 128.232 54.2425 127.84C53.9625 127.448 53.8225 126.972 53.8225 126.412C53.8225 125.908 53.9485 125.455 54.2005 125.054C54.4525 124.643 54.8258 124.321 55.3205 124.088C55.8245 123.845 56.4311 123.724 57.1405 123.724C57.8498 123.724 58.4518 123.845 58.9465 124.088C59.4505 124.321 59.8285 124.643 60.0805 125.054C60.3418 125.455 60.4725 125.908 60.4725 126.412C60.4725 126.953 60.3278 127.429 60.0385 127.84C59.7491 128.241 59.3525 128.54 58.8485 128.736C59.4271 128.913 59.8845 129.226 60.2205 129.674C60.5658 130.113 60.7385 130.645 60.7385 131.27C60.7385 131.877 60.5891 132.409 60.2905 132.866C59.9918 133.314 59.5671 133.664 59.0165 133.916C58.4751 134.159 57.8498 134.28 57.1405 134.28C56.4311 134.28 55.8058 134.159 55.2645 133.916C54.7325 133.664 54.3171 133.314 54.0185 132.866C53.7198 132.409 53.5705 131.877 53.5705 131.27C53.5705 130.645 53.7385 130.108 54.0745 129.66C54.4105 129.212 54.8678 128.904 55.4465 128.736ZM59.2405 126.566C59.2405 125.997 59.0538 125.558 58.6805 125.25C58.3071 124.942 57.7938 124.788 57.1405 124.788C56.4965 124.788 55.9878 124.942 55.6145 125.25C55.2411 125.558 55.0545 126.001 55.0545 126.58C55.0545 127.103 55.2458 127.523 55.6285 127.84C56.0205 128.157 56.5245 128.316 57.1405 128.316C57.7658 128.316 58.2698 128.157 58.6525 127.84C59.0445 127.513 59.2405 127.089 59.2405 126.566ZM57.1405 129.296C56.4498 129.296 55.8851 129.459 55.4465 129.786C55.0078 130.103 54.7885 130.584 54.7885 131.228C54.7885 131.825 54.9985 132.306 55.4185 132.67C55.8478 133.034 56.4218 133.216 57.1405 133.216C57.8591 133.216 58.4285 133.034 58.8485 132.67C59.2685 132.306 59.4785 131.825 59.4785 131.228C59.4785 130.603 59.2638 130.127 58.8345 129.8C58.4051 129.464 57.8405 129.296 57.1405 129.296Z" fill="black"/>
<path d="M45.532 71.04V69.878H48.164V80H46.876V71.04H45.532ZM50.9684 80.084C50.7257 80.084 50.5204 80 50.3524 79.832C50.1844 79.664 50.1004 79.4587 50.1004 79.216C50.1004 78.9733 50.1844 78.768 50.3524 78.6C50.5204 78.432 50.7257 78.348 50.9684 78.348C51.2017 78.348 51.3977 78.432 51.5564 78.6C51.7244 78.768 51.8084 78.9733 51.8084 79.216C51.8084 79.4587 51.7244 79.664 51.5564 79.832C51.3977 80 51.2017 80.084 50.9684 80.084ZM53.2918 74.834C53.2918 73.2287 53.5532 71.978 54.0758 71.082C54.5985 70.1767 55.5132 69.724 56.8198 69.724C58.1172 69.724 59.0272 70.1767 59.5498 71.082C60.0725 71.978 60.3338 73.2287 60.3338 74.834C60.3338 76.4673 60.0725 77.7367 59.5498 78.642C59.0272 79.5473 58.1172 80 56.8198 80C55.5132 80 54.5985 79.5473 54.0758 78.642C53.5532 77.7367 53.2918 76.4673 53.2918 74.834ZM59.0738 74.834C59.0738 74.022 59.0178 73.336 58.9058 72.776C58.8032 72.2067 58.5838 71.7493 58.2478 71.404C57.9212 71.0587 57.4452 70.886 56.8198 70.886C56.1852 70.886 55.6998 71.0587 55.3638 71.404C55.0372 71.7493 54.8178 72.2067 54.7058 72.776C54.6032 73.336 54.5518 74.022 54.5518 74.834C54.5518 75.674 54.6032 76.3787 54.7058 76.948C54.8178 77.5173 55.0372 77.9747 55.3638 78.32C55.6998 78.6653 56.1852 78.838 56.8198 78.838C57.4452 78.838 57.9212 78.6653 58.2478 78.32C58.5838 77.9747 58.8032 77.5173 58.9058 76.948C59.0178 76.3787 59.0738 75.674 59.0738 74.834Z" fill="black"/>
<path d="M39.398 504.33V505.408H33.812V504.33H39.398ZM41.5789 504.834C41.5789 503.229 41.8403 501.978 42.3629 501.082C42.8856 500.177 43.8003 499.724 45.1069 499.724C46.4043 499.724 47.3143 500.177 47.8369 501.082C48.3596 501.978 48.6209 503.229 48.6209 504.834C48.6209 506.467 48.3596 507.737 47.8369 508.642C47.3143 509.547 46.4043 510 45.1069 510C43.8003 510 42.8856 509.547 42.3629 508.642C41.8403 507.737 41.5789 506.467 41.5789 504.834ZM47.3609 504.834C47.3609 504.022 47.3049 503.336 47.1929 502.776C47.0903 502.207 46.8709 501.749 46.5349 501.404C46.2083 501.059 45.7323 500.886 45.1069 500.886C44.4723 500.886 43.9869 501.059 43.6509 501.404C43.3243 501.749 43.1049 502.207 42.9929 502.776C42.8903 503.336 42.8389 504.022 42.8389 504.834C42.8389 505.674 42.8903 506.379 42.9929 506.948C43.1049 507.517 43.3243 507.975 43.6509 508.32C43.9869 508.665 44.4723 508.838 45.1069 508.838C45.7323 508.838 46.2083 508.665 46.5349 508.32C46.8709 507.975 47.0903 507.517 47.1929 506.948C47.3049 506.379 47.3609 505.674 47.3609 504.834ZM50.986 510.084C50.7433 510.084 50.538 510 50.37 509.832C50.202 509.664 50.118 509.459 50.118 509.216C50.118 508.973 50.202 508.768 50.37 508.6C50.538 508.432 50.7433 508.348 50.986 508.348C51.2193 508.348 51.4153 508.432 51.574 508.6C51.742 508.768 51.826 508.973 51.826 509.216C51.826 509.459 51.742 509.664 51.574 509.832C51.4153 510 51.2193 510.084 50.986 510.084ZM58.9514 502.286C58.7461 501.25 58.1067 500.732 57.0334 500.732C56.2027 500.732 55.5821 501.054 55.1714 501.698C54.7607 502.333 54.5601 503.383 54.5694 504.848C54.7841 504.363 55.1387 503.985 55.6334 503.714C56.1374 503.434 56.6974 503.294 57.3134 503.294C58.2747 503.294 59.0401 503.593 59.6094 504.19C60.1881 504.787 60.4774 505.613 60.4774 506.668C60.4774 507.303 60.3514 507.872 60.0994 508.376C59.8567 508.88 59.4834 509.281 58.9794 509.58C58.4847 509.879 57.8827 510.028 57.1734 510.028C56.2121 510.028 55.4607 509.813 54.9194 509.384C54.3781 508.955 54.0001 508.362 53.7854 507.606C53.5707 506.85 53.4634 505.917 53.4634 504.806C53.4634 501.381 54.6581 499.668 57.0474 499.668C57.9621 499.668 58.6807 499.915 59.2034 500.41C59.7261 500.905 60.0341 501.53 60.1274 502.286H58.9514ZM57.0474 504.372C56.6461 504.372 56.2681 504.456 55.9134 504.624C55.5587 504.783 55.2694 505.03 55.0454 505.366C54.8307 505.693 54.7234 506.094 54.7234 506.57C54.7234 507.279 54.9287 507.858 55.3394 508.306C55.7501 508.745 56.3381 508.964 57.1034 508.964C57.7567 508.964 58.2747 508.763 58.6574 508.362C59.0494 507.951 59.2454 507.401 59.2454 506.71C59.2454 505.982 59.0587 505.413 58.6854 505.002C58.3121 504.582 57.7661 504.372 57.0474 504.372Z" fill="black"/>
<path d="M39.398 450.33V451.408H33.812V450.33H39.398ZM41.5789 450.834C41.5789 449.229 41.8403 447.978 42.3629 447.082C42.8856 446.177 43.8003 445.724 45.1069 445.724C46.4043 445.724 47.3143 446.177 47.8369 447.082C48.3596 447.978 48.6209 449.229 48.6209 450.834C48.6209 452.467 48.3596 453.737 47.8369 454.642C47.3143 455.547 46.4043 456 45.1069 456C43.8003 456 42.8856 455.547 42.3629 454.642C41.8403 453.737 41.5789 452.467 41.5789 450.834ZM47.3609 450.834C47.3609 450.022 47.3049 449.336 47.1929 448.776C47.0903 448.207 46.8709 447.749 46.5349 447.404C46.2083 447.059 45.7323 446.886 45.1069 446.886C44.4723 446.886 43.9869 447.059 43.6509 447.404C43.3243 447.749 43.1049 448.207 42.9929 448.776C42.8903 449.336 42.8389 450.022 42.8389 450.834C42.8389 451.674 42.8903 452.379 42.9929 452.948C43.1049 453.517 43.3243 453.975 43.6509 454.32C43.9869 454.665 44.4723 454.838 45.1069 454.838C45.7323 454.838 46.2083 454.665 46.5349 454.32C46.8709 453.975 47.0903 453.517 47.1929 452.948C47.3049 452.379 47.3609 451.674 47.3609 450.834ZM50.986 456.084C50.7433 456.084 50.538 456 50.37 455.832C50.202 455.664 50.118 455.459 50.118 455.216C50.118 454.973 50.202 454.768 50.37 454.6C50.538 454.432 50.7433 454.348 50.986 454.348C51.2193 454.348 51.4153 454.432 51.574 454.6C51.742 454.768 51.826 454.973 51.826 455.216C51.826 455.459 51.742 455.664 51.574 455.832C51.4153 456 51.2193 456.084 50.986 456.084ZM53.0014 453.746V452.78L57.9154 445.976H59.4414V452.64H60.8414V453.746H59.4414V456H58.1814V453.746H53.0014ZM58.2374 447.306L54.4714 452.64H58.2374V447.306Z" fill="black"/>
<path d="M40.398 396.33V397.408H34.812V396.33H40.398ZM42.5789 396.834C42.5789 395.229 42.8403 393.978 43.3629 393.082C43.8856 392.177 44.8003 391.724 46.1069 391.724C47.4043 391.724 48.3143 392.177 48.8369 393.082C49.3596 393.978 49.6209 395.229 49.6209 396.834C49.6209 398.467 49.3596 399.737 48.8369 400.642C48.3143 401.547 47.4043 402 46.1069 402C44.8003 402 43.8856 401.547 43.3629 400.642C42.8403 399.737 42.5789 398.467 42.5789 396.834ZM48.3609 396.834C48.3609 396.022 48.3049 395.336 48.1929 394.776C48.0903 394.207 47.8709 393.749 47.5349 393.404C47.2083 393.059 46.7323 392.886 46.1069 392.886C45.4723 392.886 44.9869 393.059 44.6509 393.404C44.3243 393.749 44.1049 394.207 43.9929 394.776C43.8903 395.336 43.8389 396.022 43.8389 396.834C43.8389 397.674 43.8903 398.379 43.9929 398.948C44.1049 399.517 44.3243 399.975 44.6509 400.32C44.9869 400.665 45.4723 400.838 46.1069 400.838C46.7323 400.838 47.2083 400.665 47.5349 400.32C47.8709 399.975 48.0903 399.517 48.1929 398.948C48.3049 398.379 48.3609 397.674 48.3609 396.834ZM51.986 402.084C51.7433 402.084 51.538 402 51.37 401.832C51.202 401.664 51.118 401.459 51.118 401.216C51.118 400.973 51.202 400.768 51.37 400.6C51.538 400.432 51.7433 400.348 51.986 400.348C52.2193 400.348 52.4153 400.432 52.574 400.6C52.742 400.768 52.826 400.973 52.826 401.216C52.826 401.459 52.742 401.664 52.574 401.832C52.4153 402 52.2193 402.084 51.986 402.084ZM54.1554 400.978C55.3407 400.026 56.2694 399.247 56.9414 398.64C57.6134 398.024 58.1781 397.385 58.6354 396.722C59.1021 396.05 59.3354 395.392 59.3354 394.748C59.3354 394.141 59.1861 393.665 58.8874 393.32C58.5981 392.965 58.1267 392.788 57.4734 392.788C56.8387 392.788 56.3441 392.989 55.9894 393.39C55.6441 393.782 55.4574 394.309 55.4294 394.972H54.1974C54.2347 393.927 54.5521 393.119 55.1494 392.55C55.7467 391.981 56.5167 391.696 57.4594 391.696C58.4207 391.696 59.1814 391.962 59.7414 392.494C60.3107 393.026 60.5954 393.759 60.5954 394.692C60.5954 395.467 60.3621 396.223 59.8954 396.96C59.4381 397.688 58.9154 398.332 58.3274 398.892C57.7394 399.443 56.9881 400.087 56.0734 400.824H60.8894V401.888H54.1554V400.978Z" fill="black"/>
<path d="M53.868 342.834C53.868 341.229 54.1293 339.978 54.652 339.082C55.1747 338.177 56.0893 337.724 57.396 337.724C58.6933 337.724 59.6033 338.177 60.126 339.082C60.6487 339.978 60.91 341.229 60.91 342.834C60.91 344.467 60.6487 345.737 60.126 346.642C59.6033 347.547 58.6933 348 57.396 348C56.0893 348 55.1747 347.547 54.652 346.642C54.1293 345.737 53.868 344.467 53.868 342.834ZM59.65 342.834C59.65 342.022 59.594 341.336 59.482 340.776C59.3793 340.207 59.16 339.749 58.824 339.404C58.4973 339.059 58.0213 338.886 57.396 338.886C56.7613 338.886 56.276 339.059 55.94 339.404C55.6133 339.749 55.394 340.207 55.282 340.776C55.1793 341.336 55.128 342.022 55.128 342.834C55.128 343.674 55.1793 344.379 55.282 344.948C55.394 345.517 55.6133 345.975 55.94 346.32C56.276 346.665 56.7613 346.838 57.396 346.838C58.0213 346.838 58.4973 346.665 58.824 346.32C59.16 345.975 59.3793 345.517 59.482 344.948C59.594 344.379 59.65 343.674 59.65 342.834Z" fill="black"/>
<path d="M594 507H87.5L86.5 346H154.5L175 332.5L195 346H226L240 359L256.5 258L273.5 382.5L280 346L306.5 337.5L340 306L379 337.5L410.5 332.5L437 346H485.5L502.5 332.5L523.5 346H555L568.5 358L585.5 292.5L591.5 323.5L594 507Z" fill="url(#paint0_linear_350_699)" fill-opacity="0.6"/>
<path d="M87 346H153.5L175 332.5L195.5 346H226L240.5 358.5L257 256L273 383.5L280 346L307 337.5L340 305.5L379 337.5L410.5 332.5L436 346H485L502 332.5L523 346H555L568.5 358.5L585 292L591.5 322.5M595 346L601.5 378.5L618 343.5L645.5 337.5L670.5 305.5L712.5 337.5L742 332.5L760 346H839" stroke="#00B8A9" stroke-width="3.5" stroke-linecap="round"/>
<defs>
<filter id="filter0_d_350_699" x="0" y="0" width="866" height="581" filterUnits="userSpaceOnUse" color-interpolation-filters="sRGB">
<feFlood flood-opacity="0" result="BackgroundImageFix"/>
<feColorMatrix in="SourceAlpha" type="matrix" values="0 0 0 0 0 0 0 0 0 0 0 0 0 0 0 0 0 0 127 0" result="hardAlpha"/>
<feOffset/>
<feGaussianBlur stdDeviation="10"/>
<feComposite in2="hardAlpha" operator="out"/>
<feColorMatrix type="matrix" values="0 0 0 0 0 0 0 0 0 0 0 0 0 0 0 0 0 0 0.15 0"/>
<feBlend mode="normal" in2="BackgroundImageFix" result="effect1_dropShadow_350_699"/>
<feBlend mode="normal" in="SourceGraphic" in2="effect1_dropShadow_350_699" result="shape"/>
</filter>
<linearGradient id="paint0_linear_350_699" x1="456" y1="221" x2="96" y2="497" gradientUnits="userSpaceOnUse">
<stop stop-color="#37A1A4"/>
<stop offset="1" stop-color="#C4C4C4" stop-opacity="0"/>
</linearGradient>
</defs>
</svg>
