<svg width="19" height="19" viewBox="0 0 19 19" fill="none" xmlns="http://www.w3.org/2000/svg">
<path d="M14.7246 0.950001H4.27461C3.89684 0.950425 3.53453 1.10067 3.26747 1.36787C3.00028 1.63495 2.85004 1.99725 2.84961 2.375V11.4C2.85003 11.7778 3.00027 12.1401 3.26747 12.4071C3.53455 12.6743 3.89686 12.8246 4.27461 12.825H4.74961V13.3C4.74993 13.5518 4.85012 13.7934 5.02826 13.9714C5.20628 14.1495 5.44781 14.2497 5.69961 14.25H6.64961C6.90142 14.2497 7.14296 14.1495 7.32096 13.9714C7.49909 13.7933 7.59929 13.5518 7.59961 13.3V12.825H11.3996V13.3C11.3999 13.5518 11.5001 13.7934 11.6783 13.9714C11.8563 14.1495 12.0978 14.2497 12.3496 14.25H13.2996C13.5514 14.2497 13.793 14.1495 13.971 13.9714C14.1491 13.7933 14.2493 13.5518 14.2496 13.3V12.825H14.7246C15.1024 12.8246 15.4647 12.6743 15.7318 12.4071C15.9989 12.1401 16.1492 11.7777 16.1496 11.4V2.375C16.1492 1.99723 15.999 1.63492 15.7318 1.36787C15.4647 1.10068 15.1024 0.950435 14.7246 0.950001ZM3.79961 5.7H5.44536L6.25447 6.91348C6.31797 7.0089 6.41393 7.07814 6.52452 7.10835C6.6351 7.13857 6.7529 7.12776 6.85617 7.07792C6.95934 7.02799 7.04108 6.94242 7.08615 6.83693L8.08248 4.51249L9.54035 7.79298H9.54046C9.57545 7.87176 9.63122 7.93951 9.70183 7.98902C9.77244 8.03843 9.85525 8.06769 9.94124 8.07363C9.95237 8.07459 9.9635 8.07501 9.97453 8.07501C10.1381 8.0748 10.2903 7.99051 10.3771 7.85172L12.3626 4.67546L12.9044 5.48814L12.9045 5.48825C12.9926 5.62036 13.1408 5.69978 13.2996 5.69988H15.1996V9.02488H3.79963L3.79961 5.7ZM4.27461 1.9H14.7246C14.8506 1.90011 14.9713 1.95015 15.0604 2.03921C15.1495 2.12827 15.1995 2.24904 15.1996 2.375V4.75H13.5539L12.7448 3.53652C12.6522 3.4059 12.5028 3.32723 12.3427 3.325C12.1813 3.32722 12.0323 3.4113 11.9469 3.54829L10.0455 6.59019L8.50879 3.13219V3.13209C8.47147 3.04811 8.4105 2.97686 8.33342 2.92671C8.25644 2.87667 8.16653 2.85005 8.07461 2.84995H8.07143C7.97897 2.85059 7.88874 2.87815 7.81177 2.92926C7.73479 2.98047 7.67446 3.05299 7.6381 3.13802L6.55822 5.6568L6.09478 4.96148C6.00678 4.82937 5.85845 4.74996 5.69961 4.74996H3.7996V2.37496C3.79971 2.249 3.84976 2.12823 3.93882 2.03917C4.02788 1.95011 4.14865 1.90007 4.2746 1.89996L4.27461 1.9ZM6.65056 13.3H5.69961V12.825H6.65005L6.65056 13.3ZM13.3006 13.3H12.3496V12.825H13.3L13.3006 13.3ZM14.7246 11.875H4.27461C4.14865 11.8749 4.02789 11.8248 3.93883 11.7358C3.84976 11.6467 3.79972 11.526 3.79961 11.4V9.975H15.1996V11.4C15.1995 11.526 15.1495 11.6467 15.0604 11.7358C14.9713 11.8248 14.8506 11.8749 14.7246 11.875H14.7246Z" fill="white"/>
<path d="M14.2492 10.45H13.2992C13.1295 10.45 12.9727 10.5405 12.8878 10.6875C12.803 10.8345 12.803 11.0155 12.8878 11.1625C12.9727 11.3095 13.1295 11.4 13.2992 11.4H14.2492C14.419 11.4 14.5758 11.3095 14.6606 11.1625C14.7454 11.0155 14.7454 10.8345 14.6606 10.6875C14.5758 10.5405 14.419 10.45 14.2492 10.45Z" fill="white"/>
<path d="M11.8742 10.45H10.9242C10.7545 10.45 10.5977 10.5405 10.5128 10.6875C10.428 10.8345 10.428 11.0155 10.5128 11.1625C10.5977 11.3095 10.7545 11.4 10.9242 11.4H11.8742C12.044 11.4 12.2008 11.3095 12.2856 11.1625C12.3704 11.0155 12.3704 10.8345 12.2856 10.6875C12.2008 10.5405 12.044 10.45 11.8742 10.45Z" fill="white"/>
</svg>
