<?xml version="1.0" encoding="utf-8"?>
<!-- Generator: Adobe Illustrator 25.2.0, SVG Export Plug-In . SVG Version: 6.00 Build 0)  -->
<svg version="1.1" id="Layer_1" xmlns="http://www.w3.org/2000/svg" xmlns:xlink="http://www.w3.org/1999/xlink" x="0px" y="0px"
	 viewBox="0 0 24 24" style="enable-background:new 0 0 24 24;" xml:space="preserve">
<style type="text/css">
	.st0{display:none;fill:none;stroke:#03A5FD;stroke-width:2;stroke-linecap:round;stroke-linejoin:round;}
	.st1{fill:#03A5FD;}
</style>
<path class="st0" d="M9.9,4.24C10.59,4.08,11.29,4,12,4c7,0,11,8,11,8c-0.61,1.14-1.33,2.2-2.16,3.19 M14.12,14.12
	c-0.27,0.29-0.61,0.53-0.97,0.7c-0.37,0.16-0.77,0.25-1.17,0.26c-0.4,0.01-0.8-0.07-1.18-0.22c-0.37-0.15-0.71-0.38-1-0.66
	c-0.28-0.28-0.51-0.62-0.66-1c-0.15-0.37-0.22-0.77-0.22-1.18c0.01-0.4,0.1-0.8,0.26-1.17c0.16-0.37,0.4-0.7,0.7-0.97 M17.94,17.94
	c-1.71,1.3-3.79,2.02-5.94,2.06c-7,0-11-8-11-8c1.24-2.32,2.97-4.34,5.06-5.94L17.94,17.94z"/>
<path class="st0" d="M1,1l22,22"/>
<g>
	<path class="st1" d="M11.98,21.09c-6.49,0-11.61-8.04-11.78-8.34c-0.26-0.3-0.26-0.79,0-1.19c0.17-0.3,5.29-8.34,11.78-8.34
		s11.61,8.04,11.78,8.34c0.26,0.3,0.26,0.79,0,1.19C23.59,13.04,18.47,21.09,11.98,21.09z M1.99,12.15
		c1.28,1.79,5.29,6.95,9.99,6.95s8.8-5.16,9.99-6.95c-1.28-1.79-5.29-6.95-9.99-6.95S3.18,10.36,1.99,12.15z"/>
</g>
<g>
	<path class="st1" d="M12.06,16.36c-2.36,0-4.21-1.85-4.21-4.21s1.85-4.21,4.21-4.21s4.21,1.85,4.21,4.21S14.42,16.36,12.06,16.36z
		 M12.06,9.63c-1.43,0-2.52,1.09-2.52,2.52s1.09,2.52,2.52,2.52s2.52-1.09,2.52-2.52S13.49,9.63,12.06,9.63z"/>
</g>
</svg>
