<svg width="36" height="28" viewBox="0 0 36 28" fill="none" xmlns="http://www.w3.org/2000/svg">
<path d="M5.82614 28L4.10896 26.2655L30.1119 0L31.8291 1.73451L5.82614 28ZM17.969 19.5752C17.3558 19.5752 16.7425 19.4513 16.1905 19.2655L15.2706 20.1947C16.1292 20.5664 16.9878 20.7522 17.969 20.7522C21.71 20.7522 24.7151 17.7168 24.7151 13.9381C24.7151 12.9469 24.5311 12.0177 24.1631 11.2124L23.2432 12.1416C23.3659 12.7611 23.4885 13.3805 23.4885 14C23.4885 17.0973 21.0354 19.5752 17.969 19.5752ZM17.969 8.42478C18.5823 8.42478 19.1956 8.54867 19.7475 8.73451L20.6674 7.80531C19.8702 7.37168 18.9503 7.18584 17.969 7.18584C14.228 7.18584 11.223 10.2212 11.223 14C11.223 14.9912 11.407 15.9204 11.7749 16.7257L12.6948 15.7965C12.5722 15.2389 12.4495 14.6195 12.4495 14C12.4495 10.9027 14.9026 8.42478 17.969 8.42478ZM9.01518 19.5752C5.82614 17.6549 3.74099 15.177 2.94373 14C3.86365 12.7611 6.1941 9.9115 9.87377 7.99115C8.64721 9.66372 7.91128 11.7699 7.91128 14C7.91128 15.9204 8.46323 17.7168 9.38314 19.2655L10.7324 17.9027C10.1191 16.7263 9.75111 15.4248 9.75111 14C9.75111 10.469 11.9589 7.43363 15.0866 6.19469C16.7198 5.86513 19.3072 5.85832 20.9747 6.19469C21.2813 6.31859 21.588 6.44248 21.8327 6.62832L24.0411 4.39823C22.2006 3.84071 20.1768 3.46903 17.969 3.46903C10.2681 3.46903 3.649 7.85239 0 14C1.89073 17.1853 4.41192 19.6273 7.17535 21.3717L9.01518 19.5752ZM28.7627 6.62832L26.9229 8.48672C30.1119 10.4071 32.1977 12.885 32.9943 14.0619C32.0744 15.3009 29.744 18.1504 26.0643 20.0708C27.2908 18.3982 28.0268 16.292 28.0268 14.0619C28.0268 12.1416 27.4748 10.3451 26.5549 8.79646L25.2057 10.1593C25.819 11.3363 26.1876 12.6372 26.1876 14.0619C26.1876 17.5929 23.9791 20.6283 20.852 21.8673C19.2244 22.1027 16.7345 22.151 15.0259 21.8047C14.7193 21.6814 14.4126 21.5575 14.1673 21.3717L11.9595 23.6018C13.738 24.1593 15.7618 24.531 18.031 24.531C25.6583 24.531 32.2995 20.2244 36 14C35.1641 12.7945 33.1967 9.4277 28.7627 6.62832Z" fill="#313131"/>
</svg>
