<svg width="30" height="27" viewBox="0 0 30 27" fill="none" xmlns="http://www.w3.org/2000/svg">
<path d="M9.97075 0.696075C8.87503 0.696075 7.90849 1.2792 7.37713 2.15552C7.26393 2.30739 7.2201 2.50005 7.25643 2.6859C7.29276 2.87176 7.40596 3.03372 7.56791 3.13192C7.7301 3.23012 7.92604 3.2552 8.10768 3.20129C8.28908 3.14715 8.43955 3.01918 8.52159 2.84856C8.81667 2.36176 9.34683 2.03994 9.97071 2.03994H26.7497C27.7006 2.03994 28.4403 2.77962 28.4403 3.7305V13.7895C28.4403 14.7404 27.7006 15.4801 26.7497 15.4801H25.7522C25.3812 15.4801 25.0803 15.781 25.0803 16.152V20.5726L24.8072 20.2995C24.6807 20.172 24.5086 20.1001 24.3289 20.0996C24.1493 20.0994 23.9768 20.1706 23.8498 20.2976C23.7228 20.4247 23.6515 20.5969 23.6518 20.7767C23.6522 20.9565 23.7242 21.1285 23.8517 21.2551L25.2797 22.6726C25.4719 22.8624 25.759 22.9189 26.0086 22.8158C26.2585 22.7126 26.422 22.4701 26.4242 22.2001V16.8239H26.7497C28.4199 16.8239 29.7841 15.4597 29.7841 13.7895V3.73049C29.7841 2.06033 28.4199 0.696045 26.7497 0.696045L9.97075 0.696075ZM3.25075 4.72802C1.58059 4.72802 0.216309 6.0923 0.216309 7.76246V17.8215C0.216309 19.4916 1.58059 20.8561 3.25075 20.8561H3.5763V26.232C3.57841 26.5023 3.742 26.7448 3.99185 26.8477C4.24146 26.9509 4.52856 26.8944 4.72073 26.7045L10.5691 20.8562H20.0299C21.7001 20.8562 23.0644 19.4916 23.0644 17.8215V7.76248C23.0644 6.09232 21.7001 4.72803 20.0299 4.72803L3.25075 4.72802ZM3.25075 6.0719H20.0298C20.9806 6.0719 21.7203 6.81158 21.7203 7.76246V17.8215C21.7203 18.7723 20.9806 19.512 20.0298 19.512H10.2966C10.1203 19.5106 9.95062 19.5786 9.82405 19.7012L4.92043 24.6045V20.184C4.92043 19.813 4.61949 19.512 4.24849 19.512H3.25099C2.30011 19.512 1.56043 18.7724 1.56043 17.8215V7.76248C1.56043 6.8116 2.30011 6.07191 3.25099 6.07191L3.25075 6.0719ZM6.93631 11.448C6.19405 11.448 5.59219 12.0496 5.59219 12.7919C5.59219 13.5342 6.19405 14.136 6.93631 14.136C7.67857 14.136 8.28019 13.5342 8.28019 12.7919C8.28019 12.0496 7.67857 11.448 6.93631 11.448ZM11.6402 11.448C10.8979 11.448 10.2963 12.0496 10.2963 12.7919C10.2963 13.5342 10.8979 14.136 11.6402 14.136C12.3825 14.136 12.9841 13.5342 12.9841 12.7919C12.9841 12.0496 12.3825 11.448 11.6402 11.448ZM16.3441 11.448C15.6018 11.448 15.0002 12.0496 15.0002 12.7919C15.0002 13.5342 15.6018 14.136 16.3441 14.136C17.0866 14.136 17.6882 13.5342 17.6882 12.7919C17.6882 12.0496 17.0866 11.448 16.3441 11.448Z" fill="white"/>
<path d="M8.48779 12.8086C8.48779 13.637 7.81622 14.3086 6.98779 14.3086C6.15937 14.3086 5.48779 13.637 5.48779 12.8086C5.48779 11.9802 6.15937 11.3086 6.98779 11.3086C7.81622 11.3086 8.48779 11.9802 8.48779 12.8086Z" fill="#F7F178"/>
<path d="M13 12.8086C13 13.637 12.3284 14.3086 11.5 14.3086C10.6716 14.3086 10 13.637 10 12.8086C10 11.9802 10.6716 11.3086 11.5 11.3086C12.3284 11.3086 13 11.9802 13 12.8086Z" fill="#F7F178"/>
<path d="M18 12.8086C18 13.637 17.3284 14.3086 16.5 14.3086C15.6716 14.3086 15 13.637 15 12.8086C15 11.9802 15.6716 11.3086 16.5 11.3086C17.3284 11.3086 18 11.9802 18 12.8086Z" fill="#F7F178"/>
</svg>
