<svg width="20" height="20" viewBox="0 0 20 20" fill="none" xmlns="http://www.w3.org/2000/svg">
<path d="M5.83366 1.66667C7.31699 1.66667 8.05866 3.46667 7.01699 4.51667C5.96699 5.55834 4.16699 4.81667 4.16699 3.33334C4.16699 2.89131 4.34259 2.46739 4.65515 2.15483C4.96771 1.84227 5.39163 1.66667 5.83366 1.66667ZM4.58366 5.83334H7.08366C7.52569 5.83334 7.94961 6.00893 8.26217 6.32149C8.57473 6.63405 8.75033 7.05798 8.75033 7.50001V12.0833H7.50033V18.3333H4.16699V12.0833H2.91699V7.50001C2.91699 7.05798 3.09259 6.63405 3.40515 6.32149C3.71771 6.00893 4.14163 5.83334 4.58366 5.83334ZM15.8337 6.66667H17.5003L15.0003 3.33334L12.5003 6.66667H14.167V13.3333H12.5003L15.0003 16.6667L17.5003 13.3333H15.8337V6.66667ZM18.3337 1.66667H11.667V3.33334H18.3337V1.66667ZM18.3337 16.6667H11.667V18.3333H18.3337" fill="white"/>
</svg>
