<svg width="236" height="26" viewBox="0 0 236 26" fill="none" xmlns="http://www.w3.org/2000/svg">
<path d="M5.16703 0.130005V12.09L14.8178 0.130005H21.0097L11.1881 12.2633L21.1378 25.0033H14.5189L5.16703 12.61V25.0033H0V0.130005H5.16703Z" fill="white"/>
<path d="M28.8246 5.98C27.8851 6.97667 27.3727 8.40667 27.2446 10.27L41.5073 10.2267V14.56H27.2019C27.2019 15.4267 27.2873 16.2933 27.5008 17.0733C27.7143 17.8967 28.0987 18.6333 28.6965 19.2833C29.2089 19.89 29.8495 20.28 30.5754 20.4533C31.3014 20.5833 32.0273 20.67 32.7959 20.67C32.8386 20.67 32.8814 20.67 32.9668 20.67C33.0095 20.67 33.0949 20.67 33.1376 20.67H41.5073V25.0033H32.7959C31.3868 25.0033 30.063 24.8733 28.7819 24.6133C27.5008 24.3533 26.2624 23.79 25.1522 22.8367C23.7857 21.71 22.8462 20.3233 22.2911 18.6767C21.736 17.03 21.437 15.3833 21.3943 13.65C21.3516 13.26 21.3516 12.9133 21.3943 12.5667C21.3943 12.22 21.437 11.8733 21.437 11.5267C21.6932 7.58334 22.7608 4.72334 24.597 2.86C26.4332 0.99667 29.2516 0.0866699 32.9668 0.0866699L41.5073 0.130003V4.46334H33.0522C31.1732 4.46334 29.7641 4.98334 28.8246 5.98Z" fill="white"/>
<path d="M42.4463 0.130005H48.2539L55.6414 18.6767L63.1998 0.130005H68.7085L58.4598 25.0033H53.122L42.4463 0.130005Z" fill="white"/>
<path d="M75.8398 5.98C74.9003 6.97667 74.3879 8.40667 74.2598 10.27L88.5225 10.2267V14.56H74.2171C74.2171 15.4267 74.3025 16.2933 74.516 17.0733C74.7295 17.8967 75.1138 18.6333 75.7117 19.2833C76.2241 19.89 76.8646 20.28 77.5906 20.4533C78.3165 20.5833 79.0425 20.67 79.8111 20.67C79.8538 20.67 79.8965 20.67 79.9819 20.67C80.0246 20.67 80.1101 20.67 80.1528 20.67L88.6079 20.6267V24.96H79.8965C78.4873 24.96 77.1636 24.83 75.8825 24.57C74.6014 24.31 73.363 23.7467 72.2528 22.7933C70.8863 21.6667 69.9468 20.28 69.3917 18.6333C68.8365 16.9867 68.5376 15.34 68.4949 13.6067C68.4522 13.2167 68.4522 12.87 68.4949 12.5233C68.4949 12.1767 68.5376 11.83 68.5376 11.4833C68.7938 7.54 69.8614 4.68 71.6976 2.81667C73.5338 0.953333 76.3522 0.0433333 80.0674 0.0433333L88.6506 0V4.33333H80.1955C78.1884 4.46333 76.7792 4.98333 75.8398 5.98Z" fill="white"/>
<path d="M98.4296 24.6567C97.0631 24.3967 95.8247 23.66 94.6717 22.4467C93.6895 21.4067 93.0917 20.2367 92.8355 18.9367C92.5793 17.6367 92.4512 16.2933 92.4512 14.95V0.130005H97.6182V13.78C97.5755 16.0767 97.8317 17.8533 98.3868 19.0667C98.8993 20.28 100.522 20.8867 103.255 20.8867L109.319 20.8433V24.96H102.785C101.248 25.0033 99.796 24.8733 98.4296 24.6567Z" fill="white"/>
<path d="M117.432 24.6567C116.066 24.3967 114.828 23.66 113.675 22.4467C112.692 21.4067 112.095 20.2367 111.838 18.9367C111.582 17.6367 111.454 16.2933 111.454 14.95V0.130005H116.621V13.78C116.578 16.0767 116.835 17.8533 117.39 19.0667C117.902 20.28 119.525 20.8867 122.258 20.8867L128.322 20.8433V24.96H121.788C120.251 25.0033 118.799 24.8733 117.432 24.6567Z" fill="white"/>
<path d="M149.587 6.89C148.861 8.53667 148.477 10.4433 148.391 12.61C148.391 13 148.391 13.3467 148.391 13.7367C148.391 14.1267 148.391 14.5167 148.434 14.9067C148.52 15.73 148.648 16.51 148.861 17.29C149.075 18.07 149.459 18.7633 149.971 19.37C150.527 19.9767 151.167 20.3667 151.85 20.54C152.576 20.67 153.302 20.7567 154.071 20.7567C154.114 20.7567 154.156 20.7567 154.242 20.7567C154.284 20.7567 154.37 20.7567 154.413 20.7567L162.868 20.7133V25.0467H154.156C152.747 25.0467 151.423 24.9167 150.142 24.6567C148.861 24.3967 147.623 23.8333 146.513 22.88C145.146 21.7533 144.207 20.3667 143.651 18.72C143.096 17.0733 142.797 15.4267 142.755 13.6933C142.712 13.3033 142.712 12.9567 142.755 12.61C142.755 12.2633 142.797 11.9167 142.797 11.57C143.054 7.62667 144.121 4.76667 145.957 2.90334C147.794 1.04 150.612 0.130003 154.327 0.130003L162.91 0.0866699V4.33334H154.455C151.893 4.42 150.313 5.24334 149.587 6.89Z" fill="white"/>
<path d="M179.138 0.130005L189.6 25.0033H183.878L181.615 19.0667H170.939L168.761 25.0033H163.338L173.672 0.130005H179.138ZM172.647 14.6467H179.949L176.234 5.07L172.647 14.6467Z" fill="white"/>
<path d="M204.034 0.130005C204.29 0.173338 204.546 0.173338 204.76 0.173338C205.016 0.173338 205.229 0.173338 205.486 0.216672C206.425 0.260005 207.322 0.433338 208.219 0.650005C209.115 0.910005 209.927 1.38667 210.61 2.08001C211.208 2.68667 211.678 3.38 211.976 4.20334C212.275 5.02667 212.489 5.85 212.532 6.71667C212.532 6.89001 212.532 7.02001 212.532 7.19334C212.532 7.36667 212.532 7.49667 212.532 7.67001C212.574 9.40334 212.147 10.92 211.336 12.1767C210.525 13.4333 209.286 14.2567 207.578 14.69L213.685 25.0467H207.877L202.496 15.2533H196.433V25.0467H191.266V0.130005H204.034ZM202.795 4.55001H196.475V10.8333H202.795C202.838 10.8767 202.881 10.8767 202.923 10.8767C202.966 10.8767 203.009 10.8767 203.052 10.8767C204.162 10.8767 205.144 10.7033 206.041 10.3567C206.938 10.01 207.365 9.14334 207.365 7.71334C207.365 6.24001 206.895 5.33001 205.955 5.02667C205.016 4.72334 203.948 4.59334 202.795 4.55001Z" fill="white"/>
<path d="M222.822 5.98C221.883 6.97667 221.37 8.40667 221.242 10.27L235.505 10.2267V14.56H221.2C221.2 15.4267 221.285 16.2933 221.498 17.0733C221.712 17.8967 222.096 18.6333 222.694 19.2833C223.207 19.89 223.847 20.28 224.573 20.4533C225.299 20.5833 226.025 20.67 226.794 20.67C226.836 20.67 226.879 20.67 226.964 20.67C227.007 20.67 227.092 20.67 227.135 20.67L235.59 20.6267V24.96H226.879C225.47 24.96 224.146 24.83 222.865 24.57C221.584 24.31 220.345 23.7467 219.235 22.7933C217.869 21.6667 216.929 20.28 216.374 18.6333C215.819 16.9867 215.52 15.34 215.477 13.6067C215.435 13.2167 215.435 12.87 215.477 12.5233C215.477 12.1767 215.52 11.83 215.52 11.4833C215.776 7.54 216.844 4.68 218.68 2.81667C220.516 0.953333 223.335 0.0433333 227.05 0.0433333L235.633 0V4.33333H227.178C225.171 4.46333 223.762 4.98333 222.822 5.98Z" fill="white"/>
</svg>
