<svg width="21" height="26" viewBox="0 0 21 26" fill="none" xmlns="http://www.w3.org/2000/svg">
<path d="M18.3125 13.0069C18.3125 13.8955 18.1656 14.7509 17.8969 15.5481L16.625 14.2657C16.7082 13.8513 16.7501 13.4297 16.75 13.0069V11.4315C16.75 11.2225 16.8323 11.0222 16.9788 10.8744C17.1253 10.7267 17.324 10.6437 17.5312 10.6437C17.7385 10.6437 17.9372 10.7267 18.0837 10.8744C18.2302 11.0222 18.3125 11.2225 18.3125 11.4315V13.0069ZM10.5 19.3087C11.7781 19.3087 12.9656 18.9227 13.9563 18.2579L15.0781 19.3906C13.9627 20.2062 12.6524 20.708 11.2812 20.8448V24.035H15.9688C16.176 24.035 16.3747 24.118 16.5212 24.2658C16.6677 24.4135 16.75 24.6139 16.75 24.8228C16.75 25.0317 16.6677 25.232 16.5212 25.3798C16.3747 25.5275 16.176 25.6105 15.9688 25.6105H5.03125C4.82405 25.6105 4.62534 25.5275 4.47882 25.3798C4.33231 25.232 4.25 25.0317 4.25 24.8228C4.25 24.6139 4.33231 24.4135 4.47882 24.2658C4.62534 24.118 4.82405 24.035 5.03125 24.035H9.71875V20.8448C7.79169 20.6495 6.00527 19.7394 4.70606 18.2912C3.40685 16.8429 2.68748 14.9597 2.6875 13.0069V11.4315C2.6875 11.2225 2.76981 11.0222 2.91632 10.8744C3.06284 10.7267 3.26155 10.6437 3.46875 10.6437C3.67595 10.6437 3.87466 10.7267 4.02118 10.8744C4.16769 11.0222 4.25 11.2225 4.25 11.4315V13.0069C4.25 14.6782 4.90848 16.2811 6.08058 17.4629C7.25268 18.6448 8.8424 19.3087 10.5 19.3087ZM15.1875 5.12966V12.8163L13.625 11.2408V5.12966C13.6286 4.30768 13.3135 3.51682 12.7469 2.92582C12.1803 2.33481 11.4071 1.99044 10.5922 1.96618C9.77737 1.94193 8.98536 2.2397 8.38518 2.79598C7.785 3.35226 7.42418 4.123 7.37969 4.94375L6.05938 3.6125C6.4171 2.5526 7.13625 1.65509 8.0888 1.07976C9.04136 0.504417 10.1655 0.288583 11.2611 0.47068C12.3567 0.652776 13.3527 1.22098 14.0717 2.07415C14.7907 2.92732 15.1861 4.01007 15.1875 5.12966Z" fill="black"/>
<path d="M12.8223 17.1141L11.6535 15.9357C11.1795 16.1255 10.6666 16.1953 10.1596 16.1393C9.65263 16.0832 9.16696 15.9028 8.74501 15.614C8.32305 15.3251 7.97763 14.9365 7.73889 14.4821C7.50015 14.0276 7.37535 13.5212 7.37539 13.0069V11.6237L5.81289 10.0482V13.0069C5.81265 13.8345 6.02794 14.6477 6.43723 15.3651C6.84652 16.0825 7.43545 16.6789 8.14513 17.0947C8.8548 17.5106 9.66033 17.7312 10.4811 17.7346C11.3019 17.738 12.1092 17.5241 12.8223 17.1141ZM0.572266 2.5365L19.3223 21.4419L20.4285 20.3265L1.67852 1.42108L0.572266 2.5365Z" fill="black"/>
</svg>
