<svg width="20" height="20" viewBox="0 0 20 20" fill="none" xmlns="http://www.w3.org/2000/svg">
<g clip-path="url(#clip0_389_3523)">
<path d="M20 7.86971V13.786H18.328V10.6991H1.672V13.786H0V7.86971H20Z" fill="white"/>
<path d="M5.33751 7.54828C3.92265 7.54828 3.92265 5.49037 5.33751 5.49037C7.20245 5.49037 10.8681 5.42608 12.5401 5.49037L14.0835 3.94694C14.4693 3.56111 15.1124 3.6254 15.3697 4.13991L17.0417 6.96948C17.4918 7.80554 16.2056 8.51291 15.7555 7.67685L14.6623 5.74762L13.1832 7.16248C13.0546 7.35545 12.7331 7.54831 12.4115 7.54831L5.33751 7.54828Z" fill="white"/>
<path fill-rule="evenodd" clip-rule="evenodd" d="M4.244 6.00485C4.244 6.75071 3.63931 7.35542 2.89342 7.35542C2.14757 7.35542 1.54297 6.75074 1.54297 6.00485C1.54297 5.25897 2.14754 4.6544 2.89342 4.6544C3.63928 4.6544 4.244 5.25897 4.244 6.00485Z" fill="white"/>
</g>
<defs>
<clipPath id="clip0_389_3523">
<rect width="20" height="20" fill="white"/>
</clipPath>
</defs>
</svg>
