<svg width="20" height="20" viewBox="0 0 20 20" fill="none" xmlns="http://www.w3.org/2000/svg">
<path fill-rule="evenodd" clip-rule="evenodd" d="M13.3327 7.50002C13.3327 8.38408 12.9815 9.23192 12.3564 9.85704C11.7313 10.4822 10.8834 10.8334 9.99935 10.8334C9.11529 10.8334 8.26745 10.4822 7.64233 9.85704C7.0172 9.23192 6.66602 8.38408 6.66602 7.50002C6.66602 6.61597 7.0172 5.76812 7.64233 5.143C8.26745 4.51788 9.11529 4.16669 9.99935 4.16669C10.8834 4.16669 11.7313 4.51788 12.3564 5.143C12.9815 5.76812 13.3327 6.61597 13.3327 7.50002ZM11.666 7.50002C11.666 7.94205 11.4904 8.36597 11.1779 8.67853C10.8653 8.99109 10.4414 9.16669 9.99935 9.16669C9.55732 9.16669 9.1334 8.99109 8.82084 8.67853C8.50828 8.36597 8.33268 7.94205 8.33268 7.50002C8.33268 7.05799 8.50828 6.63407 8.82084 6.32151C9.1334 6.00895 9.55732 5.83335 9.99935 5.83335C10.4414 5.83335 10.8653 6.00895 11.1779 6.32151C11.4904 6.63407 11.666 7.05799 11.666 7.50002Z" fill="white"/>
<path fill-rule="evenodd" clip-rule="evenodd" d="M9.99967 0.833344C4.93717 0.833344 0.833008 4.93751 0.833008 10C0.833008 15.0625 4.93717 19.1667 9.99967 19.1667C15.0622 19.1667 19.1663 15.0625 19.1663 10C19.1663 4.93751 15.0622 0.833344 9.99967 0.833344ZM2.49967 10C2.49967 11.7417 3.09384 13.345 4.08967 14.6183C4.78903 13.6999 5.69126 12.9556 6.72587 12.4436C7.76048 11.9316 8.89946 11.6657 10.0538 11.6667C11.1933 11.6656 12.3179 11.9246 13.3421 12.424C14.3663 12.9234 15.263 13.6499 15.9638 14.5483C16.6859 13.6013 17.172 12.496 17.3821 11.3238C17.5921 10.1516 17.52 8.94629 17.1718 7.8075C16.8235 6.6687 16.209 5.62922 15.3792 4.77504C14.5495 3.92087 13.5282 3.27656 12.4 2.89543C11.2718 2.51431 10.069 2.40732 8.89122 2.58332C7.71344 2.75932 6.5945 3.21325 5.62698 3.90755C4.65946 4.60186 3.87118 5.51657 3.32737 6.57601C2.78355 7.63544 2.49982 8.80915 2.49967 10ZM9.99967 17.5C8.27797 17.5026 6.60823 16.9103 5.27301 15.8233C5.81045 15.054 6.52579 14.4258 7.35817 13.9922C8.19055 13.5587 9.11533 13.3327 10.0538 13.3333C10.9806 13.3326 11.8942 13.553 12.7188 13.9762C13.5433 14.3994 14.255 15.0132 14.7947 15.7667C13.4491 16.8889 11.7518 17.5025 9.99967 17.5Z" fill="white"/>
</svg>
