<svg width="11" height="14" viewBox="0 0 11 14" fill="none" xmlns="http://www.w3.org/2000/svg">
<path d="M3.58304 10.8709C3.70554 10.7992 3.83941 10.7292 3.98466 10.6627C3.86196 10.8456 3.73056 11.0226 3.59091 11.1929C3.34591 11.4878 3.15516 11.6444 3.03529 11.6934C3.02534 11.6976 3.0151 11.7011 3.00466 11.7039C2.99593 11.6918 2.98832 11.6789 2.98191 11.6654C2.93291 11.5692 2.93466 11.4764 3.01691 11.3504C3.10966 11.206 3.29604 11.0407 3.58304 10.8709ZM5.73116 9.42978C5.62704 9.45166 5.52379 9.47353 5.41966 9.49803C5.57389 9.19585 5.71978 8.88949 5.85716 8.57928C5.99548 8.83559 6.14435 9.08606 6.30341 9.33003C6.11354 9.35803 5.92191 9.39128 5.73116 9.42978ZM7.94054 10.2514C7.80463 10.1418 7.67738 10.0218 7.55991 9.89266C7.75941 9.89703 7.93966 9.91191 8.09541 9.93991C8.37279 9.98978 8.50316 10.0685 8.54866 10.1228C8.563 10.1379 8.57113 10.1579 8.57141 10.1788C8.56835 10.2405 8.55033 10.3006 8.51891 10.3538C8.50127 10.3964 8.47294 10.4338 8.43666 10.4623C8.4186 10.4734 8.39732 10.478 8.37629 10.4754C8.29754 10.4728 8.15054 10.4177 7.94054 10.2514ZM5.99366 6.09866C5.95866 6.31216 5.89916 6.55716 5.81866 6.82403C5.789 6.72411 5.76303 6.62312 5.74079 6.52128C5.67429 6.21241 5.66466 5.97003 5.70054 5.80203C5.73379 5.64716 5.79679 5.58503 5.87204 5.55441C5.9124 5.53662 5.95514 5.52483 5.99891 5.51941C6.01029 5.54566 6.02341 5.59991 6.02691 5.69266C6.03129 5.79941 6.02079 5.93503 5.99366 6.09953V6.09866Z" fill="#FBFFFF"/>
<path fill-rule="evenodd" clip-rule="evenodd" d="M2.25 0H6.88138C7.11342 4.95577e-05 7.33594 0.0922693 7.5 0.256375L10.7436 3.5C10.9077 3.66406 11 3.88658 11 4.11862V12.25C11 12.7141 10.8156 13.1592 10.4874 13.4874C10.1592 13.8156 9.71413 14 9.25 14H2.25C1.78587 14 1.34075 13.8156 1.01256 13.4874C0.684374 13.1592 0.5 12.7141 0.5 12.25V1.75C0.5 1.28587 0.684374 0.840752 1.01256 0.512563C1.34075 0.184374 1.78587 0 2.25 0V0ZM7.0625 1.3125V3.0625C7.0625 3.29456 7.15469 3.51712 7.31878 3.68122C7.48288 3.84531 7.70544 3.9375 7.9375 3.9375H9.6875L7.0625 1.3125ZM2.39437 11.9595C2.47312 12.117 2.59563 12.2596 2.77763 12.3261C2.95875 12.3918 3.13813 12.3611 3.28513 12.2999C3.56337 12.1861 3.84075 11.9184 4.09538 11.6121C4.38675 11.2612 4.693 10.801 4.98875 10.2909C5.55971 10.1216 6.14441 10.0028 6.73612 9.93563C6.99862 10.2708 7.26987 10.5595 7.53237 10.7669C7.77737 10.9594 8.06 11.1195 8.34962 11.1318C8.50739 11.1396 8.66358 11.0973 8.79587 11.011C8.9315 10.9226 9.03213 10.7949 9.10563 10.647C9.18437 10.4886 9.2325 10.3232 9.22637 10.1544C9.22083 9.98788 9.15916 9.82815 9.05137 9.70113C8.85362 9.46488 8.52987 9.35112 8.21137 9.29425C7.82501 9.23441 7.433 9.21973 7.04325 9.2505C6.71413 8.78522 6.42716 8.29152 6.18575 7.77525C6.4045 7.19775 6.56812 6.65175 6.64075 6.2055C6.67225 6.01475 6.68888 5.83275 6.68275 5.66825C6.68166 5.50496 6.64367 5.34404 6.57163 5.1975C6.53011 5.11663 6.47112 5.04601 6.39893 4.99077C6.32674 4.93553 6.24316 4.89705 6.15425 4.87812C5.9775 4.8405 5.7955 4.87813 5.62838 4.9455C5.2985 5.07675 5.12437 5.35675 5.05875 5.66563C4.99487 5.96312 5.02375 6.30963 5.099 6.65963C5.176 7.01487 5.30725 7.40163 5.47525 7.79275C5.20653 8.46107 4.89617 9.11189 4.546 9.74137C4.09506 9.88326 3.66039 10.0724 3.24925 10.3057C2.9255 10.4983 2.63762 10.7257 2.46437 10.9944C2.28062 11.2796 2.22375 11.6191 2.39437 11.9595Z" fill="#FBFFFF"/>
</svg>
