<svg width="37" height="37" viewBox="0 0 37 37" fill="none" xmlns="http://www.w3.org/2000/svg">
<g filter="url(#filter0_d_352_16)">
<circle cx="18.5" cy="18.5" r="13.5" fill="url(#paint0_linear_352_16)"/>
</g>
<path d="M16.0826 22.8709C16.2051 22.7992 16.339 22.7292 16.4842 22.6627C16.3615 22.8456 16.2301 23.0226 16.0905 23.1929C15.8455 23.4878 15.6547 23.6444 15.5349 23.6934C15.5249 23.6976 15.5147 23.7011 15.5042 23.7039C15.4955 23.6918 15.4879 23.6789 15.4815 23.6654C15.4325 23.5692 15.4342 23.4764 15.5165 23.3504C15.6092 23.206 15.7956 23.0407 16.0826 22.8709ZM18.2307 21.4298C18.1266 21.4517 18.0234 21.4735 17.9192 21.498C18.0735 21.1959 18.2194 20.8895 18.3567 20.5793C18.495 20.8356 18.6439 21.0861 18.803 21.33C18.6131 21.358 18.4215 21.3913 18.2307 21.4298ZM20.4401 22.2514C20.3042 22.1418 20.1769 22.0218 20.0595 21.8927C20.259 21.897 20.4392 21.9119 20.595 21.9399C20.8724 21.9898 21.0027 22.0685 21.0482 22.1228C21.0626 22.1379 21.0707 22.1579 21.071 22.1788C21.0679 22.2405 21.0499 22.3006 21.0185 22.3538C21.0008 22.3964 20.9725 22.4338 20.9362 22.4623C20.9182 22.4734 20.8969 22.478 20.8759 22.4754C20.7971 22.4728 20.6501 22.4177 20.4401 22.2514ZM18.4932 18.0987C18.4582 18.3122 18.3987 18.5572 18.3182 18.824C18.2886 18.7241 18.2626 18.6231 18.2404 18.5213C18.1739 18.2124 18.1642 17.97 18.2001 17.802C18.2334 17.6472 18.2964 17.585 18.3716 17.5544C18.412 17.5366 18.4547 17.5248 18.4985 17.5194C18.5099 17.5457 18.523 17.5999 18.5265 17.6927C18.5309 17.7994 18.5204 17.935 18.4932 18.0995V18.0987Z" fill="#FBFFFF"/>
<path fill-rule="evenodd" clip-rule="evenodd" d="M14.75 12H19.3814C19.6134 12 19.8359 12.0923 20 12.2564L23.2436 15.5C23.4077 15.6641 23.5 15.8866 23.5 16.1186V24.25C23.5 24.7141 23.3156 25.1592 22.9874 25.4874C22.6592 25.8156 22.2141 26 21.75 26H14.75C14.2859 26 13.8408 25.8156 13.5126 25.4874C13.1844 25.1592 13 24.7141 13 24.25V13.75C13 13.2859 13.1844 12.8408 13.5126 12.5126C13.8408 12.1844 14.2859 12 14.75 12V12ZM19.5625 13.3125V15.0625C19.5625 15.2946 19.6547 15.5171 19.8188 15.6812C19.9829 15.8453 20.2054 15.9375 20.4375 15.9375H22.1875L19.5625 13.3125ZM14.8944 23.9595C14.9731 24.117 15.0956 24.2596 15.2776 24.3261C15.4588 24.3917 15.6381 24.3611 15.7851 24.2999C16.0634 24.1861 16.3408 23.9184 16.5954 23.6121C16.8868 23.2612 17.193 22.801 17.4888 22.2909C18.0597 22.1216 18.6444 22.0028 19.2361 21.9356C19.4986 22.2707 19.7699 22.5595 20.0324 22.7669C20.2774 22.9594 20.56 23.1195 20.8496 23.1318C21.0074 23.1396 21.1636 23.0973 21.2959 23.011C21.4315 22.9226 21.5321 22.7949 21.6056 22.647C21.6844 22.4886 21.7325 22.3232 21.7264 22.1544C21.7208 21.9879 21.6592 21.8281 21.5514 21.7011C21.3536 21.4649 21.0299 21.3511 20.7114 21.2942C20.325 21.2344 19.933 21.2197 19.5432 21.2505C19.2141 20.7852 18.9272 20.2915 18.6858 19.7752C18.9045 19.1977 19.0681 18.6517 19.1407 18.2055C19.1722 18.0148 19.1889 17.8328 19.1827 17.6683C19.1817 17.505 19.1437 17.344 19.0716 17.1975C19.0301 17.1166 18.9711 17.046 18.8989 16.9908C18.8267 16.9355 18.7432 16.8971 18.6542 16.8781C18.4775 16.8405 18.2955 16.8781 18.1284 16.9455C17.7985 17.0767 17.6244 17.3567 17.5588 17.6656C17.4949 17.9631 17.5238 18.3096 17.599 18.6596C17.676 19.0149 17.8072 19.4016 17.9752 19.7928C17.7065 20.4611 17.3962 21.1119 17.046 21.7414C16.5951 21.8833 16.1604 22.0724 15.7493 22.3057C15.4255 22.4982 15.1376 22.7257 14.9644 22.9944C14.7806 23.2796 14.7237 23.6191 14.8944 23.9595V23.9595Z" fill="#FBFFFF"/>
<defs>
<filter id="filter0_d_352_16" x="0" y="0" width="37" height="37" filterUnits="userSpaceOnUse" color-interpolation-filters="sRGB">
<feFlood flood-opacity="0" result="BackgroundImageFix"/>
<feColorMatrix in="SourceAlpha" type="matrix" values="0 0 0 0 0 0 0 0 0 0 0 0 0 0 0 0 0 0 127 0" result="hardAlpha"/>
<feOffset/>
<feGaussianBlur stdDeviation="2.5"/>
<feComposite in2="hardAlpha" operator="out"/>
<feColorMatrix type="matrix" values="0 0 0 0 0 0 0 0 0 0 0 0 0 0 0 0 0 0 0.2 0"/>
<feBlend mode="normal" in2="BackgroundImageFix" result="effect1_dropShadow_352_16"/>
<feBlend mode="normal" in="SourceGraphic" in2="effect1_dropShadow_352_16" result="shape"/>
</filter>
<linearGradient id="paint0_linear_352_16" x1="7" y1="5" x2="33.5" y2="32" gradientUnits="userSpaceOnUse">
<stop stop-color="#235D7D"/>
<stop offset="1" stop-color="#32909A"/>
</linearGradient>
</defs>
</svg>
