<svg width="12" height="15" viewBox="0 0 12 15" fill="none" xmlns="http://www.w3.org/2000/svg">
<g clip-path="url(#clip0_347_1289)">
<path d="M10.5067 1.78249H8.78871V2.54561H10.5114C10.948 2.54561 11.302 2.87749 11.302 3.28686V13.5C11.302 13.91 10.9474 14.2419 10.5107 14.2419H1.60071C1.49679 14.2419 1.39389 14.2227 1.29788 14.1854C1.20187 14.1481 1.11464 14.0935 1.04116 14.0246C0.967674 13.9557 0.909385 13.8739 0.869617 13.7839C0.829849 13.6939 0.80938 13.5974 0.80938 13.5V3.28686C0.80938 2.87686 1.16405 2.54499 1.60071 2.54499H3.32338V1.78249H1.60538C1.17914 1.78265 0.770414 1.94146 0.469019 2.22402C0.167624 2.50658 -0.00177645 2.88976 -0.00195312 3.28936V13.4931C-0.00159983 13.8926 0.167878 14.2756 0.469254 14.558C0.770631 14.8405 1.17926 14.9992 1.60538 14.9994H10.506C10.9323 14.9992 11.341 14.8404 11.6424 14.5578C11.9438 14.2753 12.1132 13.8921 12.1134 13.4925V3.28874C12.1132 2.88914 11.9438 2.50595 11.6424 2.2234C11.341 1.94084 10.9323 1.78203 10.506 1.78186L10.5067 1.78249Z" fill="white"/>
<path d="M8.40329 1.39062H7.52395C7.52395 1.02181 7.36767 0.668097 7.08949 0.407305C6.81132 0.146512 6.43402 0 6.04062 0C5.64722 0 5.26992 0.146512 4.99174 0.407305C4.71357 0.668097 4.55729 1.02181 4.55729 1.39062H3.68395V3.30125H8.39929V1.39062H8.40329ZM6.89795 1.39062H5.18462V1.37062C5.18462 1.15746 5.27495 0.95302 5.43573 0.802288C5.59651 0.651555 5.81457 0.566875 6.04195 0.566875C6.26933 0.566875 6.4874 0.651555 6.64818 0.802288C6.80896 0.95302 6.89929 1.15746 6.89929 1.37062V1.39187V1.39062H6.89795ZM3.96462 5.32H10.27V6.05125H3.96462V5.32ZM3.96462 8.38125H10.27V9.1125H3.96462V8.38125ZM3.96462 11.4062H10.27V12.1412H3.96462V11.4062ZM1.75195 4.84812H3.53862V6.52312H1.75195V4.84812ZM1.75195 7.90937H3.53862V9.58437H1.75195V7.90937ZM1.75195 10.9356H3.53862V12.6106H1.75195V10.9356Z" fill="white"/>
</g>
<defs>
<clipPath id="clip0_347_1289">
<rect width="12" height="15" fill="white"/>
</clipPath>
</defs>
</svg>
