<svg width="17" height="17" viewBox="0 0 17 17" fill="none" xmlns="http://www.w3.org/2000/svg">
<path d="M11.2353 16.3917C7.87439 16.3917 4.5129 16.3917 1.15199 16.3917C1.06874 16.2978 0.940015 16.3108 0.838456 16.2582C0.263347 15.9618 -0.000589473 15.4847 9.88431e-07 14.8465C0.00059145 10.4139 0.000591463 5.98127 0.000591463 1.54868C0.000591463 1.51679 9.59153e-07 1.48491 0.00118188 1.45243C0.0259812 0.622836 0.629433 0.00698528 1.45785 0.00462343C4.19405 -0.00305256 6.93024 0.000490178 9.66644 0.00344248C10.0231 0.00403294 10.3549 0.104411 10.6171 0.355948C11.0711 0.791708 11.5105 1.24223 11.9633 1.67858C12.3217 2.024 12.4912 2.43496 12.4871 2.93449C12.4782 4.09711 12.4841 5.26032 12.4841 6.42294C12.4841 6.47313 12.4841 6.52391 12.4841 6.57409C12.4989 6.58236 12.5136 6.59063 12.5284 6.59889C12.5591 6.55638 12.5839 6.50855 12.6205 6.47194C13.0451 6.04445 13.4672 5.61401 13.8983 5.19301C14.6535 4.45552 15.783 4.64388 16.2542 5.57681C16.3109 5.68899 16.3085 5.82185 16.3888 5.924C16.3888 6.10527 16.3888 6.28654 16.3888 6.4684C16.3552 6.47194 16.3475 6.4997 16.3416 6.5245C16.2625 6.86578 16.0476 7.1185 15.8066 7.35823C14.7308 8.4311 13.6591 9.50751 12.5827 10.5798C12.5083 10.6542 12.4818 10.7274 12.4818 10.8301C12.4847 12.1788 12.4841 13.5274 12.4835 14.876C12.4835 15.3607 12.3141 15.7658 11.932 16.0787C11.726 16.247 11.4809 16.3155 11.2353 16.3917ZM11.524 11.6432C11.4142 11.7566 11.3109 11.8074 11.1981 11.8446C10.5722 12.0518 9.94573 12.2579 9.32161 12.4704C9.11318 12.5413 8.91892 12.5401 8.75654 12.3807C8.58885 12.216 8.58649 12.0187 8.6597 11.8038C8.87227 11.1797 9.07834 10.5532 9.285 9.92673C9.32752 9.79683 9.39896 9.68996 9.4958 9.59371C10.1424 8.95011 10.7854 8.30297 11.4325 7.66054C11.4981 7.595 11.5258 7.53182 11.5252 7.43912C11.5223 6.28713 11.5205 5.13455 11.527 3.98256C11.5276 3.85384 11.4845 3.83967 11.3746 3.84026C10.6708 3.84498 9.9664 3.84262 9.26257 3.84262C8.80378 3.84262 8.64258 3.67965 8.64258 3.21496C8.64258 2.51585 8.64022 1.81734 8.64494 1.11823C8.64553 1.00368 8.63018 0.957037 8.49497 0.957628C6.16914 0.962352 3.84331 0.96117 1.51749 0.96117C1.14431 0.96117 0.960091 1.14717 0.960091 1.5227C0.960091 5.97182 0.960091 10.4204 0.960091 14.8695C0.960091 15.2444 1.14491 15.4298 1.51808 15.4298C4.66523 15.4304 7.81239 15.4304 10.9596 15.4298C11.3422 15.4298 11.5223 15.2462 11.5229 14.8583C11.5234 13.8444 11.5229 12.8312 11.5229 11.8174C11.524 11.7719 11.524 11.7253 11.524 11.6432ZM14.1049 7.69774C14.0914 7.67944 14.0801 7.66054 14.0654 7.64578C13.8699 7.44916 13.6727 7.2549 13.479 7.05709C13.4241 7.001 13.3999 7.04646 13.3675 7.07894C12.6441 7.80284 11.922 8.52793 11.1969 9.25006C11.1355 9.31088 11.1414 9.34336 11.2005 9.40004C11.3776 9.5695 11.5524 9.74192 11.7201 9.92083C11.788 9.99345 11.824 9.99109 11.8937 9.92083C12.6063 9.20165 13.3238 8.48601 14.0394 7.76978C14.0607 7.74675 14.0813 7.72313 14.1049 7.69774ZM10.5799 2.88253C10.8196 2.88253 11.0593 2.88253 11.2991 2.88253C11.5435 2.88253 11.586 2.81286 11.4715 2.59025C11.4425 2.53416 11.4024 2.48161 11.3581 2.43732C10.9224 1.9992 10.4854 1.56285 10.0473 1.1265C9.95459 1.0338 9.84476 0.974751 9.71073 0.962351C9.6316 0.955266 9.6009 0.972389 9.60149 1.06214C9.60562 1.63193 9.60562 2.20173 9.60149 2.77212C9.6009 2.86482 9.62924 2.88666 9.71722 2.88489C10.0048 2.87899 10.2923 2.88253 10.5799 2.88253ZM14.9522 5.69844C14.8519 5.69549 14.7539 5.71852 14.6824 5.78288C14.5005 5.94702 14.3293 6.12298 14.1522 6.29185C14.1114 6.33082 14.1351 6.35444 14.1628 6.38219C14.3553 6.57409 14.5478 6.76659 14.7391 6.95967C14.7733 6.9945 14.7993 7.01104 14.8418 6.96616C15.0036 6.79611 15.1772 6.63727 15.329 6.45895C15.4524 6.3137 15.4612 6.13774 15.3744 5.96474C15.2876 5.79173 15.1412 5.71025 14.9522 5.69844ZM9.84771 11.2813C10.1943 11.1655 10.5167 11.0634 10.8344 10.9488C10.946 10.9087 11.0062 10.7941 11.0924 10.7156C11.1349 10.6766 11.0942 10.65 11.0694 10.6252C10.881 10.4363 10.6927 10.2485 10.5037 10.0602C10.4789 10.0354 10.4523 9.99464 10.4134 10.0377C10.3354 10.1239 10.2209 10.1842 10.1801 10.2964C10.0662 10.6134 9.96344 10.9352 9.84771 11.2813Z" fill="white"/>
<path d="M5.77927 4.80316C6.88284 4.80316 7.98642 4.80139 9.08999 4.80434C9.46493 4.80552 9.70584 5.14149 9.5659 5.46625C9.48205 5.66051 9.32558 5.76089 9.11361 5.76266C8.79889 5.76561 8.48477 5.76384 8.17005 5.76384C6.28825 5.76384 4.40586 5.76384 2.52406 5.76325C2.44966 5.76325 2.37349 5.7662 2.30146 5.75026C2.05878 5.69771 1.89817 5.47097 1.92474 5.23124C1.9519 4.98974 2.14853 4.80847 2.4042 4.80493C2.83051 4.79962 3.25741 4.80316 3.68373 4.80316C4.38224 4.80316 5.08076 4.80316 5.77927 4.80316Z" fill="white"/>
<path d="M4.80074 7.68422C4.00657 7.68422 3.2124 7.68481 2.41823 7.68363C2.20566 7.68363 2.04742 7.58502 1.9618 7.39312C1.88091 7.21185 1.91398 7.03825 2.04447 6.88709C2.14071 6.77609 2.26589 6.72413 2.41174 6.72413C4.00539 6.72354 5.59905 6.72236 7.19329 6.72531C7.47671 6.7259 7.68455 6.93965 7.6816 7.2089C7.67924 7.47697 7.47022 7.68186 7.18325 7.68304C6.38967 7.68658 5.59491 7.68422 4.80074 7.68422Z" fill="white"/>
<path d="M4.80257 9.60501C4.0084 9.60501 3.21423 9.6056 2.42006 9.60501C2.20749 9.60501 2.04925 9.50759 1.96245 9.31569C1.88097 9.13501 1.91344 8.96082 2.04335 8.80966C2.139 8.69865 2.26418 8.64551 2.41002 8.64551C4.00368 8.64492 5.59733 8.64374 7.19158 8.64669C7.47618 8.64728 7.68343 8.85985 7.68166 9.12851C7.67989 9.39717 7.47146 9.60265 7.18508 9.60383C6.39091 9.60738 5.59674 9.60501 4.80257 9.60501Z" fill="white"/>
<path d="M4.80043 10.5657C5.58929 10.5657 6.37815 10.5639 7.167 10.5669C7.54253 10.5681 7.78403 10.9023 7.64468 11.227C7.55552 11.4355 7.38606 11.527 7.16169 11.5264C6.31438 11.5252 5.46647 11.5258 4.61916 11.5258C3.88876 11.5258 3.15836 11.5282 2.42855 11.5246C2.06306 11.5229 1.82805 11.1934 1.95441 10.8716C2.03117 10.6761 2.20536 10.5663 2.44922 10.5657C3.23335 10.5645 4.01689 10.5657 4.80043 10.5657Z" fill="white"/>
<path d="M7.68279 13.5103C8.1463 13.5103 8.60981 13.5091 9.07332 13.5109C9.38568 13.5121 9.60061 13.7063 9.60297 13.9856C9.60592 14.2661 9.39099 14.4692 9.08277 14.4698C8.14512 14.4716 7.20747 14.4727 6.26922 14.4692C5.90432 14.468 5.66991 14.1374 5.79626 13.8156C5.87125 13.6243 6.04426 13.5115 6.27572 13.5103C6.74455 13.5091 7.21337 13.5103 7.68279 13.5103Z" fill="white"/>
</svg>
