<svg width="20" height="20" viewBox="0 0 20 20" fill="none" xmlns="http://www.w3.org/2000/svg">
<path d="M7.50033 4.16666H5.83366C5.39163 4.16666 4.96771 4.34225 4.65515 4.65481C4.34259 4.96737 4.16699 5.3913 4.16699 5.83332V15.8333C4.16699 16.2754 4.34259 16.6993 4.65515 17.0118C4.96771 17.3244 5.39163 17.5 5.83366 17.5H14.167C14.609 17.5 15.0329 17.3244 15.3455 17.0118C15.6581 16.6993 15.8337 16.2754 15.8337 15.8333V5.83332C15.8337 5.3913 15.6581 4.96737 15.3455 4.65481C15.0329 4.34225 14.609 4.16666 14.167 4.16666H12.5003" stroke="white" stroke-width="2" stroke-linecap="round" stroke-linejoin="round"/>
<path d="M10.8333 2.5H9.16667C8.24619 2.5 7.5 3.24619 7.5 4.16667C7.5 5.08714 8.24619 5.83333 9.16667 5.83333H10.8333C11.7538 5.83333 12.5 5.08714 12.5 4.16667C12.5 3.24619 11.7538 2.5 10.8333 2.5Z" stroke="white" stroke-width="2" stroke-linecap="round" stroke-linejoin="round"/>
<path d="M10.0007 10V13.3333M8.33398 11.6667H11.6673H8.33398Z" stroke="white" stroke-width="2" stroke-linecap="round" stroke-linejoin="round"/>
</svg>
