<svg width="351" height="311" viewBox="0 0 351 311" fill="none" xmlns="http://www.w3.org/2000/svg">
<g clip-path="url(#clip0_389_2969)">
<path d="M272.146 106.793C272.146 106.793 271.08 101.623 273.744 94.9371C276.408 88.2514 280.848 90.2126 278.806 97.5223C276.764 104.832 272.146 106.793 272.146 106.793Z" fill="#18203C"/>
<path d="M268.683 115.797C268.683 115.797 275.076 106.793 280.937 106.704C286.798 106.526 276.053 116.866 268.683 115.797Z" fill="#18203C"/>
<path d="M265.396 124.8C265.396 124.8 272.944 118.382 278.006 119.095C283.156 119.808 273.832 127.207 265.396 124.8Z" fill="#18203C"/>
<path d="M262.467 133.536C262.467 133.536 273.478 127.029 277.474 130.773C281.381 134.338 266.907 136.923 262.467 133.536Z" fill="#18203C"/>
<path d="M260.069 140.489C259.98 140.4 271.169 137.191 275.165 140.4C279.161 143.52 265.752 146.462 260.069 140.489Z" fill="#18203C"/>
<path d="M257.76 147.621C257.76 147.621 270.636 146.194 271.524 150.83C272.412 155.465 261.578 153.682 257.76 147.621Z" fill="#18203C"/>
<path d="M268.771 115.886C268.771 115.886 269.304 104.832 264.775 101.088C260.335 97.4331 262.377 112.142 268.771 115.886Z" fill="#18203C"/>
<path d="M265.485 124.889C265.485 124.889 263.532 115.173 259.092 112.587C254.652 110.002 257.316 121.502 265.485 124.889Z" fill="#18203C"/>
<path d="M262.466 133.536C262.466 133.536 257.848 121.591 252.432 122.037C247.015 122.393 256.783 133.447 262.466 133.536Z" fill="#18203C"/>
<path d="M260.069 140.489C260.157 140.489 253.409 131.04 248.347 131.04C243.197 131.04 251.899 141.648 260.069 140.489Z" fill="#18203C"/>
<path d="M257.76 147.71C257.76 147.71 248.525 138.617 244.973 141.648C241.332 144.768 251.011 150.027 257.76 147.71Z" fill="#18203C"/>
<path d="M254.474 159.566C254.474 159.566 254.652 159.031 254.918 158.139C256.872 151.543 265.308 123.909 274.898 101.177C274.987 100.999 274.898 100.821 274.721 100.731C274.543 100.642 274.277 100.731 274.277 100.91C263.354 126.939 253.853 159.387 253.853 159.387C253.764 159.566 253.942 159.744 254.119 159.833C254.208 159.922 254.386 159.744 254.474 159.566Z" fill="#18203C"/>
<path d="M309.353 123.017C309.353 123.017 309.708 117.936 313.97 112.409C318.233 106.882 321.873 109.913 318.055 116.153C314.148 122.482 309.353 123.017 309.353 123.017Z" fill="#6DA1A3"/>
<path d="M303.67 130.505C303.67 130.505 312.017 123.819 317.523 125.335C322.939 126.761 310.241 133.447 303.67 130.505Z" fill="#6DA1A3"/>
<path d="M298.253 137.993C298.253 137.993 306.955 134.071 311.573 136.032C316.102 138.082 305.446 142.539 298.253 137.993Z" fill="#6DA1A3"/>
<path d="M293.191 145.392C293.191 145.392 305.179 142.272 307.932 146.818C310.596 151.275 296.388 149.76 293.191 145.392Z" fill="#6DA1A3"/>
<path d="M289.106 151.186C289.106 151.097 300.295 151.097 303.226 155.109C306.067 159.12 292.836 158.318 289.106 151.186Z" fill="#6DA1A3"/>
<path d="M285.021 157.248C285.021 157.248 297.365 159.387 297.009 163.934C296.654 168.569 286.975 163.934 285.021 157.248Z" fill="#6DA1A3"/>
<path d="M303.758 130.683C303.758 130.683 307.132 120.521 303.935 115.886C300.739 111.161 298.785 125.424 303.758 130.683Z" fill="#6DA1A3"/>
<path d="M298.253 138.171C298.253 138.171 299.052 128.633 295.589 124.978C292.214 121.323 291.593 132.823 298.253 138.171Z" fill="#6DA1A3"/>
<path d="M293.191 145.392C293.191 145.392 292.037 133.09 286.887 132.021C281.736 130.862 287.952 143.787 293.191 145.392Z" fill="#6DA1A3"/>
<path d="M289.107 151.186C289.195 151.186 285.466 140.578 280.671 139.241C275.964 137.904 281.115 150.117 289.107 151.186Z" fill="#6DA1A3"/>
<path d="M285.022 157.337C285.022 157.337 278.806 146.373 274.721 148.334C270.547 150.117 278.095 157.694 285.022 157.337Z" fill="#6DA1A3"/>
<path d="M278.539 167.321C278.539 167.321 295.944 139.687 313.082 118.382" stroke="#518D8C" stroke-miterlimit="10" stroke-linecap="round" stroke-linejoin="round"/>
<path d="M224.016 102.069C224.016 102.069 221.086 98.1463 220.642 91.3714C220.198 84.5966 224.727 84.5074 225.97 91.5497C227.213 98.592 224.016 102.069 224.016 102.069Z" fill="#6DA1A3"/>
<path d="M224.638 111.161C224.638 111.161 226.502 100.999 231.386 98.5028C236.27 96.0068 231.298 109.111 224.638 111.161Z" fill="#6DA1A3"/>
<path d="M225.438 120.075C225.438 120.075 229.256 111.607 233.785 110.181C238.402 108.665 233.607 118.738 225.438 120.075Z" fill="#6DA1A3"/>
<path d="M226.414 128.633C226.414 128.633 233.074 118.738 237.958 120.254C242.842 121.769 231.564 129.703 226.414 128.633Z" fill="#6DA1A3"/>
<path d="M227.214 135.497C227.125 135.497 235.206 128.277 239.912 129.346C244.53 130.327 234.495 138.261 227.214 135.497Z" fill="#6DA1A3"/>
<path d="M228.19 142.45C228.19 142.45 238.491 136.032 241.155 139.598C243.73 143.163 233.785 146.016 228.19 142.45Z" fill="#6DA1A3"/>
<path d="M224.815 111.25C224.815 111.25 220.819 101.712 215.491 100.375C210.163 99.0377 217.889 110.626 224.815 111.25Z" fill="#6DA1A3"/>
<path d="M225.615 120.165C225.615 120.165 220.11 112.766 215.314 112.32C210.519 111.874 217.357 120.61 225.615 120.165Z" fill="#6DA1A3"/>
<path d="M226.503 128.633C226.503 128.633 217.8 120.432 213.449 122.928C208.92 125.513 221.708 130.862 226.503 128.633Z" fill="#6DA1A3"/>
<path d="M227.213 135.497C227.302 135.408 217.8 130.238 213.538 132.199C209.276 134.249 220.82 139.776 227.213 135.497Z" fill="#6DA1A3"/>
<path d="M228.19 142.539C228.19 142.539 216.734 138.528 214.958 142.629C213.094 146.64 223.394 147.264 228.19 142.539Z" fill="#6DA1A3"/>
<path d="M229.788 153.95C229.788 153.95 224.816 122.75 223.661 96.3634" stroke="#518D8C" stroke-miterlimit="10" stroke-linecap="round" stroke-linejoin="round"/>
<path d="M170.026 156.446C85.3107 153.237 -24.5349 170.085 -26.3109 224.016C-27.1989 251.294 42.4203 247.015 75.7203 245.678C103.337 244.519 156.883 243.895 172.246 247.282V257.355C172.246 257.712 172.246 257.979 172.246 258.336C172.69 262.169 178.373 265.913 199.152 267.696C236.981 270.905 313.882 260.832 318.055 218.578C322.14 176.325 254.741 159.655 170.026 156.446ZM176.331 248.976L172.246 247.193C174.555 247.728 175.975 248.263 176.331 248.976Z" fill="#C96E00"/>
<path d="M318.233 204.137C318.233 205.207 318.144 206.366 318.055 207.525C313.971 249.778 236.981 259.762 199.152 256.553C161.323 253.344 173.489 243.627 176.331 238.725C179.883 232.663 109.02 233.198 75.7203 234.624C42.5091 235.961 -27.1989 240.329 -26.3109 212.962C-25.2453 179.801 16.8459 160.635 68.7051 151.632C101.117 145.927 137.436 144.233 170.026 145.481C252.432 148.601 318.411 164.379 318.233 204.137Z" fill="#E8BA33"/>
<path opacity="0.3" d="M202.704 211.001C209.009 194.153 176.952 193.44 104.225 198.254C73.5004 200.304 54.3195 197.719 45.8835 191.746C31.0539 191.568 19.2435 188.359 19.2435 184.526C19.2435 180.96 29.1003 178.018 42.1539 177.394C45.3507 170.174 54.4083 161.438 68.7939 151.899V151.721C16.8459 160.814 -25.1565 179.89 -26.2221 213.051C-27.1101 240.329 42.5092 236.05 75.8092 234.624C109.02 233.287 179.972 232.663 176.42 238.725C173.578 243.627 161.501 253.344 199.241 256.553C237.07 259.762 313.971 249.689 318.144 207.435C318.233 206.277 318.322 205.118 318.322 204.048C277.208 239.438 196.4 227.582 202.704 211.001ZM112.839 216.261C102.893 216.261 94.8123 214.21 94.8123 211.625C94.8123 209.04 102.893 206.99 112.839 206.99C122.784 206.99 130.865 209.04 130.865 211.625C130.865 214.21 122.784 216.261 112.839 216.261Z" fill="#D5A435"/>
<path opacity="0.3" d="M238.579 196.471C248.535 196.471 256.606 194.396 256.606 191.835C256.606 189.275 248.535 187.2 238.579 187.2C228.623 187.2 220.553 189.275 220.553 191.835C220.553 194.396 228.623 196.471 238.579 196.471Z" fill="#D5A435"/>
<path opacity="0.3" d="M219.488 179.979C219.488 182.119 184.767 183.813 141.877 183.813C98.9864 183.813 64.2656 182.119 64.2656 179.979C64.2656 177.84 98.9864 176.146 141.877 176.146C184.767 176.146 219.488 177.84 219.488 179.979Z" fill="#C89636"/>
<path d="M155.197 177.751H128.557L129.533 168.658L130.066 163.755H153.687L154.22 168.658L155.197 177.751Z" fill="#326AA3"/>
<path opacity="0.3" d="M154.22 168.658H129.533L130.066 163.755H153.687L154.22 168.658Z" fill="#4A6C8E"/>
<path d="M216.646 164.469H67.1072C65.5088 164.469 64.2656 163.221 64.2656 161.616V60.0823C64.2656 58.4777 65.5088 57.2297 67.1072 57.2297H216.646C218.245 57.2297 219.488 58.4777 219.488 60.0823V161.616C219.488 163.221 218.245 164.469 216.646 164.469Z" fill="#5A88C5"/>
<path d="M212.739 64.8069V152.345C212.739 153.682 211.674 154.752 210.342 154.752H73.3234C71.9914 154.752 70.9258 153.682 70.9258 152.345V64.8069C70.9258 63.4697 71.9914 62.4 73.3234 62.4H210.342C211.674 62.4 212.739 63.4697 212.739 64.8069Z" fill="#558D8D"/>
<path d="M193.914 70.2446C193.914 71.4034 192.937 72.384 191.783 72.384C190.628 72.384 189.651 71.4034 189.651 70.2446C189.651 69.0857 190.628 68.1052 191.783 68.1052C192.937 68.1052 193.914 69.0857 193.914 70.2446Z" fill="#AFD8F2"/>
<path d="M208.565 69.1749H196.844V71.4034H208.565V69.1749Z" fill="#AFD8F2"/>
<path d="M193.914 79.3372C193.914 80.496 192.937 81.4766 191.783 81.4766C190.628 81.4766 189.651 80.496 189.651 79.3372C189.651 78.1783 190.628 77.1977 191.783 77.1977C192.937 77.1086 193.914 78.0892 193.914 79.3372Z" fill="#AFD8F2"/>
<path d="M208.565 78.1783H196.844V80.4069H208.565V78.1783Z" fill="#AFD8F2"/>
<path d="M193.914 88.3406C193.914 89.4995 192.937 90.48 191.783 90.48C190.628 90.48 189.651 89.4995 189.651 88.3406C189.651 87.1817 190.628 86.2012 191.783 86.2012C192.937 86.2012 193.914 87.0926 193.914 88.3406Z" fill="#AFD8F2"/>
<path d="M208.565 87.1818H196.844V89.4103H208.565V87.1818Z" fill="#AFD8F2"/>
<path d="M193.914 97.344C193.914 98.5029 192.937 99.4835 191.783 99.4835C190.628 99.4835 189.651 98.5029 189.651 97.344C189.651 96.1852 190.628 95.2046 191.783 95.2046C192.937 95.2046 193.914 96.096 193.914 97.344Z" fill="#AFD8F2"/>
<path d="M208.565 96.1852H196.844V98.4138H208.565V96.1852Z" fill="#AFD8F2"/>
<path d="M208.654 108.576H190.184V118.382H208.654V108.576Z" fill="#AFD8F2"/>
<path d="M208.654 123.909H190.184V133.714H208.654V123.909Z" fill="#AFD8F2"/>
<path d="M208.654 139.241H190.184V149.047H208.654V139.241Z" fill="#AFD8F2"/>
<path d="M186.543 62.4H75.8098C73.1458 62.4 70.9258 64.5395 70.9258 67.2137V152.702H186.455V62.4H186.543Z" fill="#92BEE7"/>
<path d="M144.363 159.566C144.363 160.992 143.209 162.062 141.877 162.062C140.545 162.062 139.391 160.903 139.391 159.566C139.391 158.229 140.545 157.07 141.877 157.07C143.209 157.07 144.363 158.229 144.363 159.566Z" fill="#92BEE7"/>
<path d="M170.204 181.317H113.461C113.461 178.018 116.125 175.344 119.411 175.344H164.166C167.54 175.255 170.204 177.929 170.204 181.317Z" fill="#5A88C5"/>
<path d="M145.785 52.2377H139.835V55.536H145.785V52.2377Z" fill="#5A88C5"/>
<path d="M149.603 60.7063H136.016C135.217 60.7063 134.507 59.9932 134.507 59.1909V55.2686H151.024V59.1909C151.024 60.0823 150.402 60.7063 149.603 60.7063Z" fill="#92BEE7"/>
<path d="M148.093 48.1371C148.093 51.0789 145.696 53.4857 142.765 53.4857C139.835 53.4857 137.438 51.0789 137.438 48.1371C137.438 45.1954 139.835 42.7886 142.765 42.7886C145.696 42.7886 148.093 45.1954 148.093 48.1371Z" fill="#92BEE7"/>
<path d="M142.765 51.6137C144.678 51.6137 146.228 50.0572 146.228 48.1372C146.228 46.2171 144.678 44.6606 142.765 44.6606C140.852 44.6606 139.302 46.2171 139.302 48.1372C139.302 50.0572 140.852 51.6137 142.765 51.6137Z" fill="#5A88C5"/>
<path d="M143.653 48.1372C143.653 48.5829 143.298 49.0286 142.765 49.0286C142.232 49.0286 141.877 48.672 141.877 48.1372C141.877 47.6023 142.232 47.2457 142.765 47.2457C143.298 47.2457 143.653 47.6023 143.653 48.1372Z" fill="#2C5D94"/>
<path d="M171.181 152.969H90.5508C90.5508 152.969 98.01 121.323 99.786 119.541C101.118 118.203 111.33 112.766 121.542 110.27C124.739 109.467 127.936 109.022 130.866 109.022C133.441 109.022 136.283 109.378 139.036 110.002C149.78 112.32 160.614 118.203 161.946 119.541C163.722 121.323 171.181 152.969 171.181 152.969Z" fill="#558D8D"/>
<path d="M124.472 152.969H90.5508C90.5508 152.969 98.01 121.323 99.786 119.541C101.118 118.203 111.33 112.766 121.542 110.27L124.472 152.969Z" fill="white"/>
<path d="M171.182 152.969H136.105L139.036 110.002C149.781 112.32 160.614 118.203 161.946 119.541C163.722 121.323 171.182 152.969 171.182 152.969Z" fill="white"/>
<path d="M119.411 109.557C119.411 109.557 116.037 112.944 115.681 119.273C115.237 125.602 117.28 128.366 117.28 128.366" stroke="#18203C" stroke-miterlimit="10" stroke-linecap="round" stroke-linejoin="round"/>
<path d="M126.604 138.706C126.604 138.706 128.38 136.923 128.38 136.389C128.38 135.854 122.43 125.067 117.28 128.277C112.13 131.486 120.388 141.381 120.743 141.648C121.098 141.915 123.23 140.667 123.23 140.667" stroke="#18203C" stroke-miterlimit="10" stroke-linecap="round" stroke-linejoin="round"/>
<path d="M140.723 109.557C140.723 109.557 144.896 113.746 145.34 121.591C145.873 129.435 143.031 133.358 143.031 133.358" stroke="#18203C" stroke-miterlimit="10" stroke-linecap="round" stroke-linejoin="round"/>
<path d="M144.452 131.753C145.873 133.358 146.317 135.23 145.429 136.121C144.541 136.923 142.587 136.389 141.166 134.784C139.746 133.179 139.302 131.307 140.19 130.416C141.078 129.614 143.031 130.238 144.452 131.753Z" fill="#18203C"/>
<path d="M138.059 110.805C138.059 110.805 135.395 113.746 130.955 113.746C126.692 113.746 122.963 111.072 122.963 111.072L123.762 102.96L124.295 97.8789L136.549 97.6114L137.171 103.138L138.059 110.805Z" fill="#D2878B"/>
<path d="M137.171 103.049C136.194 106.704 132.819 108.576 130.511 108.576C127.758 108.576 125.094 106.258 123.762 102.96L124.295 97.8789L136.549 97.6114L137.171 103.049Z" fill="#D26E75"/>
<path d="M140.101 87.8057C140.456 86.2903 142.41 85.3989 143.742 86.3794C145.429 87.6274 143.92 93.8674 142.588 95.2046C141.256 96.5417 139.568 96.1851 139.213 95.9177C138.858 95.6503 139.746 89.1429 140.101 87.8057Z" fill="#DD9090"/>
<path d="M120.565 87.8057C120.21 86.2903 118.256 85.3989 116.924 86.3794C115.237 87.6274 116.746 93.8674 118.078 95.2046C119.41 96.5417 121.098 96.1851 121.453 95.9177C121.808 95.6503 120.92 89.1429 120.565 87.8057Z" fill="#DD9090"/>
<path d="M130.333 72.8297C142.41 72.8297 141.167 85.9337 140.9 90.0343C140.634 94.1349 137.082 106.258 130.333 106.258C123.584 106.258 120.121 95.0263 119.855 89.5886C119.588 83.9726 120.121 72.8297 130.333 72.8297Z" fill="#DD9090"/>
<path d="M123.229 80.3177C123.229 80.3177 125.893 81.2983 129.622 81.9223C134.24 82.6354 137.525 83.0811 137.525 83.0811C137.525 83.0811 139.39 87.0034 140.722 88.4297C142.054 89.856 143.475 80.0503 141.965 75.7714C140.633 71.8491 134.151 67.2137 127.935 68.8183C120.742 70.6011 121.719 73.7211 121.364 74.0777C120.92 74.4343 117.812 76.752 117.723 80.496C117.545 84.24 119.233 88.7863 119.854 88.9646C120.476 89.1429 121.364 87.36 122.341 85.0423C123.317 82.368 123.229 80.3177 123.229 80.3177Z" fill="#161823"/>
<g opacity="0.5">
<path opacity="0.5" d="M156.707 62.4L83.3578 154.663H73.3234C71.9914 154.663 70.9258 153.593 70.9258 152.256V104.921L107.334 62.4H156.707Z" fill="#AAD3D2"/>
<path opacity="0.3" d="M186.543 62.4L113.194 154.752H89.751L166.918 62.4H186.543Z" fill="#AAD3D2"/>
<path opacity="0.2" d="M212.739 64.8069V123.106L187.609 154.752H132.819L211.319 62.6674C212.207 63.024 212.739 63.8263 212.739 64.8069Z" fill="#AAD3D2"/>
</g>
<path opacity="0.3" d="M210.431 62.4H73.3234C71.9914 62.4 70.9258 63.4697 70.9258 64.8069V152.345C70.9258 153.682 71.9914 154.752 73.3234 154.752H210.342C211.674 154.752 212.739 153.682 212.739 152.345V64.8069C212.739 63.4697 211.674 62.4 210.431 62.4ZM210.963 151.186C210.963 152.434 209.898 153.504 208.655 153.504H75.0994C73.8562 153.504 72.7906 152.434 72.7906 151.186V65.9657C72.7906 64.7177 73.8562 63.648 75.0994 63.648H208.566C209.809 63.648 210.875 64.7177 210.875 65.9657V151.186H210.963Z" fill="#4A6C8E"/>
<path opacity="0.3" d="M85.7549 227.493V229.899H191.782V225.888L183.968 201.106L85.7549 227.493Z" fill="#C89636"/>
<path d="M180.86 190.944H137.969H95.0789L85.7549 221.877H137.969H190.184L180.86 190.944Z" fill="#5A88C5"/>
<path d="M137.969 221.877H85.7549V227.493H137.969H190.184V221.877H137.969Z" fill="#326AA3"/>
<path d="M99.6077 193.707L98.7197 197.184H108.399L108.932 193.707H99.6077Z" fill="#92BEE7"/>
<path d="M113.194 193.707L112.306 197.184H121.896L122.518 193.707H113.194Z" fill="#92BEE7"/>
<path d="M126.337 193.707L125.893 197.184H135.483L135.661 193.707H126.337Z" fill="#92BEE7"/>
<path d="M175.887 193.707L176.863 197.184H167.184L166.651 193.707H175.887Z" fill="#92BEE7"/>
<path d="M162.389 193.707L163.277 197.184H153.598L153.065 193.707H162.389Z" fill="#92BEE7"/>
<path d="M149.247 193.707L149.691 197.184H140.1L139.923 193.707H149.247Z" fill="#92BEE7"/>
<path d="M177.929 201.106H137.969H98.3643L93.3027 218.133H137.969H182.636L177.929 201.106Z" fill="#92BEE7"/>
<path d="M103.426 201.106L102.449 205.742L101.028 212.16L99.6963 218.133" stroke="#5A88C5" stroke-miterlimit="10"/>
<path d="M111.151 201.106L110.352 205.742L109.286 212.16L108.221 218.133" stroke="#5A88C5" stroke-miterlimit="10"/>
<path d="M118.788 201.106L118.256 205.742L117.456 212.16L116.746 218.133" stroke="#5A88C5" stroke-miterlimit="10"/>
<path d="M126.514 201.106L126.158 205.742L125.715 212.16L125.271 218.133" stroke="#5A88C5" stroke-miterlimit="10"/>
<path d="M134.151 201.106L134.062 205.742L133.885 212.16L133.707 218.133" stroke="#5A88C5" stroke-miterlimit="10"/>
<path d="M141.787 201.106L141.965 205.742L142.054 212.16L142.231 218.133" stroke="#5A88C5" stroke-miterlimit="10"/>
<path d="M149.513 201.106L149.868 205.742L150.312 212.16L150.756 218.133" stroke="#5A88C5" stroke-miterlimit="10"/>
<path d="M157.15 201.106L157.772 205.742L158.571 212.16L159.282 218.133" stroke="#5A88C5" stroke-miterlimit="10"/>
<path d="M164.876 201.106L165.675 205.742L166.741 212.16L167.806 218.133" stroke="#5A88C5" stroke-miterlimit="10"/>
<path d="M172.513 201.106L173.578 205.742L174.999 212.16L176.242 218.133" stroke="#5A88C5" stroke-miterlimit="10"/>
<path d="M96.9443 205.742H102.45H110.353H118.256H126.16H134.063H141.966H149.869H157.772H165.676H173.579H179.173" stroke="#5A88C5" stroke-miterlimit="10"/>
<path d="M95.0791 212.16H101.029H109.287H117.457H125.715H133.885H142.054H150.313H158.571H166.741H174.999H180.949" stroke="#5A88C5" stroke-miterlimit="10"/>
<path d="M-0.825428 248.174C-1.80223 252.185 -3.57823 257.801 -5.62063 263.774C-11.1262 279.909 -18.6742 299.074 -18.6742 299.074L-35.9902 293.013C-35.9902 293.013 -31.9942 259.317 -24.3574 232.485C-20.1838 217.598 -14.4118 203.959 -9.26143 194.955C-5.08783 187.646 -1.18063 183.456 1.30577 183.902C9.03136 185.417 2.90417 233.109 -0.825428 248.174Z" fill="#18203C"/>
<path d="M306.979 233.433C306.18 234.324 307.068 240.029 303.161 243.684C299.254 247.339 294.103 247.428 291.794 246.359C289.397 245.289 286.2 241.01 286.2 241.01C286.2 241.01 292.505 239.138 294.281 237.801C295.968 236.464 295.435 234.77 294.103 234.503C292.771 234.235 290.285 236.642 287.71 237.533C285.845 238.157 283.27 238.514 283.27 238.514C283.27 238.514 278.918 232.898 278.83 231.383C278.741 229.867 283.98 229.332 285.667 228.352C287.354 227.371 287.354 225.856 285.934 225.499C284.513 225.143 280.428 226.301 278.386 226.48C276.343 226.658 274.656 226.301 274.656 226.301C274.656 226.301 273.679 225.232 272.702 221.844C271.726 218.457 271.814 217.476 271.814 217.476C271.814 217.476 277.675 217.476 278.208 216.496C278.741 215.515 273.235 214.535 272.614 214.178C272.081 213.821 270.216 202.055 271.37 201.163C272.525 200.272 282.026 201.074 282.826 201.341C283.625 201.609 284.069 203.481 283.98 205.085C283.891 206.69 284.069 208.829 284.602 208.829C285.134 208.829 287.177 207.492 287.088 204.64C286.999 201.787 286.111 200.093 286.555 200.004C286.999 199.915 293.038 201.252 294.37 202.411C295.702 203.57 296.146 204.194 295.968 204.729C295.79 205.264 293.837 211.058 293.482 211.771C293.126 212.484 294.103 213.643 295.702 212.663C297.3 211.682 299.076 208.829 299.609 206.779C300.23 204.818 299.342 202.946 299.964 202.857C300.586 202.768 306.713 206.244 307.423 207.849C308.134 209.453 306.802 213.911 305.647 215.604C304.493 217.298 302.539 220.418 303.072 221.131C304.493 222.825 307.512 222.023 308.4 220.864C309.377 219.705 311.33 213.732 312.574 213.287C313.728 212.841 317.014 216.228 317.724 217.565C318.434 218.903 318.523 224.429 316.303 227.46C313.906 230.58 307.778 232.541 306.979 233.433Z" fill="#18203C"/>
<path d="M314.882 239.584C314.882 239.584 288.242 215.604 277.408 206.868C277.408 206.868 307.867 235.305 313.195 240.564L314.882 239.584Z" fill="#161823"/>
<path d="M233.492 318.997C234.913 318.284 241.484 321.315 247.167 317.838C252.851 314.362 254.715 308.122 254.183 304.912C253.739 301.703 249.654 296.266 249.654 296.266C249.654 296.266 245.214 303.308 243.083 305.002C240.951 306.695 239.087 305.447 239.175 303.754C239.264 302.06 243.083 299.92 244.947 297.068C246.279 295.018 247.523 292.076 247.523 292.076C247.523 292.076 242.283 284.855 240.419 284.32C238.554 283.696 236.245 289.847 234.469 291.63C232.693 293.413 230.917 292.789 230.917 291.006C230.917 289.223 233.759 284.588 234.647 282.181C235.535 279.774 235.712 277.635 235.712 277.635C235.712 277.635 234.735 276.119 231.006 273.712C227.276 271.395 225.944 271.127 225.944 271.127C225.944 271.127 223.991 278.259 222.659 278.615C221.327 278.883 222.037 271.84 221.771 271.127C221.504 270.414 207.918 264.085 206.497 265.244C205.076 266.403 202.767 278.17 202.856 279.239C202.945 280.309 204.987 281.557 207.03 281.824C208.983 282.181 211.47 283.162 211.381 283.786C211.292 284.41 208.895 286.46 205.52 285.39C202.146 284.32 200.37 282.716 200.103 283.162C199.837 283.607 199.393 291.452 200.37 293.413C201.347 295.374 201.968 296.176 202.59 296.176C203.211 296.176 210.937 295.731 211.914 295.463C212.891 295.285 213.956 296.8 212.269 298.405C210.582 300.01 206.497 301.168 203.922 301.258C201.347 301.347 199.393 299.653 199.038 300.366C198.683 301.079 200.903 309.726 202.501 311.063C204.188 312.4 210.049 312.311 212.447 311.42C214.844 310.528 219.284 309.191 219.995 310.172C221.504 312.49 219.551 315.788 217.863 316.59C216.176 317.392 208.273 317.749 207.296 319.086C206.319 320.423 209.339 325.504 210.759 326.752C212.18 328.09 218.751 330.051 223.191 328.357C227.72 326.485 232.16 319.71 233.492 318.997Z" fill="#18203C"/>
<path d="M238.287 330.675C238.287 330.675 218.307 290.204 211.381 274.158C211.381 274.158 235.446 320.691 239.974 328.892L238.287 330.675Z" fill="#161823"/>
<path d="M292.532 302.309C291.2 303.646 291.911 312.56 285.428 317.641C279.035 322.723 271.132 322.277 267.58 320.405C264.028 318.533 259.588 311.491 259.588 311.491C259.588 311.491 269.622 309.351 272.375 307.568C275.216 305.785 274.506 303.111 272.552 302.487C270.599 301.863 266.514 305.429 262.429 306.409C259.499 307.123 255.503 307.301 255.503 307.301C255.503 307.301 249.376 298.208 249.464 295.801C249.553 293.395 257.634 293.305 260.298 291.968C263.051 290.631 263.14 288.403 261.008 287.6C258.877 286.887 252.395 288.224 249.198 288.224C246.001 288.224 243.426 287.511 243.426 287.511C243.426 287.511 242.094 285.728 240.851 280.469C239.696 275.209 240.052 273.605 240.052 273.605C240.052 273.605 249.109 274.318 250.086 272.892C250.974 271.465 242.538 269.326 241.828 268.702C241.028 268.078 239.519 249.715 241.384 248.467C243.248 247.219 257.812 249.536 259.055 250.071C260.298 250.606 260.742 253.548 260.298 255.955C259.854 258.361 259.943 261.66 260.742 261.838C261.541 261.927 264.916 260.055 265.093 255.776C265.271 251.408 264.116 248.645 264.738 248.556C265.36 248.467 274.595 251.23 276.46 253.102C278.324 254.974 279.035 256.044 278.68 256.935C278.324 257.827 274.595 266.473 273.973 267.454C273.352 268.524 274.684 270.396 277.259 269.059C279.834 267.721 282.853 263.532 284.008 260.501C285.162 257.47 284.008 254.617 285.073 254.439C286.05 254.35 295.108 260.501 295.996 262.997C296.884 265.493 294.308 272.268 292.266 274.675C290.224 277.081 286.849 281.717 287.648 282.876C289.602 285.639 294.308 284.748 295.907 283.054C297.505 281.449 301.324 272.357 303.188 271.911C305.053 271.376 309.76 276.903 310.648 279.132C311.536 281.36 311.092 289.74 307.273 294.197C303.544 298.743 293.864 300.972 292.532 302.309Z" fill="#6DA1A3"/>
<path d="M303.988 312.739C303.988 312.739 265.715 272.624 250.175 257.827C250.175 257.827 293.776 305.251 301.324 313.987L303.988 312.739Z" fill="#46807D"/>
<path d="M110.708 248.798C110.708 248.798 118.966 251.115 122.074 253.701C125.093 256.286 143.208 323.143 143.208 323.143L121.452 329.918C121.452 329.918 108.488 297.381 105.113 290.873L110.708 248.798Z" fill="#DD9090"/>
<path d="M116.48 267.161C116.125 269.033 115.503 271.083 114.793 273.045C111.418 281.959 105.202 290.784 105.202 290.784C105.202 290.784 88.5966 289.001 67.7286 286.416C46.9494 283.742 12.6726 290.784 -2.68982 286.416C-16.1874 282.494 -21.1602 262.258 -20.0058 248.619C-19.8282 246.747 -19.5618 245.054 -19.2066 243.449C-19.2066 243.449 -2.42341 233.376 30.0774 232.93C31.2318 232.93 32.475 232.93 33.7182 232.93C61.2462 233.198 98.0982 242.736 112.395 246.747C116.213 247.817 118.433 248.53 118.433 248.53C118.433 248.53 118.433 256.731 116.48 267.161Z" fill="#18203C"/>
<path opacity="0.3" d="M112.395 246.747C88.0641 246.213 28.3018 237.298 28.3018 237.298C28.3018 237.298 29.0122 235.515 30.0778 232.93C31.2322 232.93 32.4753 232.93 33.7185 232.93C61.1577 233.198 98.0097 242.736 112.395 246.747Z" fill="#18203C"/>
<path opacity="0.3" d="M114.704 273.045C111.329 281.959 105.113 290.784 105.113 290.784C105.113 290.784 88.5077 289.001 67.6397 286.416C46.8605 283.742 12.5837 290.784 -2.77869 286.416C-16.2763 282.494 -21.2491 262.258 -20.0947 248.619C2.90451 251.739 46.5941 257.534 66.0413 260.297C88.5965 263.506 106.09 268.053 114.704 273.045Z" fill="#18203C"/>
<path d="M-2.60185 125.513C-12.4587 138.885 -28.7979 174.453 -28.7979 188.002C-28.7979 201.552 8.40935 213.765 8.40935 213.765L18.0885 197.541C18.0885 197.541 -1.26985 184.169 -2.42425 180.96C-3.57865 177.751 14.0037 144.857 16.3125 140.133C18.6213 135.408 17.2893 126.583 12.6717 123.463C8.05415 120.343 1.12775 120.432 -2.60185 125.513Z" fill="#B6412D"/>
<path d="M71.5466 181.049C69.4154 188.894 58.6706 197.719 55.1186 209.753C53.7866 214.299 53.4314 220.183 53.3426 225.977C53.2538 235.515 54.1418 244.697 53.3426 246.48C52.1882 249.422 34.8722 250.581 14.093 249.154C-6.68616 247.728 -18.1414 246.837 -19.2958 243.538C-20.4502 240.329 -15.7438 228.027 -14.5894 213.765C-13.435 199.502 -13.9678 176.503 -11.659 158.318C-10.5934 150.295 -9.17256 143.253 -7.57416 137.726C-5.53176 130.594 -3.31176 125.781 -1.35816 123.998C2.19384 120.789 23.6834 116.51 33.8954 117.936C47.0378 119.808 55.0298 121.591 60.0914 123.463C64.4426 125.157 66.6626 126.85 68.1722 128.99C70.037 131.575 71.6354 146.729 72.257 160.19C72.6122 169.282 72.4346 177.84 71.5466 181.049Z" fill="#C9414E"/>
<path opacity="0.3" d="M61.6011 124.354C61.6011 124.354 51.3891 126.226 47.1267 128.901C42.8643 131.486 37.4475 147.353 16.9347 148.155C3.70345 148.69 -3.84455 142.272 -7.48535 137.726C-5.44295 130.594 -3.22295 125.781 -1.26935 123.998C2.28265 120.789 23.7722 116.51 33.9842 117.936C47.1267 119.808 55.1187 121.591 60.1803 123.463L61.6011 124.354Z" fill="#6588A9"/>
<path opacity="0.3" d="M72.1684 177.394C72.0796 178.91 71.8132 180.158 71.6356 181.049C70.57 184.793 67.5508 188.805 64.354 193.262C60.8908 198.075 57.0724 203.513 55.2076 209.753C53.8756 214.299 53.5204 220.183 53.4316 225.977L31.4092 232.93C31.4092 232.93 44.1076 210.021 50.146 184.882C56.0956 160.19 51.5668 145.57 51.3892 144.946C51.922 145.303 65.0644 154.752 72.1684 160.101C72.5236 166.786 72.5236 173.205 72.1684 177.394Z" fill="#4A6C8E"/>
<path opacity="0.3" d="M72.1681 177.394C72.0793 178.91 71.8129 180.158 71.6353 181.049C70.5697 184.793 67.5505 188.805 64.3537 193.262C60.5353 180.603 54.4969 157.159 54.2305 156.267C54.5857 156.713 63.9985 167.678 72.1681 177.394Z" fill="#4A6C8E"/>
<path d="M46.8604 97.4332L50.6788 114.459C50.6788 114.459 33.0964 116.955 33.0076 115.351C32.9188 113.746 32.386 101.177 31.498 96.4526L46.8604 97.4332Z" fill="#18203C"/>
<path d="M56.8947 98.2354C56.5395 98.592 55.9179 98.9486 55.0299 99.216C54.4083 99.3943 53.6091 99.5726 52.8099 99.6617C45.6171 100.642 31.4091 98.8594 25.9035 92.7977C21.0195 87.4492 16.5795 75.5932 20.0427 66.768C20.9307 64.4503 22.4403 62.3109 24.5715 60.6172C26.0811 59.4583 27.8571 58.4777 30.0771 57.6754C34.0731 56.2492 37.8027 55.9817 41.0883 56.4274C47.4819 57.3189 52.2771 61.2412 54.9411 66.4114C55.4739 67.392 55.9179 68.4617 56.2731 69.6206C59.3811 79.0697 59.3811 95.1154 56.8947 98.2354Z" fill="#DD9090"/>
<path opacity="0.4" d="M56.895 98.2354C56.5398 98.592 55.9182 98.9486 55.0302 99.216C57.0726 97.7006 57.4278 93.7783 57.339 84.1509C57.2502 74.5234 54.9414 67.1246 54.9414 67.1246L55.0302 66.4114C55.563 67.392 56.007 68.4617 56.3622 69.6206C59.3814 79.0697 59.3814 95.1154 56.895 98.2354Z" fill="white"/>
<path d="M52.8099 99.6617C45.6171 100.642 31.4091 98.8594 25.9035 92.7977C21.0195 87.4492 16.5795 75.5932 20.0427 66.768C21.5523 64.7177 23.0619 62.6674 24.5715 60.6172C26.0811 59.4583 27.8571 58.4777 30.0771 57.6754C34.0731 56.2492 37.8027 55.9817 41.0883 56.4274C41.9763 68.1943 44.9955 93.6 52.8099 99.6617Z" fill="#D26E75"/>
<path d="M63.0221 119.63C62.9333 122.839 61.6901 124.354 61.6901 124.354C61.6901 124.354 61.5125 124.354 61.1573 124.265C59.8253 124.176 55.9181 124.176 48.8141 126.137C39.7565 128.633 34.6061 147.531 13.5605 144.322C-5.62026 141.381 -11.4811 128.455 -8.28426 118.203C-8.10666 117.758 -8.01786 117.312 -7.84026 116.955C-7.66266 116.421 -7.39627 115.886 -7.12987 115.351C-1.71307 104.743 11.8733 98.6811 13.6493 88.4297C14.2709 84.864 14.0045 81.2983 13.9157 77.7326C13.7381 71.0469 14.1821 64.4503 21.9965 58.656C22.0853 58.5669 22.2629 58.4777 22.3517 58.3886C23.1509 57.7646 24.0389 57.2297 24.9269 56.784C36.2933 50.6331 48.9917 55.7143 51.8333 57.408C52.8989 58.032 53.9645 58.8343 54.9413 59.5474C56.7173 60.9737 57.9605 62.4 57.9605 63.648C57.7829 66.9463 50.1461 69.5314 46.3277 70.7794C42.5093 72.0274 40.7333 72.384 40.3781 73.632C40.0229 74.88 40.6445 81.9223 39.5789 82.368C38.5133 82.8137 37.2701 77.2869 34.6949 77.9109C32.1197 78.5349 32.4749 86.6469 33.7181 88.9646C34.6949 90.8366 36.2933 91.5497 37.1813 93.7783C37.4477 94.4023 37.6253 95.1154 37.7141 96.0069C38.6909 103.584 57.7829 104.297 61.3349 112.498C62.6669 115.44 63.0221 117.758 63.0221 119.63Z" fill="#81445C"/>
<path opacity="0.3" d="M63.0221 119.63C62.9333 122.839 61.6901 124.354 61.6901 124.354C61.6901 124.354 57.8717 123.73 48.8141 126.137C39.7565 128.633 34.6061 147.531 13.5605 144.322C-5.62026 141.381 -11.4811 128.455 -8.28426 118.203C-8.10666 117.758 -8.01786 117.312 -7.84026 116.955C-5.44266 124.622 0.329336 112.677 7.78854 105.723C7.78854 105.723 4.94694 114.192 9.38694 121.68C13.8269 129.257 20.6645 123.819 18.3557 111.785C16.0469 99.7509 24.0389 85.9337 24.0389 85.9337C24.0389 85.9337 22.7957 97.0766 29.1893 105.189C35.6717 113.301 39.2237 120.075 39.2237 120.075C39.2237 120.075 52.7213 114.905 63.0221 119.63Z" fill="#4A6C8E"/>
<path opacity="0.4" d="M63.0224 119.63C62.9336 122.839 61.6904 124.354 61.6904 124.354C61.6904 124.354 61.5128 124.354 61.1576 124.265C65.1536 111.339 48.104 105.367 42.332 102.514C38.4248 100.553 37.448 96.3634 37.1816 93.6891C37.448 94.3131 37.6256 95.0263 37.7144 95.9177C38.6912 103.495 57.7832 104.208 61.3352 112.409C62.6672 115.44 63.0224 117.758 63.0224 119.63Z" fill="white"/>
<path opacity="0.3" d="M13.9157 77.6434C13.7381 70.9577 14.1821 64.3611 21.9965 58.5669C22.0853 58.4777 22.2629 58.3886 22.3517 58.2994L22.2629 64.1829C22.2629 64.1829 25.0157 76.0389 13.9157 77.6434Z" fill="#4A6C8E"/>
<path d="M54.9412 59.4583C54.586 59.28 48.0148 55.8034 39.1348 55.1794C29.9884 54.5554 25.282 56.8731 25.282 56.8731C25.282 56.8731 25.1044 56.784 24.9268 56.6057C36.2932 50.4549 48.9916 55.536 51.8332 57.2297C52.81 57.9429 53.9644 58.7451 54.9412 59.4583Z" fill="white"/>
<path d="M38.1583 81.0309C38.0695 79.4263 37.4479 76.4846 34.3399 75.9497C31.4983 75.4149 29.5447 78.7131 29.9887 82.1006C30.3439 85.7554 31.6759 89.7669 34.6951 90.2126C37.4479 90.6583 38.1583 87.7166 38.2471 86.3794C38.3359 85.2206 38.3359 82.992 38.1583 81.0309Z" fill="#DD9090"/>
<path d="M187.963 151.989C187.963 152.791 187.785 153.95 187.341 155.109C186.453 157.248 178.461 166.43 177.218 167.499C175.886 168.569 162.122 174.185 160.168 174.898C158.304 175.611 153.331 176.681 151.999 177.216C151.999 177.216 151.999 177.216 151.91 177.216C150.578 177.751 149.956 178.197 149.956 178.197L149.246 175.611L146.582 166.251C147.648 165.627 148.98 164.29 150.312 162.864C152.265 160.725 154.219 158.318 155.107 157.694C156.528 156.713 162.211 154.574 164.076 152.88C165.94 151.186 166.828 149.849 167.628 149.938C167.716 149.938 167.894 150.027 167.983 150.117C168.249 150.295 168.427 150.651 168.516 151.097C168.693 151.81 168.782 152.791 168.427 153.95C167.805 156.357 162.655 159.833 162.744 160.368C162.744 160.725 165.141 160.635 167.628 160.279C169.315 160.011 171.002 159.655 172.068 159.298C174.909 158.229 186.453 150.384 187.341 150.741C187.696 150.83 187.963 151.365 187.963 151.989Z" fill="#DD9090"/>
<path d="M167.894 150.295C167.006 150.562 165.763 152.078 163.898 153.593C161.856 155.287 157.771 157.07 155.906 158.318C154.041 159.477 150.312 163.042 150.312 163.042C152.265 160.903 154.219 158.496 155.107 157.872C156.528 156.891 162.211 154.752 164.076 153.058C165.94 151.365 166.828 150.027 167.628 150.117C167.628 150.117 167.805 150.117 167.894 150.295Z" fill="white"/>
<path d="M187.963 151.989C187.963 152.791 187.785 153.95 187.341 155.109C186.453 157.248 178.461 166.43 177.218 167.499C175.886 168.569 162.122 174.185 160.168 174.898C158.304 175.611 153.331 176.681 151.999 177.216C151.2 176.77 150.223 176.235 149.246 175.701L146.582 166.341C147.648 165.717 148.98 164.379 150.312 162.953C151.821 164.379 155.196 167.321 156.705 168.569C158.748 170.085 172.689 166.341 176.241 164.201C179.083 162.507 185.121 155.554 187.963 151.989Z" fill="#D26E75"/>
<path d="M162.655 160.457C162.655 160.814 165.052 160.725 167.539 160.368C165.585 161.081 160.079 161.705 159.635 161.081C159.191 160.368 161.5 158.763 163.543 156.891C165.585 155.019 168.338 151.275 168.338 151.275C168.515 151.989 168.604 152.969 168.249 154.128C167.716 156.535 162.566 159.922 162.655 160.457Z" fill="#D26E75"/>
<path d="M156.972 178.107C156.972 178.107 154.041 179.801 149.779 182.386C140.455 187.913 124.737 197.095 119.143 200.304C110.973 204.939 97.2982 209.931 94.723 209.753C92.059 209.575 67.7278 180.693 58.5814 165.093C53.9638 157.248 51.9214 150.562 51.5662 145.035C51.211 139.598 52.4542 135.408 54.4966 132.288C58.2262 126.672 62.3998 125.067 66.9286 127.92C69.5926 129.614 72.4342 132.823 75.3646 137.726C82.8238 150.027 97.6534 180.158 99.7846 180.336C101.383 180.514 127.668 171.065 140.721 166.251C145.161 164.647 148.092 163.577 148.092 163.577C148.092 163.577 151.2 166.697 153.153 169.906C153.153 169.995 153.242 169.995 153.242 170.085C153.42 170.352 153.597 170.619 153.686 170.887C155.551 174.363 156.972 178.107 156.972 178.107Z" fill="#C9414E"/>
<path d="M156.972 178.107C156.972 178.107 154.042 179.801 149.779 182.386C147.648 176.503 143.741 170.441 140.633 166.341C145.073 164.736 148.003 163.666 148.003 163.666C148.003 163.666 151.733 167.41 153.686 170.887C155.551 174.363 156.972 178.107 156.972 178.107Z" fill="#D3644A"/>
<path opacity="0.4" d="M153.154 170.085L147.914 165.271C147.914 165.271 99.9623 183.099 98.8079 182.743C97.6535 182.386 94.1903 177.483 86.8199 163.577C79.5383 149.849 67.2839 128.544 66.9287 127.92C69.5927 129.614 72.4343 132.823 75.3647 137.726C82.8239 150.027 97.6535 180.158 99.7847 180.336C101.383 180.514 127.668 171.065 140.722 166.251C145.162 164.647 148.092 163.577 148.092 163.577C148.092 163.577 151.2 166.697 153.154 169.906C153.065 169.906 153.154 169.995 153.154 170.085Z" fill="white"/>
<path opacity="0.3" d="M156.972 178.107C156.972 178.107 154.042 179.801 149.779 182.386C140.455 187.913 124.738 197.095 119.143 200.304C110.974 204.939 97.2984 209.931 94.7232 209.753C92.0592 209.575 67.728 180.693 58.5816 165.093C53.964 157.248 51.9216 150.562 51.5664 145.035C53.2536 147.175 86.1984 189.518 94.4568 195.045C98.364 197.63 135.926 179.355 153.154 169.906C153.331 170.263 153.509 170.53 153.686 170.887C155.551 174.363 156.972 178.107 156.972 178.107Z" fill="#4A6C8E"/>
<path d="M99.9624 302.194C96.4992 302.907 76.6968 304.334 46.0607 304.601C15.4247 304.869 -26.3113 305.314 -27.8209 300.411C-28.4425 298.539 -29.0641 295.509 -29.5081 292.21C-30.1297 286.773 -29.7745 280.8 -26.3113 279.285C-21.1609 277.056 17.6447 279.819 35.6711 279.195C53.6087 278.571 94.9007 279.463 99.4296 281.513C101.383 282.405 102.449 286.327 102.626 290.427C102.982 295.865 101.916 301.838 99.9624 302.194Z" fill="#388AC9"/>
<path opacity="0.3" d="M99.9626 302.194C96.4994 302.907 76.697 304.334 46.061 304.601C15.425 304.869 -26.311 305.314 -27.8206 300.411C-28.4422 298.539 -29.0638 295.509 -29.5078 292.21C-10.8598 293.369 31.9418 295.776 56.6282 294.617C77.9402 293.637 94.1018 291.586 102.627 290.338C102.982 295.865 101.916 301.838 99.9626 302.194Z" fill="#AFD8F2"/>
<path d="M18.6216 149.76C47.3928 149.76 55.8288 205.742 58.404 220.539C60.9792 235.337 67.1064 271.262 65.952 276.165C64.7976 281.067 37.4472 284.187 17.2008 283.831C-3.04557 283.474 -19.1184 283.474 -21.8712 277.769C-24.624 272.064 -22.2264 217.598 -19.296 193.529C-16.8984 174.096 -22.6704 161.527 -6.24238 153.593C-0.0263767 150.562 10.5408 149.76 18.6216 149.76Z" fill="#92BEE7"/>
<path d="M57.6937 278.571C56.5393 283.474 29.1889 286.594 8.94249 286.238C-11.3039 285.881 -27.3767 285.881 -30.0407 280.176C-31.8167 276.521 -31.4615 252.631 -30.2183 229.721C-29.5079 216.974 -28.5311 204.583 -27.4655 195.936C-24.5351 171.867 -20.4503 150.473 9.91928 151.275C38.6905 151.989 47.6593 208.149 50.3233 222.946C50.5897 224.194 50.7673 225.71 51.0337 227.225C53.7865 243.717 58.7593 274.114 57.6937 278.571Z" fill="#388AC9"/>
<path opacity="0.3" d="M57.6937 278.571C56.5393 283.474 29.1889 286.594 8.94249 286.238C-11.3039 285.881 -27.3767 285.881 -30.0407 280.176C-31.8167 276.521 -31.4615 252.631 -30.2183 229.721C-10.6823 235.694 21.1969 241.221 50.9449 227.314C53.7865 243.717 58.7593 274.114 57.6937 278.571Z" fill="#4A6C8E"/>
<path opacity="0.3" d="M286.709 196.293C286.265 196.56 285.377 196.56 284.933 196.293L248.614 175.255C248.17 174.987 248.17 174.542 248.614 174.185L252.433 171.957C252.877 171.689 253.765 171.689 254.209 171.957L290.528 192.994C290.972 193.262 290.972 193.707 290.528 194.064L286.709 196.293Z" fill="black"/>
<path d="M288.93 170.441L254.386 150.473C253.854 150.206 253.41 150.117 253.054 150.384L248.792 152.88L252.522 157.159V169.728C252.522 170.887 253.321 172.313 254.386 172.937L278.54 186.933L285.999 195.49L290.173 193.083C290.528 192.905 290.706 192.459 290.706 191.925V173.829C290.794 172.491 289.995 171.065 288.93 170.441Z" fill="#CFD1D2"/>
<path d="M286.62 194.153C286.62 195.312 285.821 195.758 284.756 195.223L250.212 175.255C249.236 174.631 248.348 173.205 248.348 172.046V153.95C248.348 152.791 249.147 152.345 250.212 152.88L284.756 172.848C285.732 173.472 286.62 174.898 286.62 176.057V194.153Z" fill="white"/>
<path d="M249.947 163.221V164.558L248.97 163.31L249.947 163.221Z" fill="#545459"/>
<path d="M276.142 184.882C276.142 185.774 275.52 186.13 274.721 185.685L252.077 172.581C251.278 172.135 250.656 170.976 250.656 170.085V156.981C250.656 156.089 251.278 155.733 252.077 156.178L274.721 169.282C275.52 169.728 276.142 170.887 276.142 171.778V184.882Z" fill="#A5A6A9"/>
<path d="M274.544 185.061L252.077 172.046V156.802L274.544 169.817V185.061Z" fill="#545459"/>
<path d="M273.922 184.08V184.258L252.699 171.957V157.605L252.877 157.694V171.867L273.922 184.08Z" fill="#19191B"/>
<path d="M273.923 169.906V184.08L252.877 171.867V157.694L273.923 169.906Z" fill="#E5E5E6"/>
<path d="M272.679 169.193L272.59 169.104V169.817L270.814 168.837V168.123L270.725 168.034V168.747L268.949 167.767V167.054L268.861 166.965V167.678L267.085 166.697V165.984L266.996 165.895V166.608L265.22 165.627V164.914L265.131 164.825V165.538L263.355 164.558V163.845L263.266 163.755V164.469L261.49 163.488V162.775L261.401 162.686V163.399L259.625 162.418V161.705L259.537 161.616V162.329L257.761 161.349V160.635L257.672 160.546V161.259L255.896 160.279V159.566L255.807 159.477V160.19L254.031 159.209V158.496L253.942 158.407V159.12L252.521 158.318V158.407L253.942 159.209V161.259L252.521 160.457V160.546L253.942 161.349V163.399L252.521 162.597V162.686L253.942 163.488V165.538L252.521 164.736V164.825L253.942 165.627V167.678L252.521 166.875V166.965L253.942 167.767V169.817L252.521 169.015V169.104L253.942 169.906V171.957L252.521 171.154V171.243L253.942 172.046V172.759L254.031 172.848V172.046L255.807 173.026V173.739L255.896 173.829V173.115L257.672 174.096V174.809L257.761 174.898V174.185L259.537 175.166V175.879L259.625 175.968V175.255L261.401 176.235V176.949L261.49 177.038V176.325L263.266 177.305V178.018L263.355 178.107V177.394L265.131 178.375V179.088L265.22 179.177V178.464L266.996 179.445V180.158L267.085 180.247V179.534L268.861 180.514V181.227L268.949 181.317V180.603L270.725 181.584V182.297L270.814 182.386V181.673L272.59 182.654V183.367L272.679 183.456V182.743L273.922 183.456V183.367L272.679 182.654V180.603L273.922 181.317V181.227L272.679 180.514V178.464L273.922 179.177V179.088L272.679 178.375V176.325L273.922 177.038V176.949L272.679 176.235V174.185L273.922 174.898V174.809L272.679 174.096V172.046L273.922 172.759V172.67L272.679 171.957V169.906L273.922 170.619V170.53L272.679 169.817V169.193ZM254.386 165.717L256.162 166.697V168.747L254.386 167.767V165.717ZM254.386 167.856L256.162 168.837V170.887L254.386 169.906V167.856ZM254.386 171.957V169.906L256.162 170.887V172.937L254.386 171.957ZM256.073 166.608L254.297 165.627V163.577L256.073 164.558V166.608ZM256.073 164.469L254.297 163.488V161.438L256.073 162.418V164.469ZM254.386 161.349V159.298L256.162 160.279V162.329L254.386 161.349ZM257.938 174.007L256.162 173.026V170.976L257.938 171.957V174.007ZM257.938 171.957L256.162 170.976V168.926L257.938 169.906V171.957ZM257.938 169.817L256.162 168.837V166.786L257.938 167.767V169.817ZM257.938 167.678L256.162 166.697V164.647L257.938 165.627V167.678ZM257.938 165.538L256.162 164.558V162.507L257.938 163.488V165.538ZM257.938 163.399L256.162 162.418V160.368L257.938 161.349V163.399ZM258.027 169.906L259.803 170.887V172.937L258.027 171.957V169.906ZM258.027 174.096V172.046L259.803 173.026V175.077L258.027 174.096ZM259.714 170.887L257.938 169.906V167.856L259.714 168.837V170.887ZM259.714 168.747L257.938 167.767V165.717L259.714 166.697V168.747ZM259.714 166.608L257.938 165.627V163.577L259.714 164.558V166.608ZM258.027 163.488V161.438L259.803 162.418V164.469L258.027 163.488ZM259.803 162.507L261.579 163.488V165.538L259.803 164.558V162.507ZM261.579 176.146L259.803 175.166V173.115L261.579 174.096V176.146ZM261.579 174.007L259.803 173.026V170.976L261.579 171.957V174.007ZM261.579 171.957L259.803 170.976V168.926L261.579 169.906V171.957ZM261.579 169.817L259.803 168.837V166.786L261.579 167.767V169.817ZM261.579 167.678L259.803 166.697V164.647L261.579 165.627V167.678ZM263.444 177.216L261.668 176.235V174.185L263.444 175.166V177.216ZM263.444 175.077L261.668 174.096V172.046L263.444 173.026V175.077ZM263.444 172.937L261.668 171.957V169.906L263.444 170.887V172.937ZM263.444 170.887L261.668 169.906V167.856L263.444 168.837V170.887ZM263.444 168.747L261.668 167.767V165.717L263.444 166.697V168.747ZM263.444 166.608L261.668 165.627V163.577L263.444 164.558V166.608ZM265.22 178.286L263.444 177.305V175.255L265.22 176.235V178.286ZM265.22 176.146L263.444 175.166V173.115L265.22 174.096V176.146ZM265.22 174.007L263.444 173.026V170.976L265.22 171.957V174.007ZM265.22 171.957L263.444 170.976V168.926L265.22 169.906V171.957ZM265.22 169.817L263.444 168.837V166.786L265.22 167.767V169.817ZM265.22 167.678L263.444 166.697V164.647L265.22 165.627V167.678ZM267.085 179.355L265.309 178.375V176.325L267.085 177.305V179.355ZM267.085 177.216L265.309 176.235V174.185L267.085 175.166V177.216ZM267.085 175.077L265.309 174.096V172.046L267.085 173.026V175.077ZM267.085 172.937L265.309 171.957V169.906L267.085 170.887V172.937ZM267.085 170.887L265.309 169.906V167.856L267.085 168.837V170.887ZM267.085 168.747L265.309 167.767V165.717L267.085 166.697V168.747ZM268.861 180.425L267.085 179.445V177.394L268.861 178.375V180.425ZM268.861 178.286L267.085 177.305V175.255L268.861 176.235V178.286ZM268.861 176.146L267.085 175.166V173.115L268.861 174.096V176.146ZM268.861 174.007L267.085 173.026V170.976L268.861 171.957V174.007ZM268.861 171.957L267.085 170.976V168.926L268.861 169.906V171.957ZM267.173 168.747V166.697L268.949 167.678V169.728L267.173 168.747ZM268.949 167.856L270.725 168.837V170.887L268.949 169.906V167.856ZM268.949 169.906L270.725 170.887V172.937L268.949 171.957V169.906ZM268.949 174.185L270.725 175.166V177.216L268.949 176.235V174.185ZM270.725 181.495L268.949 180.514V178.464L270.725 179.445V181.495ZM270.725 179.355L268.949 178.375V176.325L270.725 177.305V179.355ZM268.949 174.096V172.046L270.725 173.026V175.077L268.949 174.096ZM272.59 182.565L270.814 181.584V179.534L272.59 180.514V182.565ZM272.59 180.425L270.814 179.445V177.394L272.59 178.375V180.425ZM272.59 178.286L270.814 177.305V175.255L272.59 176.235V178.286ZM272.59 176.146L270.814 175.166V173.115L272.59 174.096V176.146ZM272.59 174.007L270.814 173.026V170.976L272.59 171.957V174.007ZM272.59 171.957L270.814 170.976V168.926L272.59 169.906V171.957Z" fill="#A5A6A9"/>
<path d="M273.923 176.235L273.745 176.592L273.39 176.325L273.123 175.701L272.768 175.611L272.235 174.631L272.058 175.522H271.969L271.614 174.542L271.525 172.313L270.992 172.67V174.809H270.726L270.548 176.235L270.104 176.592L269.749 177.662L269.394 177.483L269.216 178.464L268.95 174.453L268.239 176.325L267.351 170.085L266.907 169.371L266.197 171.154L265.22 171.065L264.776 171.689L264.243 170.53L263.888 170.709L263.533 169.461L262.645 170.085L262.201 169.282L261.935 169.728L261.491 169.461L261.224 167.856L260.869 169.104H260.159L259.892 169.639L259.537 168.837L259.182 169.015L259.004 170.53L258.649 170.174L257.85 166.519L257.672 167.945L257.406 167.678L257.139 168.213L256.607 166.965L256.251 167.143L256.074 166.341L255.719 166.162L255.363 164.736L254.564 164.914L253.232 164.112L252.877 163.399V163.666L253.143 164.29L254.653 165.182L255.275 165.003L255.541 166.251L255.896 166.519L256.163 167.499L256.518 167.232L257.139 168.658L257.495 168.034L257.761 168.48L257.939 167.499L258.56 170.263L259.093 170.976L259.359 169.193L259.537 169.104L259.892 170.085L260.247 169.371H261.047L261.224 168.747L261.313 169.639L262.023 169.995L262.201 169.728L262.556 170.352L263.533 169.817L263.888 170.976L264.243 170.798L264.776 172.135L265.309 171.333H266.286L266.996 169.728L267.174 170.085L268.151 177.127L268.772 175.344L269.127 179.801L269.571 177.751L269.927 177.929L270.282 176.77L270.726 176.414L270.903 174.987H271.17V172.848L271.347 172.759L271.436 174.453L271.88 175.611L272.235 175.879L272.324 175.166L272.679 175.79L273.035 175.968L273.301 176.503L273.834 176.859L273.923 176.681V176.235Z" fill="#C22129"/>
<path d="M267.883 183.634C267.883 183.367 267.706 183.01 267.439 182.832L265.841 181.941C265.752 181.851 265.575 181.851 265.486 181.941L264.864 182.297L267.084 184.347L267.617 183.991C267.883 183.902 267.883 183.723 267.883 183.634Z" fill="#60A59D"/>
<path d="M266.818 183.189L265.219 182.297C264.953 182.119 264.775 182.297 264.775 182.565C264.775 182.832 264.953 183.189 265.219 183.367L266.818 184.258C267.084 184.437 267.262 184.258 267.262 183.991C267.262 183.723 267.084 183.278 266.818 183.189Z" fill="#7AD0BF"/>
<path d="M261.224 179.712C261.224 179.445 261.047 179.088 260.78 178.91L259.182 178.018C259.093 177.929 258.915 177.929 258.827 178.018L258.205 178.375L260.425 180.425L260.958 180.069C261.135 179.979 261.224 179.89 261.224 179.712Z" fill="#60A59D"/>
<path d="M260.159 179.266L258.56 178.375C258.294 178.197 258.116 178.375 258.116 178.642C258.116 178.91 258.294 179.266 258.56 179.445L260.159 180.336C260.425 180.514 260.603 180.336 260.603 180.069C260.603 179.801 260.425 179.445 260.159 179.266Z" fill="#7AD0BF"/>
<path d="M254.564 175.879C254.564 175.611 254.386 175.255 254.12 175.077L252.522 174.185C252.433 174.096 252.255 174.096 252.167 174.185L251.545 174.542L253.765 176.592L254.298 176.235C254.475 176.146 254.564 175.968 254.564 175.879Z" fill="#60A59D"/>
<path d="M253.498 175.433L251.9 174.542C251.634 174.363 251.456 174.542 251.456 174.809C251.456 175.077 251.634 175.433 251.9 175.611L253.498 176.503C253.765 176.681 253.942 176.503 253.942 176.235C253.942 175.879 253.765 175.522 253.498 175.433Z" fill="#7AD0BF"/>
<path d="M274.544 187.467C274.544 187.2 274.366 186.843 274.1 186.665L272.501 185.774C272.412 185.685 272.235 185.685 272.146 185.774L271.524 186.13L273.744 188.181L274.277 187.824C274.544 187.735 274.544 187.646 274.544 187.467Z" fill="#60A59D"/>
<path d="M273.567 187.022L271.968 186.13C271.702 185.952 271.524 186.13 271.524 186.398C271.524 186.665 271.702 187.022 271.968 187.2L273.567 188.091C273.833 188.27 274.011 188.091 274.011 187.824C274.011 187.557 273.744 187.2 273.567 187.022Z" fill="#7AD0BF"/>
<path d="M284.49 177.305C284.49 177.483 284.223 177.573 284.046 177.483L278.806 174.453C278.54 174.274 278.362 173.918 278.362 173.65C278.362 173.383 278.54 173.294 278.717 173.294V173.383C278.717 173.65 278.895 174.007 279.161 174.185L284.401 177.216C284.401 177.305 284.49 177.305 284.49 177.305Z" fill="#A5A6A9"/>
<path d="M284.49 177.216C284.49 177.305 284.49 177.305 284.49 177.305C284.49 177.305 284.401 177.305 284.401 177.216L279.162 174.185C278.895 174.007 278.718 173.65 278.718 173.383V173.294C278.718 173.294 278.807 173.294 278.807 173.383L284.046 176.414C284.312 176.592 284.49 176.949 284.49 177.216Z" fill="#F4F4F4"/>
<path d="M278.273 185.506L278.54 185.685C278.717 185.774 278.895 185.952 278.895 186.219C278.895 186.487 278.717 186.487 278.54 186.398L278.451 186.309V186.754L278.273 186.665V185.506ZM278.629 186.219C278.806 186.309 278.806 186.309 278.806 186.13C278.806 185.952 278.717 185.863 278.629 185.774L278.54 185.685V186.041L278.629 186.219Z" fill="black"/>
<path d="M279.072 186.576C279.072 186.219 279.25 186.13 279.516 186.219C279.605 186.309 279.694 186.398 279.783 186.487L279.694 186.576C279.605 186.487 279.605 186.398 279.516 186.398C279.339 186.309 279.25 186.398 279.25 186.665C279.25 186.933 279.339 187.111 279.516 187.2C279.605 187.289 279.694 187.289 279.694 187.2L279.783 187.378C279.694 187.467 279.605 187.467 279.516 187.378C279.25 187.289 279.072 186.933 279.072 186.576Z" fill="black"/>
<path d="M280.227 187.289L280.582 187.467V187.646L280.227 187.467V187.289Z" fill="black"/>
<path d="M281.026 188.091L281.115 188.002C281.115 188.091 281.204 188.091 281.293 188.181C281.382 188.27 281.47 188.181 281.559 187.913C281.47 188.002 281.47 188.002 281.382 187.913C281.204 187.824 281.115 187.646 281.115 187.378C281.115 187.2 281.204 187.111 281.382 187.2C281.559 187.289 281.737 187.557 281.737 187.913C281.737 188.359 281.559 188.448 281.382 188.27C281.115 188.27 281.026 188.181 281.026 188.091ZM281.47 187.824C281.47 187.646 281.382 187.467 281.293 187.467C281.204 187.378 281.115 187.467 281.115 187.557C281.115 187.646 281.204 187.824 281.293 187.824C281.293 187.824 281.382 187.824 281.47 187.824Z" fill="black"/>
<path d="M281.736 188.091C281.736 187.735 281.825 187.646 282.092 187.735C282.269 187.824 282.447 188.091 282.447 188.448C282.447 188.805 282.358 188.983 282.092 188.805C281.825 188.715 281.736 188.448 281.736 188.091ZM282.18 188.359C282.18 188.091 282.092 187.913 282.003 187.824C281.914 187.735 281.825 187.824 281.825 188.181C281.825 188.448 281.914 188.626 282.003 188.715C282.092 188.805 282.18 188.626 282.18 188.359Z" fill="black"/>
<path d="M282.536 188.537C282.536 188.181 282.625 188.091 282.891 188.181C283.069 188.27 283.247 188.537 283.247 188.894C283.247 189.25 283.158 189.429 282.891 189.25C282.625 189.161 282.536 188.894 282.536 188.537ZM282.98 188.805C282.98 188.537 282.891 188.359 282.803 188.27C282.714 188.181 282.625 188.27 282.625 188.626C282.625 188.894 282.714 189.072 282.803 189.161C282.891 189.161 282.98 189.072 282.98 188.805Z" fill="black"/>
<path d="M283.246 188.983C283.246 188.626 283.335 188.537 283.601 188.626C283.779 188.715 283.956 188.983 283.956 189.339C283.956 189.696 283.868 189.874 283.601 189.696C283.335 189.607 283.246 189.339 283.246 188.983ZM283.69 189.25C283.69 188.983 283.601 188.805 283.512 188.715C283.424 188.626 283.335 188.715 283.335 189.072C283.335 189.429 283.424 189.518 283.512 189.607C283.601 189.607 283.69 189.518 283.69 189.25Z" fill="black"/>
<path d="M284.046 188.894L284.312 189.072C284.49 189.161 284.667 189.339 284.667 189.518C284.667 189.607 284.579 189.696 284.579 189.696C284.668 189.785 284.756 189.963 284.756 190.053C284.756 190.32 284.579 190.32 284.401 190.142L284.046 189.963V188.894ZM284.312 189.518C284.401 189.607 284.49 189.607 284.49 189.429C284.49 189.339 284.401 189.25 284.312 189.161L284.223 189.072V189.339L284.312 189.518ZM284.401 189.963C284.579 190.053 284.667 190.053 284.667 189.874C284.667 189.785 284.579 189.696 284.401 189.607L284.223 189.518V189.874L284.401 189.963Z" fill="black"/>
<path d="M282.625 179.355L280.227 177.929C279.783 177.662 279.428 177.662 279.162 177.84L278.451 178.286L278.718 178.821V182.297C278.718 183.278 279.428 184.437 280.227 184.882L282.625 186.219C282.714 186.309 282.802 186.309 282.98 186.398L283.069 186.754L283.69 186.398C283.957 186.219 284.134 185.863 284.134 185.417V181.941C284.134 180.96 283.424 179.801 282.625 179.355Z" fill="#852A24"/>
<path d="M283.424 185.774C283.424 186.754 282.713 187.111 281.914 186.665L279.516 185.328C278.717 184.882 278.007 183.723 278.007 182.743V179.177C278.007 178.197 278.717 177.84 279.516 178.286L281.914 179.623C282.713 180.069 283.424 181.227 283.424 182.208V185.774Z" fill="#C22129"/>
<path d="M281.47 185.328L280.049 184.526C279.516 184.169 279.072 183.456 279.072 182.832V180.336C279.072 179.712 279.516 179.445 280.049 179.801L281.47 180.603C282.003 180.96 282.447 181.673 282.447 182.297V184.793C282.535 185.328 282.091 185.595 281.47 185.328ZM280.049 179.979C279.605 179.712 279.25 179.89 279.25 180.425V182.921C279.25 183.456 279.605 184.08 280.049 184.347L281.47 185.15C281.914 185.417 282.269 185.239 282.269 184.704V182.208C282.269 181.673 281.914 181.049 281.47 180.782L280.049 179.979Z" fill="white"/>
<path d="M280.404 182.921V181.673L281.381 182.921H280.404Z" fill="white"/>
<path d="M260.869 158.139L255.719 155.109C255.63 155.019 255.63 155.019 255.63 154.93V154.663L256.429 154.841L258.027 153.861C258.205 153.771 258.471 153.771 258.56 153.861L262.201 156L263.888 156.357V156.624C263.888 156.713 263.888 156.713 263.799 156.802L261.491 158.139C261.313 158.229 261.047 158.229 260.869 158.139Z" fill="#545459"/>
<path d="M263.799 156.535C263.977 156.446 263.977 156.267 263.799 156.178L258.649 153.147C258.471 153.058 258.205 153.058 258.116 153.147L255.807 154.485C255.629 154.574 255.629 154.752 255.807 154.841L260.957 157.872C261.135 157.961 261.401 157.961 261.49 157.872L263.799 156.535Z" fill="#A5A6A9"/>
<path d="M280.493 168.48C280.493 168.48 280.405 168.48 280.316 168.391L278.273 167.232C278.185 167.143 278.185 167.143 278.185 167.054C278.185 166.965 278.185 166.875 278.273 166.875L278.984 166.519C279.073 166.43 279.25 166.43 279.339 166.519L281.381 167.678C281.47 167.767 281.47 167.767 281.47 167.856C281.47 167.945 281.47 168.034 281.381 168.034L280.671 168.391C280.671 168.48 280.582 168.48 280.493 168.48ZM278.717 167.054L280.582 168.123L281.026 167.856L279.161 166.786L278.717 167.054Z" fill="#A5A6A9"/>
<path d="M281.293 167.856V167.767L279.25 166.608C279.25 166.608 279.161 166.608 279.073 166.608L278.362 166.965V167.054L280.405 168.213C280.405 168.213 280.494 168.213 280.582 168.213L281.293 167.856Z" fill="#545459"/>
<path opacity="0.3" d="M229.433 200.75C228.19 201.463 226.147 201.463 224.904 200.75L210.607 192.459C209.364 191.746 209.364 190.587 210.607 189.874L226.769 180.514C228.012 179.801 230.054 179.801 231.298 180.514L245.594 188.805C246.838 189.518 246.838 190.677 245.594 191.39L229.433 200.75Z" fill="black"/>
<path opacity="0.3" d="M203.237 193.351C202.172 193.975 200.484 193.975 199.419 193.351L187.253 186.309C186.188 185.685 186.188 184.704 187.253 184.08L201.017 176.146C202.083 175.522 203.77 175.522 204.836 176.146L217.001 183.189C218.067 183.813 218.067 184.793 217.001 185.417L203.237 193.351Z" fill="black"/>
<path d="M187.253 179.534C186.454 182.921 192.493 187.824 192.937 188.27C201.461 193.797 202.705 191.301 202.793 190.944C203.593 188.359 199.33 183.902 195.778 182.208L193.469 179.266C193.381 179.177 187.786 176.77 187.253 179.534Z" fill="#333336"/>
<path d="M199.685 188.894C200.84 188.091 201.639 187.557 201.728 187.557L202.705 187.735L202.438 188.715C201.906 189.072 201.195 189.518 200.485 189.963L199.597 189.696L199.685 188.894Z" fill="#545459"/>
<path d="M207.589 171.689C207.677 171.6 207.855 171.6 208.033 171.689L211.229 173.561C215.048 175.79 218.067 179.534 218.067 182.03C218.067 182.832 217.712 183.456 217.179 183.723L202.793 192.103L203.06 190.409L202.793 188.537L200.396 185.417L193.292 180.514L193.025 180.069L207.589 171.689Z" fill="#BABCBE"/>
<path d="M207.589 171.689C207.677 171.6 207.855 171.6 208.033 171.689L211.229 173.561C211.407 173.65 211.496 173.739 211.673 173.829L196.489 182.654L193.381 180.514L193.114 180.069L207.589 171.689Z" fill="#333336"/>
<path d="M202.083 169.461C203.326 168.747 205.546 169.015 207.944 170.441L210.519 171.957C210.874 172.135 211.052 172.581 211.052 172.937C211.052 173.115 210.963 173.205 210.874 173.294L196.4 181.673L195.245 180.247L189.118 178.197L187.52 177.929L202.083 169.461Z" fill="#BABCBE"/>
<path d="M193.469 189.25L196.666 191.122C200.485 193.351 203.504 193.083 203.504 190.587C203.504 188.002 200.485 184.347 196.666 182.119L193.469 180.247C193.114 180.069 192.937 180.247 192.937 180.603C192.937 180.96 193.203 181.406 193.469 181.584L196.666 183.456C200.041 185.417 202.349 188.448 202.349 189.963C202.349 191.479 200.041 191.835 196.666 189.874L193.469 188.002C190.184 186.13 187.786 183.634 187.786 180.514C187.786 178.821 190.273 178.375 193.469 180.247L196.045 181.762C196.4 181.941 196.577 181.762 196.577 181.406C196.577 181.049 196.311 180.603 196.045 180.425L193.469 178.91C189.829 176.77 186.632 177.216 186.632 179.89C186.632 184.08 189.74 187.022 193.469 189.25Z" fill="#86878A"/>
<path d="M200.484 189.963C196.399 192.816 190.094 197.986 190.716 201.285C190.982 202.8 192.847 203.87 196.222 204.405C201.816 205.385 203.947 200.304 206.167 194.955C207.766 191.122 209.364 187.289 212.383 185.685L213.005 186.933C210.43 188.27 208.92 191.746 207.41 195.49C205.368 200.393 203.059 205.831 197.642 205.831C197.11 205.831 196.577 205.742 196.044 205.653C192.048 204.939 189.828 203.513 189.473 201.463C189.029 199.056 190.982 195.936 195.334 192.192C196.932 190.855 198.53 189.607 199.774 188.805L200.484 189.963Z" fill="#545459"/>
<path d="M245.329 177.84L210.253 187.022L210.519 190.231C210.519 191.033 211.052 191.835 212.118 192.459L223.218 198.878C225.349 200.126 228.901 200.126 231.032 198.878L243.464 191.657C244.53 191.033 245.063 190.231 245.063 189.429L245.329 177.84Z" fill="#CFD1D2"/>
<path d="M230.233 195.401C228.546 197.184 225.349 197.719 223.218 196.382L212.118 189.963C209.987 188.715 209.632 186.219 211.319 184.437L225.438 169.461C227.125 167.678 230.322 167.143 232.453 168.48L243.553 174.898C245.684 176.146 246.04 178.642 244.352 180.425L230.233 195.401Z" fill="white"/>
<path d="M232.009 189.874C230.855 191.122 228.723 191.39 227.303 190.587L217.712 185.061C216.291 184.258 216.025 182.565 217.179 181.317L226.681 171.154C227.835 169.906 229.967 169.639 231.387 170.441L240.978 175.968C242.399 176.77 242.665 178.464 241.511 179.712L232.009 189.874Z" fill="#60A59D"/>
<path d="M230.055 189.429L240.356 178.375L230.677 172.759L220.287 183.813L230.055 189.429Z" fill="#E5E5E6"/>
<path d="M220.02 188.448V187.735L218.688 189.072V189.874L220.02 188.448Z" fill="#852A24"/>
<path d="M218.689 189.072L215.137 187.022V187.735L218.689 189.874V189.072Z" fill="#C22129"/>
<path d="M220.021 187.735L216.469 185.685L215.137 187.022L218.689 189.072L220.021 187.735Z" fill="#DC414B"/>
<path d="M226.06 191.925V191.211L224.728 192.549V193.351L226.06 191.925Z" fill="#919395"/>
<path d="M224.728 192.549L221.176 190.498V191.211L224.728 193.351V192.549Z" fill="#CFD1D2"/>
<path d="M226.06 191.211L222.419 189.072L221.176 190.498L224.728 192.549L226.06 191.211Z" fill="#F4F4F4"/>
<path d="M234.585 178.375L235.65 177.305L235.384 177.038L234.318 178.197L234.585 178.375Z" fill="#545459"/>
<path d="M234.052 176.325L235.65 177.305L236.005 176.949L234.318 176.057L234.052 176.325Z" fill="#545459"/>
<path d="M232.72 177.751L234.318 178.731L234.585 178.375L232.986 177.483L232.72 177.751Z" fill="#545459"/>
<path d="M230.322 178.642L233.341 175.433L232.986 175.255L230.056 178.464L230.322 178.642Z" fill="#545459"/>
<path d="M233.253 179.89L234.318 178.731L234.052 178.553L232.897 179.623L233.253 179.89Z" fill="#545459"/>
<path d="M231.388 179.177L232.986 180.158L233.252 179.89L231.654 178.91L231.388 179.177Z" fill="#545459"/>
<path d="M237.16 179.89L238.226 178.731L237.959 178.553L236.894 179.712L237.16 179.89Z" fill="#545459"/>
<path d="M236.627 177.84L238.225 178.731L238.581 178.464L236.893 177.483L236.627 177.84Z" fill="#545459"/>
<path d="M235.295 179.266L236.893 180.158L237.16 179.89L235.561 178.999L235.295 179.266Z" fill="#545459"/>
<path d="M235.828 181.317L236.894 180.158L236.627 179.979L235.562 181.138L235.828 181.317Z" fill="#545459"/>
<path d="M233.963 180.693L235.561 181.673L235.828 181.317L234.229 180.425L233.963 180.693Z" fill="#545459"/>
<path d="M230.855 182.386L231.921 181.317L231.566 181.049L230.5 182.208L230.855 182.386Z" fill="#545459"/>
<path d="M230.322 180.336L231.921 181.317L232.187 180.96L230.589 180.069L230.322 180.336Z" fill="#545459"/>
<path d="M228.901 181.762L230.589 182.743L230.855 182.386L229.257 181.495L228.901 181.762Z" fill="#545459"/>
<path d="M229.434 183.902L230.589 182.743L230.234 182.565L229.168 183.723L229.434 183.902Z" fill="#545459"/>
<path d="M229.523 181.673L230.589 180.514L230.322 180.336L229.257 181.495L229.523 181.673Z" fill="#545459"/>
<path d="M228.191 183.099L229.257 181.941L228.902 181.762L227.836 182.921L228.191 183.099Z" fill="#545459"/>
<path d="M227.569 183.189L229.168 184.169L229.434 183.902L227.836 182.921L227.569 183.189Z" fill="#545459"/>
<path d="M231.743 185.685L234.496 182.743L234.229 182.565L231.477 185.506L231.743 185.685Z" fill="#545459"/>
<path d="M232.897 181.851L234.496 182.743L234.762 182.475L233.164 181.495L232.897 181.851Z" fill="#545459"/>
<path d="M228.635 185.239L229.523 185.774L229.7 185.595L228.812 185.061L228.635 185.239Z" fill="#545459"/>
<path d="M227.924 186.041L228.812 186.487L228.989 186.398L228.101 185.863L227.924 186.041Z" fill="#545459"/>
<path d="M228.19 187.111L228.812 186.487L228.634 186.398L228.013 187.022L228.19 187.111Z" fill="#545459"/>
<path d="M228.279 185.952L228.812 185.328L228.634 185.239L228.102 185.863L228.279 185.952Z" fill="#545459"/>
<path d="M227.48 186.754L228.102 186.13L227.924 186.041L227.303 186.665L227.48 186.754Z" fill="#545459"/>
<path d="M227.214 186.843L228.102 187.289L228.191 187.111L227.303 186.665L227.214 186.843Z" fill="#545459"/>
<path d="M229.434 188.091L230.943 186.576L230.766 186.487L229.345 188.002L229.434 188.091Z" fill="#545459"/>
<path d="M230.056 186.041L230.944 186.576L231.121 186.398L230.233 185.863L230.056 186.041Z" fill="#545459"/>
<path d="M228.457 174.542L226.681 173.472L226.06 174.096L227.836 175.166L228.457 174.542Z" fill="white"/>
<path d="M224.728 178.553L222.952 177.483L222.33 178.107L224.106 179.088L224.728 178.553Z" fill="white"/>
<path d="M221.974 181.406L219.399 179.89L218.866 180.514L221.441 182.03L221.974 181.406Z" fill="white"/>
<path opacity="0.3" d="M246.128 216.171L239.645 212.427C239.29 212.249 238.757 212.249 238.402 212.427L238.313 212.517C232.364 216.706 224.993 219.024 224.993 219.024C224.993 219.024 223.04 219.47 220.553 219.47C219.754 219.47 218.955 219.381 218.245 219.381C215.225 217.954 212.65 217.063 212.65 216.974L212.473 216.885L211.673 217.33L210.43 216.795L203.415 220.896L204.303 221.609L204.037 221.787L204.392 222.055C204.481 222.144 211.052 227.314 218.955 230.523L219.133 230.613L227.657 225.621L227.391 225.353C227.213 225.175 226.947 224.907 226.681 224.729C227.036 224.462 227.302 224.373 227.302 224.373C228.101 223.927 229.167 223.481 230.765 223.035C231.653 222.768 232.63 222.59 233.607 222.322C237.869 221.342 242.665 220.183 246.128 217.241L246.217 217.152C246.305 217.063 246.394 216.885 246.394 216.706C246.483 216.439 246.394 216.261 246.128 216.171Z" fill="black"/>
<path d="M218.777 212.16L223.306 213.23C223.306 213.23 225.704 211.714 226.237 211.536C225.437 211.09 224.017 210.466 222.862 210.199C221.619 211.09 219.665 211.803 218.777 212.16Z" fill="#60A59D"/>
<path d="M224.283 214.923L227.214 222.501C228.19 221.877 229.611 221.431 231.121 220.985C234.762 219.915 233.43 214.567 232.009 213.765L224.283 214.923Z" fill="#CFD1D2"/>
<path d="M231.831 210.377L229.877 214.389C230.055 214.299 230.499 214.567 230.765 214.834C232.275 216.082 233.784 219.915 231.12 220.896C234.761 219.826 239.556 218.757 243.375 216.528C249.324 213.497 247.371 209.397 245.95 208.594L231.831 210.377Z" fill="#7AD0BF"/>
<path d="M227.214 216.171C228.102 215.637 229.345 215.191 230.766 214.834C245.24 208.505 240.8 205.653 240.8 205.653L239.468 204.85C239.202 204.672 238.758 204.672 238.58 204.85C232.542 209.129 225.171 211.447 225.171 211.447C225.171 211.447 217.978 213.141 212.562 210.021L225.882 217.241C226.237 216.795 227.214 216.171 227.214 216.171Z" fill="white"/>
<path d="M230.854 214.834C235.383 213.586 241.865 212.695 246.128 209.129C246.305 208.951 246.216 208.773 246.039 208.683L240.888 205.742C238.313 211.269 224.816 210.823 230.854 214.834Z" fill="#60A59D"/>
<path d="M203.415 212.962L205.369 214.21L204.836 221.52L203.415 220.45V212.962Z" fill="#7AD0BF"/>
<path d="M204.658 214.032V221.787C204.658 221.787 211.141 226.958 219.133 230.167L220.021 228.206V223.57L219.133 222.411L204.658 214.032Z" fill="#E5E5E6"/>
<path d="M210.43 208.951L212.384 209.753L204.836 214.121L203.415 212.962L210.43 208.951Z" fill="#60A59D"/>
<path d="M212.561 209.486L204.747 214.032C204.747 214.032 211.229 219.202 219.221 222.411L227.302 217.776C223.04 213.319 212.561 209.486 212.561 209.486Z" fill="white"/>
<path d="M211.851 214.745C212.117 214.567 212.65 214.567 212.916 214.745L218.688 218.133C218.866 218.222 218.955 218.4 218.866 218.578C218.866 218.489 218.777 218.489 218.688 218.4L212.916 215.013C212.65 214.834 212.117 214.834 211.851 215.013C211.762 215.102 211.673 215.102 211.673 215.191C211.584 215.013 211.584 214.834 211.851 214.745Z" fill="#F4F4F4"/>
<path d="M211.851 215.013C212.118 214.834 212.651 214.834 212.917 215.013L218.689 218.4C218.778 218.489 218.867 218.489 218.867 218.578C218.867 218.667 218.778 218.667 218.689 218.757C218.423 218.935 217.89 218.935 217.623 218.757L211.851 215.369C211.763 215.28 211.674 215.28 211.674 215.191C211.674 215.102 211.763 215.013 211.851 215.013Z" fill="#A5A6A9"/>
<path d="M215.048 216.35V217.241L217.623 218.757C217.889 218.935 218.422 218.935 218.689 218.757C218.866 218.667 218.955 218.578 218.955 218.4V217.687L216.557 216.885L216.38 216.795C216.291 216.706 216.113 216.706 215.936 216.706L215.048 216.35Z" fill="#7AD0BF"/>
<path d="M215.225 216.617L217.534 217.954C217.8 218.133 218.333 218.133 218.6 217.954C218.866 217.776 218.866 217.509 218.6 217.33L216.291 215.993C216.024 215.815 215.492 215.815 215.225 215.993C214.959 216.171 214.959 216.439 215.225 216.617Z" fill="#60A59D"/>
<path d="M214.782 213.943H214.249V214.389C214.249 214.478 214.338 214.656 214.515 214.745C214.871 214.923 215.403 214.923 215.67 214.745C215.847 214.656 215.936 214.567 215.936 214.389V213.943H215.403C215.137 213.854 214.959 213.854 214.782 213.943Z" fill="#7AD0BF"/>
<path d="M214.515 213.586C214.871 213.408 215.403 213.408 215.67 213.586C215.936 213.765 216.025 214.121 215.67 214.299C215.315 214.478 214.782 214.478 214.515 214.299C214.16 214.121 214.16 213.765 214.515 213.586Z" fill="#60A59D"/>
<path d="M217.268 215.369H216.735V215.815C216.735 215.904 216.824 216.082 217.002 216.171C217.357 216.35 217.89 216.35 218.156 216.171C218.334 216.082 218.423 215.993 218.423 215.815V215.369H217.89C217.712 215.369 217.446 215.369 217.268 215.369Z" fill="#7AD0BF"/>
<path d="M217.002 215.013C217.357 214.834 217.89 214.834 218.156 215.013C218.423 215.191 218.511 215.547 218.156 215.726C217.801 215.904 217.268 215.904 217.002 215.726C216.647 215.547 216.647 215.191 217.002 215.013Z" fill="#60A59D"/>
<path d="M219.754 216.795H219.222V217.241C219.222 217.33 219.31 217.509 219.488 217.598C219.843 217.776 220.376 217.776 220.643 217.598C220.82 217.509 220.909 217.419 220.909 217.33V216.885H220.376C220.198 216.795 219.932 216.795 219.754 216.795Z" fill="#DC414B"/>
<path d="M219.488 216.528C219.843 216.35 220.376 216.35 220.642 216.528C220.909 216.706 220.998 217.063 220.642 217.241C220.287 217.419 219.754 217.419 219.488 217.241C219.133 216.974 219.133 216.706 219.488 216.528Z" fill="#852A24"/>
<path d="M227.214 217.776V225.531L219.222 230.167V222.411L227.214 217.776Z" fill="#E5E5E6"/>
<path d="M225.615 219.113V225.977L220.819 228.83V221.877L225.615 219.113Z" fill="#A5A6A9"/>
<path d="M225.26 219.648L225.348 219.559V225.888L221.086 228.384V228.206L225.26 225.888V219.648Z" fill="#919395"/>
<path d="M221.086 222.055L225.26 219.648V225.888L221.086 228.206V222.055Z" fill="#E5E5E6"/>
<path d="M222.329 225.353L222.507 225.442L223.306 224.997L223.395 224.818L223.306 224.729L222.507 225.175L222.329 225.353Z" fill="#545459"/>
<path d="M223.395 224.818H223.483L224.283 224.373L224.371 224.194L224.283 224.105L223.483 224.64L223.395 224.818Z" fill="#545459"/>
<path d="M223.395 223.57L223.483 223.659L224.283 223.214L224.371 223.035L224.283 222.946L223.483 223.392L223.395 223.57Z" fill="#545459"/>
<path d="M223.395 224.818L223.484 224.64V223.659L223.395 223.57L223.307 223.838V224.729L223.395 224.818Z" fill="#545459"/>
<path d="M223.395 226.601L223.484 226.423V225.442H223.395L223.307 225.621V226.512L223.395 226.601Z" fill="#545459"/>
<path d="M222.329 225.353L222.507 225.175V224.283L222.329 224.194L222.24 224.373V225.353H222.329Z" fill="#545459"/>
<path d="M224.372 224.194L224.461 224.016V223.125L224.372 223.035L224.283 223.214V224.105L224.372 224.194Z" fill="#545459"/>
<path d="M222.329 225.977L222.507 226.066L223.306 225.621L223.395 225.442L223.306 225.353L222.507 225.799L222.329 225.977Z" fill="#545459"/>
<path d="M223.395 225.442H223.483L224.283 224.997L224.371 224.818L224.283 224.729L223.483 225.264L223.395 225.442Z" fill="#545459"/>
<path d="M222.329 227.136L222.507 226.958V226.066L222.329 225.977L222.24 226.155V227.136H222.329Z" fill="#545459"/>
<path d="M224.372 225.977L224.461 225.799V224.907L224.372 224.818L224.283 224.997V225.888L224.372 225.977Z" fill="#545459"/>
<path d="M222.329 223.57L222.507 223.659L223.306 223.214L223.395 222.946H223.306L222.507 223.392L222.329 223.57Z" fill="#545459"/>
<path d="M223.395 222.946L223.483 223.035L224.283 222.59L224.371 222.411L224.283 222.322L223.483 222.768L223.395 222.946Z" fill="#545459"/>
<path d="M223.395 221.787L223.483 221.877L224.283 221.431L224.371 221.253L224.283 221.163L223.483 221.609L223.395 221.787Z" fill="#545459"/>
<path d="M223.395 222.946L223.484 222.768V221.877L223.395 221.787L223.307 221.966V222.946H223.395Z" fill="#545459"/>
<path d="M222.329 223.57L222.507 223.392V222.501L222.329 222.411L222.24 222.59V223.481L222.329 223.57Z" fill="#545459"/>
<path d="M221.441 222.679H221.53L221.885 222.501L221.974 222.411L221.885 222.322L221.53 222.59L221.441 222.679Z" fill="#545459"/>
<path d="M221.975 222.411V222.322V221.877H221.886V222.322L221.975 222.411Z" fill="#545459"/>
<path d="M221.441 222.679L221.53 222.59V222.144H221.441V222.233V222.679Z" fill="#545459"/>
<path d="M224.372 222.411L224.461 222.233V221.253H224.372L224.283 221.431V222.322L224.372 222.411Z" fill="#545459"/>
<path d="M224.372 222.679V222.857L224.461 222.768V222.59L224.372 222.679Z" fill="#545459"/>
</g>
<defs>
<clipPath id="clip0_389_2969">
<rect width="444" height="312" fill="white" transform="translate(-93)"/>
</clipPath>
</defs>
</svg>
