<svg width="24" height="24" viewBox="0 0 24 24" fill="none" xmlns="http://www.w3.org/2000/svg">
<path d="M8.25 5H9.75C9.81629 5 9.87991 4.97366 9.92679 4.92679C9.97366 4.87991 10 4.81629 10 4.75V2.25C10 2.18371 9.97366 2.12009 9.92679 2.07321C9.87991 2.02634 9.81629 2 9.75 2H8.25C8.11194 2 8 2.11194 8 2.25V4.75C8 4.81629 8.02634 4.87991 8.07321 4.92679C8.12009 4.97366 8.18371 5 8.25 5ZM8.5 2.5H9.5V4.5H8.5V2.5Z" fill="white"/>
<mask id="path-2-outside-1_389_3518" maskUnits="userSpaceOnUse" x="2.90039" y="-0.699966" width="15" height="20" fill="black">
<rect fill="white" x="2.90039" y="-0.699966" width="15" height="20"/>
<path d="M16.2004 10.2H15.9004C15.689 10.2012 15.482 10.2588 15.3004 10.3667V9.90001C15.3004 9.5818 15.1739 9.27656 14.9489 9.05144C14.7238 8.82644 14.4186 8.70001 14.1004 8.70001H13.5004C13.2166 8.70122 12.9425 8.80394 12.7279 8.98956C12.5135 8.62528 12.1229 8.40122 11.7004 8.40002H11.1004C10.889 8.40123 10.682 8.45882 10.5004 8.56676V7.99502C10.851 7.871 11.1546 7.64156 11.3694 7.3381C11.5844 7.03448 11.7 6.67193 11.7004 6.30003V2.10003C11.6998 1.62284 11.5101 1.1652 11.1727 0.827725C10.8352 0.49036 10.3776 0.300582 9.90038 0.300034H8.10038C7.62319 0.300569 7.16555 0.490347 6.82807 0.827725C6.49071 1.16523 6.30093 1.62284 6.30038 2.10003V6.30003C6.30078 6.67196 6.41636 7.0345 6.63132 7.3381C6.84614 7.64158 7.14975 7.871 7.50039 7.99502V13.3758L7.21539 13.0908C6.71023 12.5828 6.0229 12.2981 5.3065 12.3H4.80037C4.56171 12.3 4.33268 12.3948 4.16396 12.5636C3.99524 12.7323 3.90039 12.9613 3.90039 13.2V13.5C3.90093 13.7831 4.03418 14.0497 4.26039 14.22L5.17928 14.91L5.7355 15.7446L6.40661 17.31C6.53451 17.6084 6.60053 17.9296 6.6004 18.2544V18.6C6.6004 18.6795 6.63201 18.7559 6.68826 18.8121C6.74451 18.8684 6.82085 18.9 6.9004 18.9H17.1004C17.18 18.9 17.2563 18.8684 17.3125 18.8121C17.3688 18.7559 17.4004 18.6795 17.4004 18.6V11.4C17.4004 11.0818 17.274 10.7765 17.049 10.5514C16.8238 10.3264 16.5186 10.2 16.2004 10.2L16.2004 10.2ZM8.10037 0.900003H9.90037C10.2186 0.900003 10.5238 1.02643 10.7489 1.25143C10.9739 1.47657 11.1004 1.7818 11.1004 2.1V5.7H6.90037V2.1C6.90037 1.78179 7.0268 1.47655 7.2518 1.25143C7.47693 1.02643 7.78217 0.900003 8.10037 0.900003ZM8.70037 6.3H9.30037V6.6H8.70037V6.3ZM6.90037 6.3H8.10037V6.9C8.10037 6.97956 8.13198 7.0559 8.18823 7.11215C8.24448 7.16839 8.32082 7.2 8.40037 7.2H9.60037C9.67992 7.2 9.75626 7.1684 9.81251 7.11215C9.86876 7.0559 9.90037 6.97956 9.90037 6.9V6.3H11.1004C11.1004 6.61822 10.9739 6.92345 10.7489 7.14857C10.5238 7.37357 10.2186 7.5 9.90037 7.5H8.10037C7.78216 7.5 7.47692 7.37357 7.2518 7.14857C7.0268 6.92344 6.90037 6.61821 6.90037 6.3ZM16.8004 18.3H7.20037V18.2545C7.20091 17.848 7.11827 17.4457 6.95769 17.0724L6.27613 15.4824C6.26889 15.4655 6.26019 15.4493 6.25001 15.434L5.65001 14.534C5.63113 14.5057 5.60755 14.4806 5.58037 14.46L4.62037 13.74C4.54483 13.6833 4.50037 13.5944 4.50037 13.5V13.2C4.50037 13.0343 4.6347 12.9 4.80037 12.9H5.3065C5.86364 12.8986 6.39815 13.12 6.79124 13.515L7.5004 14.2242V15.3H8.1004V8.10002H9.9004V12.6H10.5004V9.60002C10.5004 9.44091 10.5636 9.28823 10.6761 9.17573C10.7886 9.06323 10.9413 9.00002 11.1004 9.00002H11.7004C11.8595 9.00002 12.0122 9.06323 12.1247 9.17573C12.2372 9.28823 12.3004 9.44091 12.3004 9.60002V12.6H12.9004V9.90002C12.9004 9.74091 12.9636 9.58823 13.0761 9.47573C13.1886 9.36323 13.3413 9.30002 13.5004 9.30002H14.1004C14.2595 9.30002 14.4122 9.36323 14.5247 9.47573C14.6372 9.58823 14.7004 9.74091 14.7004 9.90002V12.9H15.3004V11.4C15.3004 11.2409 15.3636 11.0882 15.4761 10.9757C15.5886 10.8632 15.7413 10.8 15.9004 10.8H16.2004C16.3595 10.8 16.5122 10.8632 16.6247 10.9757C16.7372 11.0882 16.8004 11.2409 16.8004 11.4L16.8004 18.3Z"/>
</mask>
<path d="M16.2004 10.2H15.9004C15.689 10.2012 15.482 10.2588 15.3004 10.3667V9.90001C15.3004 9.5818 15.1739 9.27656 14.9489 9.05144C14.7238 8.82644 14.4186 8.70001 14.1004 8.70001H13.5004C13.2166 8.70122 12.9425 8.80394 12.7279 8.98956C12.5135 8.62528 12.1229 8.40122 11.7004 8.40002H11.1004C10.889 8.40123 10.682 8.45882 10.5004 8.56676V7.99502C10.851 7.871 11.1546 7.64156 11.3694 7.3381C11.5844 7.03448 11.7 6.67193 11.7004 6.30003V2.10003C11.6998 1.62284 11.5101 1.1652 11.1727 0.827725C10.8352 0.49036 10.3776 0.300582 9.90038 0.300034H8.10038C7.62319 0.300569 7.16555 0.490347 6.82807 0.827725C6.49071 1.16523 6.30093 1.62284 6.30038 2.10003V6.30003C6.30078 6.67196 6.41636 7.0345 6.63132 7.3381C6.84614 7.64158 7.14975 7.871 7.50039 7.99502V13.3758L7.21539 13.0908C6.71023 12.5828 6.0229 12.2981 5.3065 12.3H4.80037C4.56171 12.3 4.33268 12.3948 4.16396 12.5636C3.99524 12.7323 3.90039 12.9613 3.90039 13.2V13.5C3.90093 13.7831 4.03418 14.0497 4.26039 14.22L5.17928 14.91L5.7355 15.7446L6.40661 17.31C6.53451 17.6084 6.60053 17.9296 6.6004 18.2544V18.6C6.6004 18.6795 6.63201 18.7559 6.68826 18.8121C6.74451 18.8684 6.82085 18.9 6.9004 18.9H17.1004C17.18 18.9 17.2563 18.8684 17.3125 18.8121C17.3688 18.7559 17.4004 18.6795 17.4004 18.6V11.4C17.4004 11.0818 17.274 10.7765 17.049 10.5514C16.8238 10.3264 16.5186 10.2 16.2004 10.2L16.2004 10.2ZM8.10037 0.900003H9.90037C10.2186 0.900003 10.5238 1.02643 10.7489 1.25143C10.9739 1.47657 11.1004 1.7818 11.1004 2.1V5.7H6.90037V2.1C6.90037 1.78179 7.0268 1.47655 7.2518 1.25143C7.47693 1.02643 7.78217 0.900003 8.10037 0.900003ZM8.70037 6.3H9.30037V6.6H8.70037V6.3ZM6.90037 6.3H8.10037V6.9C8.10037 6.97956 8.13198 7.0559 8.18823 7.11215C8.24448 7.16839 8.32082 7.2 8.40037 7.2H9.60037C9.67992 7.2 9.75626 7.1684 9.81251 7.11215C9.86876 7.0559 9.90037 6.97956 9.90037 6.9V6.3H11.1004C11.1004 6.61822 10.9739 6.92345 10.7489 7.14857C10.5238 7.37357 10.2186 7.5 9.90037 7.5H8.10037C7.78216 7.5 7.47692 7.37357 7.2518 7.14857C7.0268 6.92344 6.90037 6.61821 6.90037 6.3ZM16.8004 18.3H7.20037V18.2545C7.20091 17.848 7.11827 17.4457 6.95769 17.0724L6.27613 15.4824C6.26889 15.4655 6.26019 15.4493 6.25001 15.434L5.65001 14.534C5.63113 14.5057 5.60755 14.4806 5.58037 14.46L4.62037 13.74C4.54483 13.6833 4.50037 13.5944 4.50037 13.5V13.2C4.50037 13.0343 4.6347 12.9 4.80037 12.9H5.3065C5.86364 12.8986 6.39815 13.12 6.79124 13.515L7.5004 14.2242V15.3H8.1004V8.10002H9.9004V12.6H10.5004V9.60002C10.5004 9.44091 10.5636 9.28823 10.6761 9.17573C10.7886 9.06323 10.9413 9.00002 11.1004 9.00002H11.7004C11.8595 9.00002 12.0122 9.06323 12.1247 9.17573C12.2372 9.28823 12.3004 9.44091 12.3004 9.60002V12.6H12.9004V9.90002C12.9004 9.74091 12.9636 9.58823 13.0761 9.47573C13.1886 9.36323 13.3413 9.30002 13.5004 9.30002H14.1004C14.2595 9.30002 14.4122 9.36323 14.5247 9.47573C14.6372 9.58823 14.7004 9.74091 14.7004 9.90002V12.9H15.3004V11.4C15.3004 11.2409 15.3636 11.0882 15.4761 10.9757C15.5886 10.8632 15.7413 10.8 15.9004 10.8H16.2004C16.3595 10.8 16.5122 10.8632 16.6247 10.9757C16.7372 11.0882 16.8004 11.2409 16.8004 11.4L16.8004 18.3Z" fill="white"/>
<path d="M16.2004 10.2H15.9004C15.689 10.2012 15.482 10.2588 15.3004 10.3667V9.90001C15.3004 9.5818 15.1739 9.27656 14.9489 9.05144C14.7238 8.82644 14.4186 8.70001 14.1004 8.70001H13.5004C13.2166 8.70122 12.9425 8.80394 12.7279 8.98956C12.5135 8.62528 12.1229 8.40122 11.7004 8.40002H11.1004C10.889 8.40123 10.682 8.45882 10.5004 8.56676V7.99502C10.851 7.871 11.1546 7.64156 11.3694 7.3381C11.5844 7.03448 11.7 6.67193 11.7004 6.30003V2.10003C11.6998 1.62284 11.5101 1.1652 11.1727 0.827725C10.8352 0.49036 10.3776 0.300582 9.90038 0.300034H8.10038C7.62319 0.300569 7.16555 0.490347 6.82807 0.827725C6.49071 1.16523 6.30093 1.62284 6.30038 2.10003V6.30003C6.30078 6.67196 6.41636 7.0345 6.63132 7.3381C6.84614 7.64158 7.14975 7.871 7.50039 7.99502V13.3758L7.21539 13.0908C6.71023 12.5828 6.0229 12.2981 5.3065 12.3H4.80037C4.56171 12.3 4.33268 12.3948 4.16396 12.5636C3.99524 12.7323 3.90039 12.9613 3.90039 13.2V13.5C3.90093 13.7831 4.03418 14.0497 4.26039 14.22L5.17928 14.91L5.7355 15.7446L6.40661 17.31C6.53451 17.6084 6.60053 17.9296 6.6004 18.2544V18.6C6.6004 18.6795 6.63201 18.7559 6.68826 18.8121C6.74451 18.8684 6.82085 18.9 6.9004 18.9H17.1004C17.18 18.9 17.2563 18.8684 17.3125 18.8121C17.3688 18.7559 17.4004 18.6795 17.4004 18.6V11.4C17.4004 11.0818 17.274 10.7765 17.049 10.5514C16.8238 10.3264 16.5186 10.2 16.2004 10.2L16.2004 10.2ZM8.10037 0.900003H9.90037C10.2186 0.900003 10.5238 1.02643 10.7489 1.25143C10.9739 1.47657 11.1004 1.7818 11.1004 2.1V5.7H6.90037V2.1C6.90037 1.78179 7.0268 1.47655 7.2518 1.25143C7.47693 1.02643 7.78217 0.900003 8.10037 0.900003ZM8.70037 6.3H9.30037V6.6H8.70037V6.3ZM6.90037 6.3H8.10037V6.9C8.10037 6.97956 8.13198 7.0559 8.18823 7.11215C8.24448 7.16839 8.32082 7.2 8.40037 7.2H9.60037C9.67992 7.2 9.75626 7.1684 9.81251 7.11215C9.86876 7.0559 9.90037 6.97956 9.90037 6.9V6.3H11.1004C11.1004 6.61822 10.9739 6.92345 10.7489 7.14857C10.5238 7.37357 10.2186 7.5 9.90037 7.5H8.10037C7.78216 7.5 7.47692 7.37357 7.2518 7.14857C7.0268 6.92344 6.90037 6.61821 6.90037 6.3ZM16.8004 18.3H7.20037V18.2545C7.20091 17.848 7.11827 17.4457 6.95769 17.0724L6.27613 15.4824C6.26889 15.4655 6.26019 15.4493 6.25001 15.434L5.65001 14.534C5.63113 14.5057 5.60755 14.4806 5.58037 14.46L4.62037 13.74C4.54483 13.6833 4.50037 13.5944 4.50037 13.5V13.2C4.50037 13.0343 4.6347 12.9 4.80037 12.9H5.3065C5.86364 12.8986 6.39815 13.12 6.79124 13.515L7.5004 14.2242V15.3H8.1004V8.10002H9.9004V12.6H10.5004V9.60002C10.5004 9.44091 10.5636 9.28823 10.6761 9.17573C10.7886 9.06323 10.9413 9.00002 11.1004 9.00002H11.7004C11.8595 9.00002 12.0122 9.06323 12.1247 9.17573C12.2372 9.28823 12.3004 9.44091 12.3004 9.60002V12.6H12.9004V9.90002C12.9004 9.74091 12.9636 9.58823 13.0761 9.47573C13.1886 9.36323 13.3413 9.30002 13.5004 9.30002H14.1004C14.2595 9.30002 14.4122 9.36323 14.5247 9.47573C14.6372 9.58823 14.7004 9.74091 14.7004 9.90002V12.9H15.3004V11.4C15.3004 11.2409 15.3636 11.0882 15.4761 10.9757C15.5886 10.8632 15.7413 10.8 15.9004 10.8H16.2004C16.3595 10.8 16.5122 10.8632 16.6247 10.9757C16.7372 11.0882 16.8004 11.2409 16.8004 11.4L16.8004 18.3Z" stroke="white" stroke-width="0.4" mask="url(#path-2-outside-1_389_3518)"/>
</svg>
