<svg width="22" height="16" viewBox="0 0 22 16" fill="none" xmlns="http://www.w3.org/2000/svg">
<path d="M10.9092 10.9096C12.5159 10.9096 13.8183 9.60717 13.8183 8.00048C13.8183 6.39379 12.5159 5.09131 10.9092 5.09131C9.30248 5.09131 8 6.39379 8 8.00048C8 9.60717 9.30248 10.9096 10.9092 10.9096Z" fill="url(#paint0_linear_395_5831)" fill-opacity="0.8"/>
<path d="M21.7748 7.75294C20.9194 5.54026 19.4344 3.62673 17.5033 2.24885C15.5722 0.870973 13.2797 0.0891464 10.9091 0C8.53848 0.0891464 6.24596 0.870973 4.31486 2.24885C2.38377 3.62673 0.898741 5.54026 0.0433281 7.75294C-0.0144427 7.91273 -0.0144427 8.08771 0.0433281 8.2475C0.898741 10.4602 2.38377 12.3737 4.31486 13.7516C6.24596 15.1295 8.53848 15.9113 10.9091 16.0004C13.2797 15.9113 15.5722 15.1295 17.5033 13.7516C19.4344 12.3737 20.9194 10.4602 21.7748 8.2475C21.8326 8.08771 21.8326 7.91273 21.7748 7.75294ZM10.9091 12.7276C9.97409 12.7276 9.06009 12.4504 8.28268 11.9309C7.50526 11.4115 6.89934 10.6731 6.54153 9.80932C6.18372 8.9455 6.09011 7.99497 6.27251 7.07795C6.45492 6.16092 6.90516 5.31858 7.5663 4.65744C8.22744 3.9963 9.06978 3.54606 9.98681 3.36365C10.9038 3.18125 11.8544 3.27486 12.7182 3.63267C13.582 3.99048 14.3203 4.5964 14.8398 5.37382C15.3592 6.15123 15.6365 7.06523 15.6365 8.00022C15.6346 9.25341 15.1359 10.4547 14.2497 11.3409C13.3636 12.227 12.1623 12.7257 10.9091 12.7276Z" fill="url(#paint1_linear_395_5831)" fill-opacity="0.8"/>
<defs>
<linearGradient id="paint0_linear_395_5831" x1="10.9092" y1="5.09131" x2="10.9092" y2="10.9096" gradientUnits="userSpaceOnUse">
<stop stop-color="#235B7C"/>
<stop offset="1" stop-color="#37A1A4"/>
</linearGradient>
<linearGradient id="paint1_linear_395_5831" x1="10.9091" y1="0" x2="10.9091" y2="16.0004" gradientUnits="userSpaceOnUse">
<stop stop-color="#235B7C"/>
<stop offset="1" stop-color="#37A1A4"/>
</linearGradient>
</defs>
</svg>
