<svg width="20" height="20" viewBox="0 0 20 20" fill="none" xmlns="http://www.w3.org/2000/svg">
<path d="M18.24 11.2498C17.6367 15.259 14.1775 18.3332 10 18.3332C5.39751 18.3332 1.66668 14.6023 1.66668 9.99984C1.66668 5.39734 5.39751 1.6665 10 1.6665C13.4167 1.6665 16.3542 3.72317 17.64 6.6665" stroke="white" stroke-width="1.5" stroke-linecap="round" stroke-linejoin="round"/>
<path d="M14.1667 6.66667H17.8333C17.899 6.66667 17.964 6.65373 18.0247 6.62861C18.0853 6.60348 18.1405 6.56665 18.1869 6.52022C18.2333 6.47379 18.2702 6.41867 18.2953 6.35801C18.3204 6.29735 18.3333 6.23233 18.3333 6.16667V2.5" stroke="white" stroke-width="1.5" stroke-linecap="round" stroke-linejoin="round"/>
<path d="M10 5.8335C9.58796 5.8335 9.18516 5.95568 8.84256 6.1846C8.49996 6.41352 8.23293 6.73889 8.07525 7.11957C7.91757 7.50025 7.87631 7.91914 7.9567 8.32327C8.03708 8.72739 8.2355 9.09861 8.52686 9.38997C8.81822 9.68133 9.18943 9.87975 9.59356 9.96013C9.99769 10.0405 10.4166 9.99926 10.7973 9.84158C11.1779 9.6839 11.5033 9.41687 11.7322 9.07427C11.9611 8.73166 12.0833 8.32887 12.0833 7.91683C12.0833 7.3643 11.8638 6.83439 11.4731 6.44369C11.0824 6.05299 10.5525 5.8335 10 5.8335ZM10 9.16683C9.75277 9.16683 9.5111 9.09352 9.30554 8.95617C9.09998 8.81881 8.93976 8.62359 8.84515 8.39518C8.75054 8.16678 8.72579 7.91544 8.77402 7.67297C8.82225 7.43049 8.9413 7.20776 9.11612 7.03295C9.29093 6.85813 9.51366 6.73908 9.75614 6.69085C9.99861 6.64262 10.2499 6.66737 10.4784 6.76198C10.7068 6.85659 10.902 7.01681 11.0393 7.22237C11.1767 7.42793 11.25 7.6696 11.25 7.91683C11.25 8.24835 11.1183 8.56629 10.8839 8.80071C10.6495 9.03513 10.3315 9.16683 10 9.16683ZM13.75 13.7502V13.3335C13.75 12.5599 13.4427 11.8181 12.8957 11.2711C12.3487 10.7241 11.6069 10.4168 10.8333 10.4168H9.16667C8.39312 10.4168 7.65125 10.7241 7.10427 11.2711C6.55729 11.8181 6.25 12.5599 6.25 13.3335V13.7502H7.08333V13.3335C7.08333 12.781 7.30283 12.2511 7.69353 11.8604C8.08423 11.4697 8.61413 11.2502 9.16667 11.2502H10.8333C11.3859 11.2502 11.9158 11.4697 12.3065 11.8604C12.6972 12.2511 12.9167 12.781 12.9167 13.3335V13.7502H13.75Z" fill="white"/>
</svg>
