<svg width="16" height="16" viewBox="0 0 16 16" fill="none" xmlns="http://www.w3.org/2000/svg">
<path d="M3.6374 11.4198C2.72859 11.775 2.14939 12.4273 1.93606 13.3836C1.82139 13.8977 1.60966 14.367 1.51846 14.886C1.49713 15.0081 1.49073 15.0828 1.41393 15.1676C1.40699 15.295 1.17073 15.2054 1.04806 15.1974C0.925394 15.1494 0.843794 15.0609 0.808594 14.926C0.82406 14.8449 0.83686 14.775 0.852327 14.694C0.869394 14.6652 0.863527 14.6273 0.869394 14.5969C0.950994 14.1798 1.02673 13.7622 1.10513 13.3446C1.34246 12.0822 2.05286 11.2044 3.25393 10.743C3.91473 10.4892 4.58726 10.2652 5.25446 10.0273C5.6342 9.89183 5.6326 9.89237 5.6182 9.4865C5.61606 9.42837 5.599 9.39263 5.55046 9.36117C4.65553 8.78997 4.18246 7.9713 4.1206 6.91317C4.11633 6.84117 4.1014 6.81077 4.01926 6.8033C3.4998 6.75477 3.07633 6.38197 2.96326 5.8833C2.85019 5.38623 3.04913 4.83317 3.50673 4.61184C3.7942 4.47264 3.82566 4.30197 3.8294 4.0289C3.84913 2.5985 4.8198 1.35157 6.199 0.956902C6.37553 0.906236 6.5558 0.870502 6.73446 0.828369C6.95633 0.834236 7.29286 0.843836 7.51473 0.849702C7.61926 0.880636 7.72966 0.881702 7.83526 0.905169C9.29873 1.2305 10.3707 2.52437 10.3942 4.02837C10.3985 4.3009 10.4283 4.4721 10.7163 4.6113C11.1734 4.8321 11.3729 5.3873 11.2598 5.88277C11.1457 6.38357 10.7238 6.7569 10.2038 6.8017C10.0907 6.8113 10.1057 6.8737 10.1014 6.9409C10.0395 7.9265 9.6054 8.70463 8.80326 9.2801C8.7366 9.3281 8.62513 9.3473 8.61286 9.43103C8.5926 9.5729 8.6054 9.7201 8.6086 9.86517C8.60966 9.9121 8.65766 9.91423 8.69126 9.92757C8.8086 9.9729 8.92966 10.0108 9.0422 10.0662C9.12913 10.1089 9.16966 10.0844 9.2214 10.0108C9.6918 9.34463 10.3142 8.89557 11.1131 8.7041C12.8934 8.27797 14.9142 9.41343 15.167 11.4641C15.1681 11.4726 15.1675 11.4822 15.1691 11.4908C15.1814 11.5772 15.1947 11.663 15.1947 11.75V11.975C15.1947 12.0886 15.1777 12.2006 15.1643 12.3137C15.1627 12.3292 15.1654 12.3462 15.1633 12.3606C14.9094 13.8156 13.9158 14.8406 12.4827 15.1286C12.3393 15.1574 12.1899 15.142 12.0513 15.1969H11.7142C11.7014 15.1601 11.6694 15.1713 11.6438 15.1692C10.199 15.0465 9.02033 14.0316 8.69126 12.6252C8.6646 12.5105 8.647 12.3937 8.623 12.2684C8.59206 12.2886 8.5766 12.2982 8.56166 12.3089C7.12326 13.3484 5.215 12.6524 4.78033 10.9281L3.6374 11.4198ZM9.27473 6.19637C9.27473 5.84597 9.27313 5.55423 9.2758 5.2625C9.27633 5.19743 9.26406 5.16437 9.191 5.1537C8.73606 5.08597 8.3382 4.89397 7.999 4.58357C7.95526 4.54357 7.93233 4.5409 7.887 4.58197C7.66033 4.78677 7.38993 4.91264 7.10033 5.00064C6.44113 5.2017 5.7638 5.2401 5.08113 5.20757C4.96433 5.20224 4.943 5.23157 4.94406 5.3409C4.95046 5.82303 4.9446 6.30517 4.94726 6.7873C4.9542 7.95423 5.78033 8.8561 6.94086 8.96597C8.0406 9.0705 9.0774 8.25877 9.24593 7.1633C9.29873 6.82197 9.26086 6.47957 9.27473 6.19637ZM9.4758 11.894C9.46246 13.2316 10.5467 14.3228 11.9014 14.335C13.2145 14.3468 14.3121 13.263 14.3318 11.9334C14.3521 10.606 13.2721 9.4945 11.9462 9.4769C10.5814 9.45983 9.48966 10.5276 9.4758 11.894ZM4.8294 3.94677C4.8294 3.9905 4.8342 4.03477 4.82833 4.07744C4.81553 4.1697 4.84913 4.1985 4.94353 4.19744C5.19686 4.1937 5.4502 4.20917 5.70353 4.2033C6.17073 4.1921 6.63686 4.1617 7.08273 4.00064C7.29766 3.9233 7.5094 3.82357 7.6166 3.6113C7.72166 3.40384 7.96166 3.3761 8.12006 3.5825C8.415 3.9665 8.82513 4.15637 9.30726 4.19157C9.37073 4.19637 9.39686 4.18464 9.3958 4.1121C9.39313 3.9297 9.39526 3.7473 9.36433 3.56757C9.15633 2.3521 8.05073 1.5345 6.84966 1.67157C5.72913 1.79797 4.8262 2.75104 4.8294 3.94677ZM7.12006 12.1964C7.29873 12.2049 7.49393 12.1772 7.6774 12.1057C8.199 11.9025 8.62566 11.6028 8.73766 11.0022C8.75046 10.934 8.77553 10.8678 8.79793 10.8017C8.8582 10.6246 8.85553 10.6316 8.6854 10.558C8.5782 10.5116 8.53926 10.5281 8.49126 10.6417C8.24273 11.2246 7.791 11.55 7.16006 11.5702C6.51686 11.5905 6.04433 11.286 5.75526 10.7078C5.66033 10.5174 5.66673 10.5206 5.4582 10.5868C5.36113 10.6177 5.32593 10.6566 5.34726 10.7622C5.5158 11.5884 6.2534 12.1948 7.12006 12.1964ZM6.41446 9.82143C6.41446 9.9457 6.4118 10.0614 6.415 10.1777C6.42406 10.5382 6.6982 10.822 7.0678 10.8561C7.399 10.8865 7.71686 10.6449 7.79046 10.3062C7.82513 10.1478 7.8006 9.98837 7.80913 9.8209C7.34193 9.96117 6.8806 9.96117 6.41446 9.82143ZM4.04166 5.7361C4.0438 5.56863 4.04006 5.40117 4.04326 5.2337C4.04433 5.18037 4.03526 5.15957 3.97233 5.1697C3.75473 5.2049 3.58833 5.3985 3.59153 5.6241C3.59419 5.84223 3.76486 6.03744 3.97553 6.06677C4.02353 6.07317 4.0438 6.0641 4.0438 6.0145C4.0438 5.9217 4.0406 5.8289 4.04166 5.7361ZM10.199 5.47797C10.1958 5.6433 10.2006 5.80917 10.1969 5.9745C10.1958 6.02197 10.2086 6.0369 10.2577 6.0305C10.4507 6.0049 10.6086 5.82623 10.6123 5.62517C10.6161 5.4177 10.4651 5.2401 10.2646 5.2065C10.2102 5.19744 10.1963 5.21024 10.1974 5.26357C10.199 5.33504 10.2006 5.4065 10.199 5.47797Z" fill="white"/>
<path d="M8.30948 8.01461C8.31641 8.23701 8.06521 8.37728 7.85188 8.26261C7.67801 8.16928 7.49988 8.09248 7.30255 8.06741C6.98681 8.02688 6.68921 8.08181 6.41295 8.24075C6.32815 8.28981 6.24015 8.31221 6.14521 8.28075C6.02788 8.24181 5.95695 8.15701 5.93935 8.03755C5.92015 7.91008 5.97455 7.80875 6.08388 7.74155C6.48921 7.49248 6.93135 7.40981 7.39961 7.46421C7.65188 7.49355 7.89401 7.56128 8.10521 7.71061C8.21028 7.78528 8.29614 7.87648 8.30948 8.01461Z" fill="white"/>
<path d="M6.51245 5.65812C6.49325 6.10292 6.14765 6.46718 5.70124 6.51465C5.49698 6.53652 5.33591 6.42825 5.31671 6.25598C5.29644 6.07572 5.41378 5.94345 5.62178 5.91305C5.81644 5.88425 5.87724 5.81972 5.91298 5.60158C5.94391 5.41385 6.08045 5.29918 6.24791 5.31945C6.41111 5.33918 6.52045 5.47892 6.51245 5.65812Z" fill="white"/>
<path d="M8.58392 6.51641C8.14178 6.51535 7.73752 6.13508 7.70818 5.69348C7.69485 5.49028 7.79832 5.34041 7.96525 5.31961C8.14552 5.29721 8.28045 5.41455 8.31138 5.62095C8.34125 5.81881 8.40578 5.88068 8.61965 5.91535C8.80472 5.94521 8.91672 6.06948 8.90659 6.23375C8.89645 6.39801 8.76099 6.51641 8.58392 6.51641Z" fill="white"/>
<path d="M13.7863 11.8897C13.6311 12.1078 13.4461 12.2987 13.2429 12.4721C13.0055 12.6753 12.7463 12.8427 12.4509 12.9494C12.069 13.0865 11.6898 13.0753 11.3143 12.9254C11.0599 12.8241 10.8333 12.6774 10.6231 12.5035C10.4237 12.3382 10.2439 12.1531 10.085 11.9489C10.0306 11.879 10.0301 11.8278 10.0845 11.7579C10.3495 11.4219 10.6573 11.1339 11.029 10.919C11.3223 10.7494 11.6359 10.6465 11.9805 10.6619C12.2135 10.6721 12.4333 10.7345 12.6423 10.8363C13.0893 11.0539 13.4461 11.3798 13.7517 11.7665C13.7655 11.7841 13.7751 11.8049 13.7869 11.8241C13.7863 11.8454 13.7863 11.8678 13.7863 11.8897ZM11.9133 12.5403C11.9357 12.5403 11.9575 12.5403 11.9799 12.5403C11.9879 12.5403 11.9959 12.5393 12.0039 12.5382C12.1831 12.5185 12.3453 12.4534 12.4983 12.3611C12.7154 12.2305 12.8978 12.0603 13.0621 11.8689C13.0733 11.8561 13.0727 11.8486 13.0621 11.8358C13.0167 11.783 12.9698 11.7318 12.9213 11.6827C12.7453 11.5057 12.5517 11.3526 12.3207 11.2523C12.205 11.2022 12.085 11.1691 11.9586 11.1633C11.7655 11.1537 11.5879 11.207 11.4194 11.2945C11.1623 11.4278 10.9527 11.6198 10.7655 11.8379C10.7559 11.8491 10.7565 11.8555 10.7655 11.8667C10.9527 12.0849 11.1623 12.2763 11.4194 12.4102C11.5741 12.4907 11.7367 12.5425 11.9133 12.5403Z" fill="white"/>
<path d="M11.9144 12.2614C11.6888 12.2614 11.5053 12.0779 11.5059 11.8523C11.5064 11.6262 11.6899 11.4433 11.9155 11.4443C12.1411 11.4454 12.3224 11.6273 12.3229 11.8523C12.3235 12.0779 12.14 12.2614 11.9144 12.2614ZM12.0563 11.8529C12.0563 11.7745 11.9928 11.711 11.9144 11.7105C11.836 11.7099 11.7715 11.775 11.7715 11.8529C11.772 11.9313 11.8349 11.9947 11.9133 11.9953C11.9923 11.9958 12.0568 11.9313 12.0563 11.8529Z" fill="white"/>
</svg>
